<svg width="97" height="20" viewBox="0 0 97 20" fill="none" xmlns="http://www.w3.org/2000/svg">
<g clip-path="url(#clip0_558_2267)">
<mask id="mask0_558_2267" style="mask-type:luminance" maskUnits="userSpaceOnUse" x="0" y="0" width="97" height="20">
<path d="M97 0H0V20H97V0Z" fill="white"/>
</mask>
<g mask="url(#mask0_558_2267)">
<path d="M33.2779 0.019043C39.1141 0.019043 43.1316 4.27587 43.1316 10.0116C43.1316 15.7473 39.1141 19.9999 33.2779 19.9999C27.4418 19.9999 23.4238 15.7431 23.4238 10.0095C23.4238 4.27587 27.4413 0.019043 33.2779 0.019043ZM33.2779 2.59627C29.0843 2.59627 26.4444 5.75265 26.4444 10.0095C26.4444 14.2374 29.0843 17.4223 33.2779 17.4223C37.4121 17.4223 40.111 14.2374 40.111 10.0095C40.111 5.75265 37.413 2.59627 33.2779 2.59627Z" fill="#231F20"/>
<path d="M49.2593 0.337402H46.6199V19.652H49.2593V0.337402Z" fill="#231F20"/>
<path d="M52.5723 12.6448C52.5723 8.61973 55.3284 5.31836 59.7279 5.31836C64.1563 5.31836 66.8836 8.61973 66.8836 12.6448C66.8836 16.6988 64.1563 20.001 59.7279 20.001C55.3288 20.001 52.5723 16.6997 52.5723 12.6448ZM64.127 12.6448C64.127 10.0085 62.5728 7.63536 59.7279 7.63536C56.9128 7.63536 55.3288 10.0098 55.3288 12.6448C55.3288 15.3092 56.9128 17.6836 59.7279 17.6836C62.5728 17.6836 64.127 15.3092 64.127 12.6448Z" fill="#231F20"/>
<path d="M79.7862 19.6521V17.7412C79.1452 18.4366 78.3673 18.9956 77.4999 19.3839C76.6326 19.7722 75.6942 19.9817 74.742 19.9995C71.721 19.9995 70.2258 18.4938 70.2258 15.5403V5.66553H72.8657V14.6699C72.8657 16.986 74.0384 17.6813 75.857 17.6813C76.6192 17.6627 77.3675 17.4762 78.0474 17.1356C78.7273 16.7949 79.3215 16.3085 79.7866 15.7121V5.66553H82.4261V19.6521H79.7862Z" fill="#231F20"/>
<path d="M86.6464 15.9165C87.906 17.1681 89.6105 17.8851 91.3973 17.915C93.3916 17.915 94.4471 17.1042 94.4471 15.9165C94.4471 14.5265 92.8344 14.0634 91.0162 13.6578C88.6114 13.1076 85.7954 12.4706 85.7954 9.45879C85.7954 7.22938 87.7333 5.31804 91.1919 5.31804C93.187 5.25708 95.1259 5.97516 96.5883 7.31655L95.4152 9.14072C94.594 8.15635 93.0101 7.43264 91.2212 7.43264C89.4322 7.43264 88.3177 8.12744 88.3177 9.25681C88.3177 10.4729 89.8431 10.8782 91.6027 11.2838C94.066 11.834 96.9987 12.5004 96.9987 15.7141C96.9987 18.1179 95.0044 20.0003 91.2802 20.0003C88.9043 20.0003 86.8221 19.2774 85.385 17.8283L86.6464 15.9165Z" fill="#231F20"/>
<path d="M2.88879 0H17.2574C18.0236 -8.40387e-09 18.7584 0.3005 19.3002 0.835406C19.842 1.37031 20.1465 2.09582 20.1466 2.85234V17.0401C20.1465 17.7966 19.842 18.5221 19.3002 19.057C18.7584 19.5919 18.0236 19.8924 17.2574 19.8924H2.88879C2.12263 19.8924 1.38786 19.5919 0.846106 19.057C0.304353 18.5221 0 17.7966 0 17.0401L0 2.85234C0 2.09586 0.304353 1.37035 0.846106 0.835432C1.38786 0.300514 2.12263 0 2.88879 0Z" fill="black"/>
<path d="M16.086 12.7988L16.077 12.5862L16.0632 12.3736L16.0434 12.158L16.0176 11.9424L15.987 11.723L15.9504 11.5019L15.9073 11.2795L15.8604 11.0554L15.8048 10.83L15.7471 10.6051L15.6838 10.3793L15.6153 10.1535L15.5417 9.92772L15.4629 9.70151L15.3793 9.47615L15.2906 9.25078L15.1985 9.02627L15.1003 8.8026L14.9978 8.57979L14.8914 8.35825L14.7816 8.13842L14.6662 7.92326L14.5469 7.70768L14.4229 7.49252L14.2937 7.27991L14.1623 7.06985L14.0271 6.86235L13.8884 6.65824L13.7467 6.45669L13.6012 6.25854L13.4522 6.06422L13.3002 5.87287L13.146 5.68535L12.9879 5.50166L12.8282 5.32222L12.6632 5.14745L12.4983 4.97737L12.3334 4.81068L12.1641 4.6491L11.9919 4.49177L11.8196 4.33997L11.6443 4.19285L11.4678 4.05125L11.2895 3.91518L11.1108 3.78421L10.9299 3.6592L10.7473 3.53972L10.5647 3.42661L10.3821 3.31648L10.1982 3.21528L10.0135 3.12045L9.82872 3.03201L9.64397 2.94994L9.45793 2.87468L9.27275 2.80579L9.08757 2.74371L8.90239 2.69014L8.71807 2.64209L8.53376 2.60169L8.3503 2.5681L8.16771 2.54301L7.98554 2.52473L7.80467 2.51367H7.61174L7.4468 2.5192L7.2711 2.53238L7.09884 2.55407L6.92658 2.58383L6.75777 2.62168L6.59283 2.6676L6.42789 2.7216L6.26855 2.78453L6.11266 2.85597L5.9615 2.93506L5.81508 3.0201L5.67339 3.11535L5.53688 3.21783L5.40768 3.32541L5.28194 3.44234L5.1592 3.57161L5.04551 3.70172L4.93526 3.83779L4.83406 3.98066L4.73717 4.12779L4.64802 4.28129L4.56577 4.4399L4.48954 4.60148L4.41978 4.77156L4.35604 4.94463L4.30092 5.12109L4.2501 5.30223L4.20489 5.48763L4.1657 5.676L4.13426 5.86777L4.10713 6.06337L4.08646 6.26194L4.07138 6.46392L4.0632 6.66887L4.05933 6.88403L4.06234 7.08601L4.07052 7.29862L4.08473 7.5142L4.10454 7.72979L4.12995 7.94792L4.16139 8.16733L4.19756 8.38887L4.24063 8.61126L4.288 8.83492L4.34312 9.05943L4.39825 9.2848L4.46155 9.51016L4.53002 9.73638L4.60323 9.96217L4.68204 10.1884L4.76516 10.4142L4.85129 10.6391L4.94431 10.8636L5.04206 11.0877L5.14456 11.3105L5.25093 11.5316L5.36117 11.7515L5.47659 11.97L5.59588 12.1856L5.71947 12.4012L5.84867 12.6138L5.97786 12.823L6.11309 13.0305L6.25218 13.2346L6.39387 13.4362L6.53986 13.6343L6.68886 13.8295L6.84045 14.0204L6.99505 14.2079L7.15224 14.3916L7.31287 14.5711L7.47781 14.7467L7.64275 14.9168L7.80725 15.083L7.97951 15.2446L8.15177 15.4019L8.32403 15.5537L8.49931 15.7009L8.6763 15.8425L8.85459 15.979L9.03417 16.1095L9.21461 16.2345L9.39678 16.3536L9.5798 16.4667L9.76283 16.5743L9.94714 16.6759L10.1319 16.7707L10.3171 16.8596L10.5022 16.9412L10.6879 17.0165L10.8735 17.0849L11.0586 17.147L11.2438 17.201L11.4286 17.2491L11.6129 17.2916L11.7959 17.3248L11.9794 17.3507L12.1611 17.369L12.3415 17.3792H12.5353L12.7003 17.3741L12.876 17.3605L13.0482 17.3388L13.2205 17.3095L13.3893 17.2712L13.5542 17.2248L13.7192 17.1708L13.8785 17.1079L14.0344 17.0369L14.1847 16.9574L14.3316 16.8702L14.4737 16.7754L14.6106 16.6725L14.7398 16.5649L14.866 16.448L14.9857 16.3242L15.0994 16.1937L15.2097 16.0568L15.3109 15.9148L15.4056 15.7668L15.4947 15.6133L15.5774 15.4542L15.6532 15.2927L15.723 15.1226L15.7872 14.9495L15.8423 14.7722L15.8931 14.5915L15.9362 14.4061L15.9749 14.2177L16.0081 14.0251L16.0344 13.8299L16.0555 13.6309L16.0701 13.4294L16.0796 13.2248L16.0826 13.0097L16.086 12.7988ZM8.56606 3.81611L8.71118 3.85863L8.85847 3.9071L9.0079 3.9611L9.1582 4.02191L9.31021 4.08952L9.46353 4.16266L9.61813 4.24175L9.77402 4.32679L9.92992 4.41779L10.0871 4.51473L10.2439 4.61721L10.401 4.72479L10.5578 4.83832L10.7146 4.95781L10.8709 5.08282L11.0259 5.21039L11.1805 5.3456L11.3334 5.4855L11.485 5.63007L11.6353 5.78017L11.7843 5.9341L11.9311 6.09186L12.0763 6.25344L12.2192 6.42012L12.3592 6.59021L12.4966 6.76455L12.6318 6.94186L12.7653 7.12215L12.8945 7.30542L13.0207 7.49167L13.1438 7.68089L13.2644 7.87181L13.3811 8.06613L13.4944 8.26216L13.6046 8.45903L13.7101 8.65846L13.8118 8.85873L13.9091 9.06071L14.0017 9.26354L14.0904 9.46679L14.1765 9.67089L14.2566 9.875L14.332 10.0791L14.4031 10.2832L14.4694 10.4869L14.531 10.6901L14.5861 10.8921L14.6386 11.0928L14.6856 11.2927L14.7286 11.4908L14.7657 11.6877L14.7984 11.8824L14.8251 12.0751L14.8475 12.2651L14.8656 12.4527L14.8776 12.6368L14.8845 12.8183V13.1704L14.8776 13.3405L14.8656 13.5072L14.8483 13.6688L14.8268 13.8274L14.8014 13.9813L14.7704 14.1306L14.7364 14.2751L14.6972 14.4146L14.6541 14.5485L14.6339 14.6025L14.5745 14.5919L14.4345 14.5613L14.2919 14.5243L14.1468 14.4818L13.9995 14.4333L13.8505 14.3793L13.6998 14.3181L13.5474 14.2505L13.394 14.1773L13.2399 14.0982L13.084 14.0132L12.9277 13.9222L12.7709 13.8252L12.6141 13.7228L12.4574 13.6152L12.3006 13.5012L12.1439 13.3822L11.988 13.2572L11.8325 13.1275L11.6779 12.9923L11.525 12.8528L11.3734 12.7078L11.2236 12.5585L11.0741 12.4046L10.9269 12.2464L10.7822 12.0848L10.6392 11.9186L10.4992 11.7485L10.3614 11.5742L10.2258 11.3973L10.0931 11.217L9.96394 11.0333L9.83776 10.847L9.71373 10.6578L9.59401 10.4669L9.47429 10.2751L9.36103 10.0795L9.25079 9.8818L9.14528 9.68237L9.04364 9.4821L8.94632 9.28012L8.85287 9.07772L8.76415 8.87404L8.67802 8.66994L8.59792 8.46583L8.5217 8.26173L8.45107 8.05763L8.38475 7.85437L8.32317 7.65112L8.26848 7.44914L8.21336 7.24759L8.16641 7.04732L8.12335 6.84917L8.08588 6.65272L8.05359 6.45754L8.02602 6.26535L8.00406 6.07527L7.9864 5.88775L7.97435 5.70364L7.96702 5.52207V5.16914L7.97435 4.99905L7.98597 4.83195L8.00277 4.67036L8.0243 4.51176L8.04928 4.35783L8.08029 4.20858L8.1156 4.06443L8.15436 3.92454L8.19742 3.79017L8.21809 3.73617L8.27709 3.7468L8.41748 3.77741L8.56606 3.81611ZM13.863 15.7451L13.7769 15.8097L13.6908 15.8693L13.5999 15.9228L13.5073 15.9726L13.4104 16.0151L13.3109 16.0551L13.208 16.0895L13.1025 16.1197L12.9923 16.1444L12.8824 16.1644L12.7662 16.1792L12.6477 16.189L12.5254 16.1928H12.3997L12.2705 16.186L12.1383 16.1733L12.0039 16.158L11.8665 16.1337L11.7266 16.1031L11.5836 16.0661L11.4385 16.0236L11.2912 15.9747L11.1422 15.9207L10.9919 15.8599L10.8394 15.7923L10.6861 15.7192L10.532 15.6401L10.3761 15.555L10.2197 15.464L10.063 15.3671L9.90494 15.265L9.74775 15.1574L9.591 15.0439L9.43381 14.9244L9.27792 14.7998L9.12245 14.6723L8.96871 14.5371L8.8154 14.3976L8.66381 14.2526L8.51352 14.1033L8.36451 13.9494L8.21766 13.7912L8.07253 13.6296L7.92956 13.4634L7.7896 13.2933L7.65136 13.1198L7.51614 12.9425L7.38436 12.7563L7.25516 12.5721L7.12855 12.3859L7.00496 12.1971L6.88524 12.0058L6.76853 11.8119L6.65527 11.6163L6.54589 11.4211L6.44124 11.2217L6.33918 11.0214L6.24228 10.8194L6.14883 10.617L6.06012 10.4137L5.97399 10.2096L5.89432 10.0051L5.81852 9.80144L5.74747 9.59733L5.68115 9.39365L5.61956 9.19083L5.56444 8.98842L5.5119 8.7873L5.46496 8.58745L5.4219 8.3893L5.38529 8.19285L5.35256 7.9981L5.32586 7.8059L5.30347 7.61583L5.28624 7.42831L5.27375 7.24419L5.26643 7.06262V6.71012L5.27375 6.54003L5.28581 6.37335L5.30261 6.21177L5.32414 6.05359L5.34998 5.89966L5.38055 5.75041L5.41501 5.60584L5.45463 5.46637L5.49769 5.33242L5.54463 5.20486L5.59502 5.08155L5.65014 4.96291L5.70785 4.85023L5.76943 4.74265L5.83446 4.64102L5.9025 4.5445L5.97269 4.45393L6.04634 4.36889L6.12299 4.28895L6.20137 4.20943L6.28319 4.14012L6.36932 4.07591L6.45545 4.01681L6.54632 3.96281L6.63977 3.91348L6.7358 3.86841L6.83528 3.82886L6.93821 3.79357L6.95242 3.78932L6.90935 3.95685L6.8706 4.14565L6.83744 4.33784L6.81073 4.53344L6.78963 4.73202L6.77499 4.934L6.76552 5.13853L6.76293 5.35411V5.55609L6.77155 5.76869L6.78533 5.98428L6.80514 6.19944L6.83055 6.41757L6.86198 6.63741L6.89816 6.8581L6.94122 7.08091L6.98859 7.305L7.04372 7.52951L7.10185 7.75445L7.16516 7.98024L7.23363 8.20603L7.30641 8.43224L7.38565 8.65846L7.4692 8.88382L7.55533 9.10918L7.64791 9.3337L7.7461 9.55736L7.8486 9.78017L7.95497 10.0017L8.06521 10.222L8.18063 10.4401L8.29992 10.6557L8.42394 10.8709L8.55314 11.0835L8.68448 11.2935L8.81971 11.5006L8.95838 11.7043L9.10049 11.9058L9.24605 12.104L9.39505 12.2987L9.54664 12.4896L9.70081 12.6772L9.85886 12.8609L10.0195 13.0403L10.1844 13.2159L10.3494 13.386L10.5139 13.5523L10.6861 13.7143L10.8584 13.8712L11.0307 14.0234L11.2059 14.1697L11.3825 14.3113L11.5612 14.4478L11.7412 14.5783L11.9221 14.7033L12.1038 14.8224L12.2864 14.9355L12.4699 15.0431L12.6538 15.1443L12.8385 15.2391L13.0241 15.3275L13.2084 15.4096L13.394 15.4849L13.5792 15.5533L13.7648 15.6154L13.9496 15.669L13.9392 15.6788L13.863 15.7451Z" fill="white"/>
</g>
</g>
<defs>
<clipPath id="clip0_558_2267">
<rect width="97" height="20" fill="white"/>
</clipPath>
</defs>
</svg>
