<svg width="393" height="852" viewBox="0 0 393 852" fill="none" xmlns="http://www.w3.org/2000/svg">
<mask id="mask0_306_1173" style="mask-type:alpha" maskUnits="userSpaceOnUse" x="0" y="0" width="393" height="852">
<rect width="393" height="852" fill="#D9D9D9"/>
</mask>
<g mask="url(#mask0_306_1173)">
<rect width="420" height="852" transform="matrix(-1 0 0 1 406 0)" fill="url(#paint0_linear_306_1173)"/>
<path d="M361.575 338.454L362.571 337.536L363.548 336.595L364.515 335.612L365.458 334.599L366.4 333.548L367.326 332.459L368.232 331.334L369.131 330.183L370.002 328.985L370.861 327.777L371.703 326.539L372.523 325.275L373.322 323.986L374.103 322.67L374.861 321.334L375.597 319.973L376.316 318.598L377.006 317.198L377.675 315.779L378.321 314.347L378.946 312.905L379.525 311.455L380.091 309.984L380.636 308.491L381.147 306.984L381.638 305.477L382.1 303.961L382.532 302.442L382.939 300.919L383.314 299.39L383.657 297.861L383.973 296.329L384.262 294.802L384.516 293.272L384.743 291.751L384.927 290.224L385.087 288.716L385.231 287.222L385.333 285.728L385.403 284.236L385.445 282.768L385.452 281.303L385.428 279.856L385.369 278.422L385.284 277.007L385.162 275.606L385.006 274.22L384.818 272.859L384.617 271.511L384.366 270.193L384.082 268.897L383.766 267.628L383.419 266.384L383.034 265.163L382.622 263.971L382.176 262.808L381.689 261.68L381.179 260.578L380.632 259.508L380.055 258.47L379.44 257.471L378.794 256.503L378.118 255.57L377.34 254.624L376.648 253.838L375.875 253.03L375.074 252.274L374.235 251.552L373.37 250.879L372.482 250.259L371.554 249.672L370.606 249.149L369.63 248.678L368.636 248.261L367.632 247.893L366.598 247.589L365.55 247.341L364.506 247.149L363.431 247.013L362.308 246.942L361.217 246.919L360.112 246.938L359.01 247.028L357.904 247.158L356.799 247.351L355.697 247.599L354.605 247.89L353.497 248.246L352.4 248.645L351.32 249.1L350.236 249.595L349.153 250.135L348.08 250.717L347.022 251.351L345.962 252.021L344.914 252.736L343.873 253.492L342.844 254.294L341.784 255.159L340.815 256.004L339.815 256.918L338.826 257.874L337.859 258.857L336.902 259.878L335.963 260.933L335.033 262.021L334.127 263.146L333.231 264.298L332.363 265.491L331.491 266.687L330.652 267.924L329.83 269.189L329.029 270.476L328.248 271.792L327.487 273.128L326.742 274.475L326.026 275.854L325.332 277.254L324.664 278.672L324.019 280.103L323.396 281.547L322.8 283.011L322.234 284.482L321.686 285.974L321.175 287.482L320.68 288.975L320.217 290.491L319.787 292.012L319.38 293.535L319.007 295.065L318.66 296.598L318.344 298.126L318.057 299.655L317.799 301.181L317.576 302.706L317.388 304.237L317.227 305.745L317.084 307.235L316.994 308.744L316.925 310.235L316.882 311.704L316.875 313.168L316.901 314.618L316.957 316.054L317.048 317.471L317.169 318.87L317.325 320.253L317.514 321.615L317.73 322.955L317.98 324.277L318.265 325.572L318.58 326.846L318.931 328.09L319.314 329.309L319.73 330.501L320.176 331.664L320.661 332.795L321.173 333.898L321.71 334.977L322.287 336.011L322.901 337.017L323.545 337.984L324.224 338.911L325.005 339.861L325.696 340.649L326.47 341.455L327.271 342.211L328.108 342.935L328.975 343.606L329.865 344.225L330.793 344.812L331.741 345.335L332.715 345.808L333.708 346.218L334.723 346.58L335.757 346.887L336.81 347.136L337.853 347.328L338.93 347.466L340.014 347.545L341.107 347.566L342.216 347.544L343.314 347.457L344.415 347.314L345.52 347.12L346.626 346.872L347.717 346.58L348.824 346.223L349.924 345.827L351.007 345.368L352.09 344.875L353.164 344.324L354.235 343.74L355.304 343.111L356.358 342.438L357.41 341.724L358.448 340.968L359.479 340.174L360.536 339.304L361.575 338.454ZM374.864 264.657L375.243 265.543L375.602 266.465L375.942 267.42L376.253 268.407L376.538 269.43L376.801 270.483L377.041 271.566L377.257 272.68L377.444 273.819L377.607 274.988L377.742 276.178L377.853 277.391L377.934 278.627L377.986 279.887L378.01 281.167L378.016 282.452L377.983 283.766L377.92 285.09L377.829 286.428L377.707 287.782L377.56 289.145L377.387 290.514L377.187 291.89L376.955 293.276L376.693 294.662L376.401 296.052L376.085 297.444L375.748 298.839L375.379 300.226L374.983 301.61L374.561 302.992L374.121 304.368L373.648 305.739L373.152 307.1L372.641 308.45L372.098 309.787L371.535 311.108L370.947 312.416L370.336 313.703L369.706 314.974L369.063 316.235L368.394 317.467L367.707 318.675L367.003 319.862L366.281 321.024L365.542 322.162L364.784 323.262L364.021 324.345L363.24 325.396L362.451 326.422L361.644 327.412L360.831 328.373L360.003 329.296L359.17 330.187L358.332 331.046L357.487 331.862L356.633 332.642L354.923 334.088L354.069 334.753L353.211 335.379L352.356 335.959L351.499 336.505L350.649 337.013L349.799 337.474L348.96 337.901L348.124 338.282L347.3 338.621L346.956 338.744L346.768 338.409L346.352 337.597L345.957 336.745L345.578 335.859L345.219 334.937L344.88 333.985L344.57 332.994L344.283 331.968L344.02 330.916L343.782 329.834L343.566 328.72L343.377 327.58L343.216 326.412L343.081 325.222L342.971 324.011L342.892 322.774L342.838 321.516L342.817 320.238L342.819 318.942L342.852 317.628L342.913 316.305L343.006 314.966L343.126 313.618L343.271 312.252L343.445 310.88L343.646 309.506L343.876 308.121L344.138 306.736L344.429 305.344L344.741 303.951L345.081 302.56L345.452 301.171L345.848 299.787L346.266 298.401L346.71 297.029L347.159 295.654L347.652 294.295L348.167 292.942L348.71 291.605L349.273 290.283L349.861 288.976L350.467 287.686L351.099 286.413L351.742 285.152L352.411 283.921L353.094 282.708L353.801 281.523L354.52 280.362L355.259 279.225L356.019 278.127L356.776 277.028L357.559 275.975L358.348 274.949L359.151 273.958L359.968 272.998L360.79 272.073L361.625 271.184L362.464 270.327L363.31 269.511L364.162 268.729L365.876 267.279L366.732 266.616L367.59 265.986L368.443 265.404L369.3 264.858L370.148 264.348L370.998 263.887L371.841 263.468L372.677 263.083L373.503 262.742L373.849 262.622L374.035 262.955L374.453 263.769L374.864 264.657ZM338.298 339.658L337.636 339.501L337 339.324L336.373 339.098L335.758 338.848L335.16 338.548L334.565 338.224L333.983 337.861L333.41 337.468L332.846 337.028L332.306 336.572L331.764 336.062L331.239 335.522L330.727 334.938L330.22 334.321L329.732 333.659L329.26 332.958L328.793 332.236L328.356 331.463L327.94 330.651L327.543 329.797L327.164 328.911L326.808 327.987L326.469 327.035L326.158 326.048L325.871 325.022L325.608 323.97L325.37 322.888L325.154 321.774L324.965 320.634L324.804 319.466L324.662 318.272L324.55 317.059L324.469 315.823L324.416 314.561L324.392 313.285L324.384 311.998L324.421 310.688L324.479 309.363L324.572 308.024L324.691 306.673L324.837 305.31L325.013 303.94L325.212 302.564L325.443 301.179L325.704 299.794L325.989 298.403L326.305 297.011L326.678 295.599L327.051 294.209L327.445 292.823L327.863 291.441L328.309 290.067L328.78 288.698L329.273 287.338L329.78 286L330.326 284.667L330.887 283.344L331.477 282.038L332.083 280.748L332.713 279.478L333.356 278.217L334.028 276.985L334.712 275.777L335.416 274.589L336.138 273.427L336.875 272.291L337.635 271.189L338.4 270.105L339.181 269.054L339.97 268.028L340.776 267.041L341.59 266.081L342.416 265.16L343.249 264.269L344.09 263.414L344.934 262.596L345.786 261.814L347.498 260.365L348.354 259.702L349.212 259.076L350.064 258.495L350.919 257.95L351.771 257.445L352.619 256.981L353.46 256.556L354.298 256.177L355.122 255.838L355.931 255.544L356.733 255.285L357.531 255.067L358.311 254.887L359.082 254.747L359.838 254.649L360.582 254.586L361.305 254.558L362.015 254.57L362.712 254.617L363.415 254.675L364.081 254.791L364.74 254.95L365.375 255.129L366.004 255.353L366.62 255.609L367.227 255.895L367.82 256.22L368.407 256.58L368.485 256.632L367.497 257.109L366.424 257.695L365.357 258.322L364.299 258.995L363.25 259.708L362.21 260.466L361.178 261.26L360.121 262.133L359.14 262.963L358.142 263.879L357.15 264.832L356.185 265.814L355.228 266.835L354.288 267.892L353.362 268.977L352.453 270.104L351.556 271.257L350.688 272.45L349.83 273.659L348.989 274.898L348.169 276.161L347.364 277.448L346.585 278.766L345.827 280.102L345.08 281.451L344.363 282.827L343.673 284.228L343.004 285.646L342.358 287.079L341.733 288.524L341.139 289.987L340.573 291.458L340.028 292.95L339.517 294.458L339.027 295.965L338.567 297.479L338.137 298.997L337.731 300.522L337.356 302.05L337.011 303.581L336.696 305.109L336.407 306.636L336.152 308.166L335.929 309.691L335.741 311.222L335.581 312.73L335.437 314.22L335.345 315.731L335.278 317.22L335.233 318.691L335.23 320.152L335.255 321.6L335.313 323.037L335.405 324.456L335.527 325.857L335.682 327.238L335.869 328.598L336.087 329.94L336.337 331.258L336.622 332.554L336.941 333.828L337.286 335.069L337.67 336.289L338.084 337.478L338.531 338.644L339.016 339.77L338.927 339.76L338.298 339.658Z" fill="white" fill-opacity="0.03"/>
<path d="M217.833 134.808L218.829 133.89L219.806 132.949L220.773 131.966L221.716 130.953L222.658 129.901L223.585 128.813L224.491 127.688L225.39 126.537L226.26 125.338L227.12 124.131L227.961 122.893L228.781 121.629L229.581 120.34L230.362 119.024L231.119 117.688L231.856 116.327L232.574 114.952L233.265 113.551L233.933 112.133L234.58 110.701L235.205 109.259L235.784 107.809L236.35 106.338L236.894 104.845L237.406 103.338L237.896 101.83L238.358 100.314L238.79 98.7955L239.198 97.2723L239.573 95.7441L239.915 94.2147L240.231 92.6827L240.52 91.156L240.775 89.6259L241.002 88.1049L241.185 86.5777L241.346 85.0698L241.49 83.5758L241.592 82.0817L241.661 80.5902L241.703 79.1215L241.711 77.6572L241.686 76.2093L241.628 74.7757L241.543 73.3609L241.421 71.9601L241.264 70.5735L241.077 69.2131L240.875 67.8649L240.625 66.5471L240.34 65.2513L240.024 63.9816L239.678 62.7382L239.293 61.5165L238.88 60.3251L238.435 59.1617L237.948 58.0333L237.438 56.9318L236.89 55.8617L236.313 54.8239L235.699 53.8252L235.053 52.8565L234.377 51.924L233.598 50.9777L232.906 50.1914L232.133 49.3838L231.333 48.628L230.494 47.9054L229.629 47.2329L228.74 46.6126L227.813 46.0255L226.864 45.5026L225.888 45.0315L224.895 44.6151L223.891 44.2464L222.857 43.9429L221.808 43.6944L220.765 43.5028L219.689 43.3666L218.567 43.2958L217.476 43.2728L216.37 43.2913L215.268 43.382L214.163 43.5113L213.058 43.7049L211.956 43.9532L210.863 44.2433L209.756 44.6001L208.658 44.9987L207.579 45.4535L206.494 45.9486L205.411 46.4887L204.338 47.0705L203.28 47.7044L202.221 48.3751L201.173 49.0897L200.131 49.8458L199.103 50.6479L198.042 51.5131L197.074 52.3578L196.074 53.2717L195.084 54.2273L194.117 55.2104L193.16 56.2314L192.222 57.2872L191.292 58.375L190.385 59.5001L189.49 60.6516L188.622 61.8446L187.75 63.0411L186.911 64.2777L186.088 65.5431L185.287 66.83L184.506 68.1462L183.745 69.4817L183 70.8285L182.285 72.2074L181.591 73.6077L180.922 75.0261L180.278 76.4564L179.655 77.9005L179.059 79.3648L178.493 80.8358L177.945 82.3279L177.433 83.8353L176.938 85.3287L176.476 86.8446L176.046 88.3656L175.639 89.8888L175.265 91.4192L174.918 92.952L174.603 94.4801L174.316 96.009L174.058 97.5349L173.834 99.0601L173.647 100.591L173.486 102.099L173.342 103.589L173.252 105.098L173.183 106.589L173.141 108.058L173.133 109.522L173.16 110.972L173.216 112.408L173.306 113.825L173.427 115.224L173.584 116.606L173.773 117.969L173.989 119.309L174.239 120.63L174.523 121.926L174.839 123.2L175.189 124.443L175.573 125.663L175.989 126.855L176.434 128.018L176.919 129.148L177.431 130.252L177.968 131.331L178.545 132.365L179.159 133.371L179.804 134.338L180.482 135.265L181.264 136.215L181.954 137.003L182.729 137.809L183.529 138.565L184.367 139.289L185.233 139.96L186.124 140.578L187.052 141.166L188 141.688L188.974 142.161L189.966 142.572L190.982 142.934L192.016 143.241L193.068 143.49L194.112 143.682L195.189 143.82L196.273 143.899L197.365 143.92L198.475 143.898L199.573 143.811L200.674 143.667L201.779 143.474L202.885 143.226L203.975 142.934L205.083 142.577L206.182 142.18L207.266 141.722L208.348 141.229L209.422 140.678L210.494 140.094L211.563 139.465L212.617 138.792L213.668 138.078L214.706 137.321L215.738 136.527L216.795 135.658L217.833 134.808ZM231.123 61.0106L231.502 61.8972L231.86 62.8188L232.201 63.7737L232.512 64.7607L232.797 65.7842L233.06 66.8367L233.3 67.92L233.515 69.0341L233.702 70.1727L233.866 71.3421L234 72.532L234.112 73.7451L234.193 74.9805L234.245 76.2404L234.268 77.5209L234.274 78.8055L234.241 80.1195L234.179 81.4442L234.088 82.7818L233.965 84.1358L233.819 85.4992L233.645 86.8678L233.446 88.2436L233.213 89.6298L232.952 91.0153L232.659 92.4055L232.343 93.7974L232.006 95.1931L231.638 96.5799L231.242 97.9641L230.82 99.3458L230.379 100.722L229.906 102.093L229.411 103.454L228.9 104.804L228.357 106.141L227.794 107.462L227.206 108.77L226.594 110.057L225.965 111.328L225.321 112.589L224.653 113.82L223.966 115.029L223.261 116.216L222.54 117.378L221.801 118.516L221.042 119.616L220.279 120.698L219.498 121.75L218.71 122.775L217.903 123.766L217.089 124.727L216.261 125.649L215.429 126.54L214.591 127.4L213.745 128.215L212.891 128.995L211.181 130.442L210.327 131.107L209.469 131.733L208.615 132.313L207.758 132.859L206.908 133.367L206.058 133.828L205.218 134.255L204.383 134.636L203.559 134.975L203.215 135.098L203.027 134.763L202.611 133.95L202.215 133.099L201.837 132.213L201.478 131.291L201.139 130.338L200.828 129.347L200.542 128.322L200.278 127.269L200.041 126.188L199.825 125.074L199.636 123.933L199.474 122.766L199.34 121.576L199.23 120.365L199.151 119.128L199.097 117.87L199.075 116.591L199.078 115.296L199.111 113.982L199.171 112.659L199.264 111.32L199.384 109.971L199.529 108.606L199.703 107.233L199.904 105.86L200.135 104.475L200.396 103.09L200.687 101.697L200.999 100.305L201.34 98.9136L201.711 97.5251L202.106 96.1409L202.525 94.755L202.969 93.3832L203.417 92.0079L203.91 90.6486L204.426 89.2953L204.969 87.9583L205.532 86.6368L206.12 85.3294L206.726 84.0393L207.357 82.7672L208.001 81.506L208.669 80.2744L209.353 79.0618L210.059 77.8766L210.779 76.7161L211.518 75.5788L212.278 74.4806L213.034 73.3819L213.818 72.3287L214.606 71.3032L215.409 70.3121L216.227 69.3517L217.049 68.4267L217.884 67.5379L218.723 66.6807L219.569 65.8649L220.421 65.0829L222.135 63.6326L222.99 62.9696L223.849 62.3399L224.701 61.7583L225.559 61.2121L226.407 60.7021L227.257 60.2408L228.099 59.8217L228.935 59.4369L229.761 59.0959L230.107 58.9754L230.294 59.3085L230.711 60.1229L231.123 61.0106ZM194.556 136.012L193.895 135.855L193.258 135.677L192.631 135.452L192.016 135.202L191.419 134.902L190.824 134.578L190.241 134.215L189.669 133.821L189.104 133.382L188.564 132.925L188.023 132.416L187.498 131.876L186.986 131.291L186.478 130.675L185.99 130.013L185.519 129.312L185.051 128.59L184.615 127.817L184.199 127.004L183.802 126.151L183.423 125.265L183.066 124.341L182.727 123.388L182.416 122.401L182.13 121.376L181.866 120.323L181.629 119.242L181.413 118.128L181.224 116.987L181.062 115.82L180.92 114.626L180.809 113.412L180.728 112.177L180.674 110.915L180.65 109.638L180.643 108.352L180.679 107.042L180.738 105.717L180.831 104.378L180.949 103.027L181.096 101.664L181.272 100.293L181.471 98.9175L181.702 97.533L181.963 96.1476L182.248 94.7566L182.564 93.3647L182.936 91.953L183.309 90.5627L183.703 89.1763L184.122 87.7943L184.568 86.4208L185.039 85.0515L185.532 83.6922L186.038 82.3537L186.585 81.0209L187.146 79.6973L187.736 78.392L188.342 77.1019L188.971 75.8315L189.615 74.5703L190.287 73.3391L190.97 72.1303L191.675 70.9431L192.397 69.7808L193.133 68.6453L193.894 67.5431L194.659 66.4589L195.44 65.4074L196.228 64.3819L197.035 63.3951L197.849 62.4343L198.674 61.5135L199.507 60.6226L200.348 59.7675L201.192 58.9497L202.045 58.1676L203.756 56.7191L204.612 56.056L205.47 55.4302L206.323 54.8486L207.178 54.3042L208.03 53.7984L208.878 53.335L209.719 52.9099L210.556 52.5311L211.38 52.1919L212.189 51.8979L212.991 51.6383L213.79 51.4212L214.57 51.2411L215.341 51.1011L216.097 51.0024L216.84 50.9395L217.563 50.9116L218.273 50.9234L218.971 50.9708L219.673 51.0285L220.34 51.145L220.999 51.3036L221.634 51.4832L222.262 51.707L222.879 51.9626L223.485 52.2484L224.079 52.5739L224.665 52.9337L224.743 52.9859L223.756 53.4631L222.683 54.0489L221.615 54.676L220.558 55.3489L219.508 56.0614L218.468 56.8196L217.437 57.6136L216.379 58.4868L215.398 59.3168L214.4 60.2327L213.409 61.1863L212.444 62.1676L211.487 63.1886L210.546 64.2462L209.62 65.3305L208.712 66.4574L207.815 67.6106L206.947 68.8035L206.089 70.0131L205.248 71.2514L204.427 72.5151L203.622 73.8017L202.843 75.1199L202.086 76.4558L201.339 77.8044L200.622 79.1811L199.932 80.5818L199.263 82.0002L198.616 83.4323L197.991 84.8782L197.397 86.3406L196.832 87.8117L196.287 89.3042L195.776 90.8115L195.285 92.319L194.825 93.8332L194.395 95.3503L193.99 96.8756L193.615 98.4038L193.27 99.935L192.954 101.463L192.665 102.99L192.411 104.52L192.187 106.045L192 107.576L191.839 109.084L191.695 110.574L191.603 112.085L191.536 113.574L191.492 115.045L191.489 116.505L191.513 117.953L191.571 119.391L191.663 120.81L191.786 122.211L191.941 123.592L192.128 124.952L192.346 126.294L192.596 127.612L192.881 128.908L193.2 130.182L193.545 131.423L193.928 132.642L194.343 133.832L194.79 134.998L195.275 136.124L195.186 136.113L194.556 136.012Z" fill="white" fill-opacity="0.03"/>
<path d="M63.7943 328.499L63.5553 327.156L63.2867 325.816L62.978 324.463L62.6316 323.116L62.2524 321.748L61.8341 320.374L61.3745 318.998L60.8891 317.615L60.349 316.23L59.7958 314.851L59.2069 313.471L58.5858 312.095L57.9324 310.724L57.2464 309.355L56.5316 307.995L55.7846 306.639L55.0168 305.292L54.2121 303.956L53.3813 302.629L52.5273 301.313L51.6534 300.011L50.7485 298.744L49.8191 297.477L48.8605 296.217L47.8719 294.978L46.872 293.757L45.8501 292.555L44.8096 291.378L43.7525 290.22L42.6742 289.087L41.5776 287.981L40.4648 286.897L39.3419 285.839L38.1981 284.808L37.0471 283.807L35.868 282.839L34.6928 281.901L33.5206 280.985L32.3259 280.104L31.116 279.254L29.9109 278.439L28.691 277.656L27.4677 276.909L26.2385 276.199L25.011 275.521L23.7751 274.884L22.5333 274.282L21.2969 273.722L20.0631 273.18L18.8289 272.697L17.5948 272.254L16.3661 271.852L15.143 271.491L13.9176 271.174L12.7031 270.897L11.4944 270.663L10.2931 270.483L9.1018 270.337L7.91712 270.241L6.74366 270.186L5.58288 270.185L4.43062 270.227L3.29263 270.314L2.08891 270.481L1.06458 270.659L-0.0203433 270.895L-1.07648 271.182L-2.12567 271.521L-3.14642 271.908L-4.13606 272.343L-5.11876 272.829L-6.05886 273.367L-6.97017 273.957L-7.84534 274.59L-8.68584 275.258L-9.48803 275.986L-10.2518 276.756L-10.9654 277.552L-11.6496 278.404L-12.3043 279.332L-12.9019 280.257L-13.4729 281.218L-13.9816 282.214L-14.4598 283.233L-14.8842 284.286L-15.2612 285.365L-15.598 286.458L-15.8872 287.6L-16.1362 288.755L-16.3286 289.924L-16.4901 291.12L-16.613 292.337L-16.6957 293.568L-16.7272 294.814L-16.7285 296.081L-16.6869 297.361L-16.6075 298.658L-16.4825 299.967L-16.3219 301.338L-16.1297 302.619L-15.896 303.964L-15.6222 305.321L-15.3135 306.674L-14.9676 308.039L-14.583 309.406L-14.1671 310.783L-13.7074 312.159L-13.2198 313.539L-12.683 314.918L-12.1456 316.303L-11.557 317.68L-10.9356 319.058L-10.2849 320.43L-9.59891 321.799L-8.88643 323.162L-8.15587 324.517L-7.38269 325.864L-6.58032 327.203L-5.74949 328.53L-4.89594 329.843L-4.0193 331.145L-3.11152 332.434L-2.18211 333.7L-1.22583 334.963L-0.237173 336.203L0.748556 337.42L1.77044 338.622L2.81359 339.798L3.87067 340.956L4.9517 342.089L6.04897 343.2L7.15872 344.282L8.28435 345.34L9.42282 346.371L10.5791 347.372L11.759 348.345L12.9342 349.283L14.1033 350.197L15.3169 351.075L16.5267 351.925L17.7319 352.741L18.9518 353.524L20.1777 354.27L21.4073 354.983L22.6398 355.657L23.873 356.295L25.1118 356.894L26.3509 357.454L27.5852 357.979L28.8224 358.465L30.0565 358.907L31.2882 359.312L32.5137 359.67L33.7364 359.987L34.9532 360.261L36.1619 360.495L37.3636 360.678L38.5576 360.823L39.7441 360.933L40.9145 360.986L42.0814 360.991L43.2309 360.95L44.3655 360.858L45.5746 360.69L46.5993 360.515L47.6839 360.276L48.74 359.989L49.7895 359.653L50.8099 359.263L51.7992 358.825L52.7819 358.339L53.722 357.801L54.6337 357.214L55.5031 356.579L56.3445 355.897L57.1497 355.171L57.9158 354.399L58.6294 353.603L59.3163 352.75L59.957 351.86L60.5542 350.932L61.1245 349.966L61.6339 348.975L62.0979 347.953L62.5223 346.9L62.9016 345.817L63.2357 344.725L63.5249 343.583L63.7766 342.428L63.9683 341.253L64.1301 340.06L64.2396 338.845L64.3197 337.614L64.3611 336.361L64.3574 335.097L64.3182 333.814L64.2364 332.521L64.1199 331.213L63.9539 329.843L63.7943 328.499ZM9.16158 277.931L10.1036 278.075L11.0641 278.256L12.0428 278.469L13.0328 278.725L14.0393 279.023L15.0587 279.355L16.0912 279.724L17.1369 280.129L18.1877 280.572L19.2516 281.052L20.3177 281.567L21.3908 282.115L22.4663 282.7L23.5469 283.324L24.6296 283.983L25.7065 284.659L26.7872 285.384L27.8612 286.141L28.9311 286.928L29.9977 287.752L31.0596 288.601L32.1113 289.476L33.1556 290.377L34.1908 291.313L35.2101 292.272L36.2169 293.261L37.2129 294.271L38.2006 295.301L39.1641 296.354L40.1113 297.428L41.0422 298.524L41.9585 299.632L42.8536 300.766L43.7286 301.914L44.5855 303.07L45.415 304.245L46.2211 305.43L47.0018 306.629L47.7537 307.838L48.4818 309.053L49.1944 310.276L49.8695 311.503L50.5149 312.735L51.1336 313.971L51.7223 315.208L52.281 316.446L52.7984 317.682L53.2986 318.912L53.7631 320.141L54.2019 321.364L54.6021 322.583L54.9735 323.792L55.3056 324.993L55.6085 326.182L55.8824 327.358L56.1158 328.518L56.3147 329.666L56.617 331.903L56.7201 332.99L56.788 334.06L56.8193 335.102L56.8212 336.129L56.7949 337.129L56.7296 338.104L56.6415 339.053L56.5167 339.973L56.3631 340.862L56.2832 341.223L55.9033 341.207L55.0037 341.133L54.0826 341.022L53.1406 340.878L52.1801 340.697L51.204 340.483L50.211 340.225L49.2018 339.927L48.1825 339.595L47.1526 339.226L46.107 338.821L45.0535 338.378L43.9922 337.898L42.9262 337.383L41.8557 336.835L40.7798 336.247L39.6996 335.626L38.6196 334.967L37.5382 334.277L36.4575 333.552L35.3839 332.798L34.3136 332.008L33.2504 331.19L32.1858 330.341L31.131 329.463L30.0895 328.562L29.0547 327.629L28.0353 326.669L27.0258 325.681L26.0275 324.674L25.0452 323.644L24.0813 322.588L23.1341 321.514L22.1978 320.419L21.2869 319.309L20.3752 318.194L19.5006 317.049L18.643 315.888L17.8134 314.712L17.0073 313.528L16.2266 312.328L15.4697 311.123L14.7413 309.905L14.0286 308.683L13.3536 307.455L12.7027 306.224L12.0868 304.988L11.4985 303.754L10.9397 302.516L10.425 301.279L9.90799 300.046L9.44312 298.814L9.00426 297.592L8.60179 296.376L8.23266 295.163L7.89564 293.966L7.59538 292.777L7.32417 291.6L7.09082 290.441L6.88921 289.293L6.58611 287.05L6.48572 285.963L6.41475 284.89L6.38077 283.849L6.3789 282.822L6.40255 281.822L6.46783 280.847L6.56436 279.9L6.68604 278.977L6.83933 278.086L6.92192 277.725L7.29915 277.741L8.20137 277.814L9.16158 277.931ZM52.4549 349.153L51.973 349.638L51.4868 350.091L50.9658 350.511L50.4309 350.907L49.8629 351.261L49.2765 351.602L48.6639 351.91L48.0316 352.193L47.3649 352.446L46.6969 352.668L45.9842 352.863L45.2537 353.028L44.494 353.159L43.7094 353.268L42.8975 353.337L42.0617 353.37L41.2102 353.389L40.3323 353.355L39.4327 353.281L38.5089 353.17L37.5669 353.026L36.606 352.843L35.63 352.629L34.64 352.373L33.6308 352.075L32.6115 351.743L31.5816 351.374L30.536 350.969L29.4825 350.526L28.4212 350.046L27.3475 349.535L26.2744 348.987L25.1988 348.402L24.1155 347.779L23.0359 347.122L21.9563 346.446L20.881 345.72L19.8047 344.967L18.7344 344.176L17.6685 343.358L16.6066 342.509L15.5545 341.631L14.5103 340.73L13.4755 339.797L12.4562 338.838L11.4447 337.855L10.4487 336.845L9.46659 335.776L8.5024 334.718L7.55251 333.644L6.61924 332.551L5.70795 331.439L4.81329 330.308L3.93866 329.163L3.08857 328.017L2.26439 326.841L1.4556 325.656L0.677595 324.457L-0.0792813 323.251L-0.807335 322.036L-1.51999 320.814L-2.19272 319.583L-2.84053 318.354L-3.45915 317.119L-4.04785 315.882L-4.60626 314.646L-5.12401 313.408L-5.62453 312.175L-6.08904 310.945L-6.5279 309.723L-6.92499 308.507L-7.29645 307.297L-7.62809 306.099L-7.93105 304.91L-8.19956 303.733L-8.4356 302.574L-8.63721 301.426L-8.93994 299.186L-9.04033 298.099L-9.10825 297.029L-9.14223 295.987L-9.14373 294.963L-9.11471 293.963L-9.05212 292.988L-8.96133 292.039L-8.83391 291.118L-8.68025 290.229L-8.49693 289.378L-8.28847 288.55L-8.04643 287.749L-7.78316 286.982L-7.49133 286.245L-7.17288 285.543L-6.83125 284.871L-6.47107 284.234L-6.08465 283.63L-5.67504 283.055L-5.25431 282.482L-4.80333 281.97L-4.32109 281.487L-3.83448 281.037L-3.31392 280.615L-2.77323 280.221L-2.21276 279.851L-1.62605 279.513L-1.0142 279.2L-0.929184 279.16L-1.05399 280.262L-1.13367 281.496L-1.1755 282.746L-1.17411 284.013L-1.13523 285.293L-1.05312 286.589L-0.936587 287.897L-0.767563 289.27L-0.594105 290.553L-0.357779 291.897L-0.0866561 293.255L0.22172 294.606L0.567583 295.97L0.952521 297.34L1.36774 298.711L1.82778 300.09L2.31579 301.473L2.85253 302.852L3.40843 304.231L3.99731 305.612L4.61844 306.987L5.26679 308.362L5.95545 309.731L6.67025 311.091L7.40117 312.448L8.17166 313.795L8.97635 315.131L9.80719 316.459L10.6611 317.774L11.5381 319.079L12.4455 320.365L13.3749 321.632L14.3335 322.891L15.3222 324.131L16.3221 325.352L17.3436 326.551L18.3837 327.725L19.4435 328.883L20.5218 330.016L21.6187 331.124L22.7285 332.206L23.8514 333.264L24.9953 334.295L26.1516 335.296L27.3315 336.269L28.5066 337.207L29.6758 338.121L30.8897 339.001L32.0992 339.849L33.3047 340.667L34.5238 341.445L35.7471 342.191L36.9793 342.904L38.2146 343.577L39.4504 344.215L40.6865 344.814L41.9229 345.375L43.1599 345.899L44.3941 346.383L45.6282 346.825L46.8622 347.227L48.0827 347.588L49.3054 347.906L50.5195 348.18L51.7309 348.414L52.9296 348.594L52.8735 348.665L52.4549 349.153Z" fill="white" fill-opacity="0.03"/>
<path d="M15.6903 608.01L16.2074 606.75L16.6974 605.477L17.161 604.17L17.5902 602.847L18.0027 601.489L18.3852 600.105L18.7343 598.696L19.0659 597.266L19.3517 595.806L19.624 594.343L19.8667 592.859L20.08 591.362L20.2637 589.85L20.419 588.322L20.5451 586.787L20.6417 585.237L20.7163 583.683L20.7543 582.117L20.7654 580.545L20.751 578.97L20.7123 577.395L20.6292 575.833L20.5252 574.257L20.3929 572.672L20.2244 571.087L20.0367 569.511L19.8201 567.939L19.5747 566.378L19.3053 564.824L19.0047 563.279L18.6742 561.747L18.3185 560.224L17.9403 558.717L17.5298 557.222L17.098 555.748L16.6243 554.286L16.138 552.852L15.6426 551.437L15.109 550.041L14.5469 548.661L13.9699 547.313L13.3632 545.984L12.7344 544.684L12.081 543.412L11.4114 542.168L10.7136 540.952L9.99127 539.764L9.25183 538.614L8.50443 537.48L7.72577 536.395L6.92514 535.345L6.10744 534.332L5.27268 533.356L4.41235 532.415L3.53988 531.515L2.6492 530.654L1.73579 529.842L0.812491 529.065L-0.131272 528.332L-1.08832 527.641L-2.0632 527.002L-3.05383 526.404L-4.05641 525.851L-5.15738 525.33L-6.11339 524.916L-7.15132 524.518L-8.19234 524.179L-9.25496 523.886L-10.3195 523.65L-11.3836 523.472L-12.4693 523.34L-13.5469 523.276L-14.6276 523.27L-15.7017 523.321L-16.7648 523.42L-17.8281 523.591L-18.8812 523.818L-19.9062 524.094L-20.9366 524.434L-21.9828 524.854L-22.9796 525.303L-23.9727 525.796L-24.9324 526.354L-25.8789 526.947L-26.7982 527.599L-27.6918 528.298L-28.559 529.032L-29.4121 529.832L-30.2387 530.666L-31.0253 531.543L-31.7998 532.458L-32.5538 533.414L-33.2813 534.403L-33.9736 535.433L-34.6517 536.497L-35.3008 537.595L-35.9271 538.729L-36.522 539.898L-37.1196 541.138L-37.6427 542.32L-38.1647 543.578L-38.6603 544.87L-39.1239 546.177L-39.5624 547.513L-39.9699 548.874L-40.356 550.259L-40.7051 551.668L-41.0331 553.097L-41.3191 554.551L-41.6073 556.01L-41.8489 557.491L-42.0632 558.991L-42.2494 560.501L-42.4048 562.029L-42.5344 563.566L-42.6446 565.106L-42.7143 566.663L-42.7559 568.229L-42.767 569.801L-42.7514 571.374L-42.7104 572.95L-42.6364 574.532L-42.5323 576.108L-42.4036 577.695L-42.2351 579.28L-42.0574 580.845L-41.8408 582.416L-41.593 583.978L-41.3236 585.533L-41.0205 587.079L-40.6923 588.616L-40.3379 590.136L-39.9573 591.643L-39.5516 593.136L-39.115 594.613L-38.6435 596.079L-38.1572 597.513L-37.6632 598.924L-37.1124 600.329L-36.5502 601.709L-35.9732 603.057L-35.3666 604.385L-34.7353 605.687L-34.083 606.962L-33.4074 608.206L-32.7121 609.42L-31.991 610.604L-31.2491 611.756L-30.4924 612.876L-29.7125 613.964L-28.9118 615.015L-28.0928 616.032L-27.2545 617.006L-26.3966 617.945L-25.5205 618.845L-24.6298 619.706L-23.7176 620.52L-22.7918 621.298L-21.8537 622.044L-20.898 622.731L-19.9205 623.377L-18.9323 623.974L-17.9299 624.521L-16.824 625.045L-15.8692 625.461L-14.8301 625.856L-13.7891 626.195L-12.7276 626.49L-11.6619 626.724L-10.5967 626.9L-9.511 627.032L-8.43338 627.096L-7.35381 627.105L-6.28344 627.048L-5.21226 626.938L-4.14764 626.771L-3.0909 626.543L-2.06588 626.266L-1.03304 625.928L-0.0188707 625.532L0.979098 625.08L1.97447 624.582L2.93187 624.03L3.86833 623.425L4.78765 622.774L5.68488 622.073L6.54962 621.338L7.40269 620.538L8.23179 619.705L9.02064 618.823L9.79402 617.91L10.5357 616.949L11.2607 615.959L11.9652 614.928L12.6372 613.865L13.2899 612.765L13.9126 611.633L14.5137 610.47L15.1065 609.227L15.6903 608.01ZM-3.19537 535.479L-2.48092 536.118L-1.77012 536.798L-1.06181 537.515L-0.366779 538.275L0.319875 539.078L0.99912 539.918L1.66981 540.795L2.33195 541.711L2.97817 542.661L3.61584 543.649L4.23626 544.668L4.84549 545.718L5.43635 546.802L6.01127 547.92L6.56896 549.069L7.11245 550.229L7.633 551.433L8.13121 552.659L8.60955 553.909L9.06571 555.187L9.50428 556.485L9.92032 557.798L10.3163 559.13L10.6863 560.485L11.0301 561.852L11.3477 563.236L11.645 564.632L11.9246 566.041L12.1716 567.455L12.3935 568.879L12.5902 570.312L12.7676 571.747L12.9138 573.192L13.0358 574.637L13.1383 576.08L13.207 577.524L13.2512 578.963L13.2664 580.4L13.2522 581.829L13.2148 583.25L13.1603 584.669L13.0715 586.072L12.9556 587.462L12.8151 588.841L12.6488 590.204L12.4565 591.552L12.2308 592.875L11.9938 594.183L11.7271 595.472L11.4428 596.74L11.1275 597.985L10.7934 599.205L10.4305 600.397L10.0499 601.562L9.6515 602.701L9.22782 603.804L8.78146 604.878L7.8397 606.925L7.34543 607.895L6.83075 608.831L6.30024 609.724L5.75311 610.588L5.19638 611.414L4.62022 612.198L4.03936 612.946L3.44265 613.651L2.83862 614.314L2.57866 614.573L2.26796 614.35L1.55117 613.794L0.836676 613.194L0.122232 612.555L-0.588576 611.875L-1.29443 611.159L-1.99077 610.396L-2.67989 609.591L-3.35913 608.752L-4.02736 607.875L-4.68951 606.96L-5.33819 606.009L-5.97339 605.022L-6.59381 604.002L-7.2006 602.954L-7.7903 601.868L-8.36637 600.752L-8.9216 599.604L-9.46186 598.43L-9.98241 597.227L-10.4818 596.003L-10.959 594.751L-11.4149 593.478L-11.856 592.18L-12.2733 590.862L-12.6668 589.532L-13.038 588.179L-13.3817 586.813L-13.7018 585.427L-14.0028 584.032L-14.2774 582.626L-14.5233 581.209L-14.7452 579.785L-14.9468 578.35L-15.1193 576.917L-15.2896 575.479L-15.4127 574.036L-15.5129 572.589L-15.5816 571.144L-15.6258 569.706L-15.641 568.269L-15.6328 566.84L-15.5943 565.416L-15.5398 563.997L-15.451 562.594L-15.34 561.202L-15.1971 559.824L-15.0319 558.464L-14.8396 557.116L-14.6114 555.794L-14.3869 554.473L-14.119 553.182L-13.8348 551.914L-13.5231 550.671L-13.1853 549.449L-12.8285 548.257L-12.4454 547.093L-12.0446 545.955L-11.6209 544.853L-11.177 543.777L-10.233 541.726L-9.73624 540.757L-9.22289 539.817L-8.69484 538.923L-8.14771 538.059L-7.59344 537.232L-7.01727 536.448L-6.43018 535.705L-5.83479 534.997L-5.22962 534.332L-4.96721 534.074L-4.65897 534.295L-3.93971 534.852L-3.19537 535.479ZM-4.87648 619.132L-5.54087 619.275L-6.19161 619.389L-6.85346 619.455L-7.5149 619.494L-8.18159 619.479L-8.85618 619.443L-9.53566 619.365L-10.2185 619.255L-10.9136 619.101L-11.5937 618.92L-12.2971 618.693L-12.999 618.43L-13.7072 618.122L-14.4248 617.782L-15.1439 617.393L-15.8642 616.962L-16.59 616.51L-17.3091 615.998L-18.0259 615.442L-18.7429 614.841L-19.4573 614.201L-20.167 613.519L-20.8728 612.803L-21.5679 612.043L-22.257 611.239L-22.9362 610.399L-23.6045 609.523L-24.2666 608.607L-24.9153 607.656L-25.5505 606.669L-26.1794 605.649L-26.7886 604.599L-27.3795 603.516L-27.9569 602.396L-28.5132 601.251L-29.0592 600.089L-29.5748 598.888L-30.0766 597.663L-30.5538 596.411L-31.0123 595.137L-31.4508 593.84L-31.8657 592.524L-32.2617 591.192L-32.6329 589.84L-32.9766 588.473L-33.3014 587.091L-33.5988 585.695L-33.8526 584.256L-34.0974 582.837L-34.3217 581.412L-34.522 579.981L-34.6934 578.545L-34.8407 577.103L-34.9638 575.66L-35.066 574.23L-35.1297 572.788L-35.1764 571.348L-35.1891 569.912L-35.181 568.483L-35.1435 567.062L-35.0891 565.642L-34.9967 564.238L-34.8844 562.85L-34.7439 561.471L-34.5775 560.108L-34.3864 558.763L-34.1596 557.437L-33.9214 556.126L-33.6547 554.837L-33.3704 553.569L-33.0538 552.328L-32.7197 551.108L-32.3579 549.919L-31.9773 548.753L-31.574 547.617L-31.1528 546.512L-30.7089 545.437L-29.766 543.388L-29.2693 542.419L-28.7546 541.483L-28.2265 540.589L-27.6806 539.728L-27.1214 538.903L-26.5477 538.118L-25.9643 537.37L-25.3652 536.666L-24.7611 536.004L-24.1521 535.389L-23.5347 534.809L-22.9028 534.268L-22.2721 533.769L-21.6329 533.31L-20.99 532.895L-20.3435 532.518L-19.7006 532.181L-19.0529 531.885L-18.4017 531.628L-17.7417 531.377L-17.0894 531.195L-16.4261 531.055L-15.7765 530.944L-15.1135 530.875L-14.4483 530.841L-13.7797 530.838L-13.1063 530.877L-12.4245 530.95L-12.332 530.964L-13.0259 531.821L-13.7521 532.814L-14.4554 533.842L-15.131 534.907L-15.7826 536.004L-16.4064 537.139L-17.0076 538.302L-17.599 539.548L-18.1392 540.722L-18.6588 541.982L-19.1568 543.272L-19.6193 544.576L-20.0578 545.913L-20.4664 547.276L-20.8503 548.656L-21.2005 550.068L-21.5296 551.498L-21.8156 552.953L-22.0855 554.417L-22.3282 555.901L-22.5414 557.398L-22.7312 558.91L-22.8841 560.439L-23.0102 561.975L-23.1215 563.517L-23.1937 565.073L-23.2316 566.638L-23.2427 568.21L-23.2283 569.785L-23.1884 571.363L-23.1132 572.943L-23.0092 574.519L-22.8769 576.105L-22.7084 577.689L-22.5207 579.265L-22.303 580.834L-22.0565 582.393L-21.7846 583.949L-21.484 585.494L-21.1546 587.028L-20.8003 588.548L-20.4221 590.054L-20.0115 591.549L-19.5748 593.026L-19.1034 594.492L-18.6171 595.927L-18.123 597.338L-17.5734 598.745L-17.0101 600.122L-16.4343 601.472L-15.8253 602.796L-15.1965 604.096L-14.5417 605.372L-13.8636 606.618L-13.1659 607.833L-12.4473 609.016L-11.7079 610.167L-10.9487 611.288L-10.1701 612.373L-9.36941 613.423L-8.5468 614.439L-7.71451 615.414L-6.85664 616.352L-5.98302 617.251L-5.0899 618.113L-4.17893 618.924L-4.26407 618.952L-4.87648 619.132Z" fill="white" fill-opacity="0.03"/>
<path d="M223.288 804.829L222.906 803.52L222.495 802.219L222.043 800.908L221.554 799.607L221.03 798.289L220.466 796.97L219.861 795.653L219.23 794.331L218.544 793.015L217.846 791.705L217.112 790.398L216.347 789.099L215.55 787.809L214.721 786.523L213.864 785.25L212.976 783.986L212.068 782.732L211.125 781.492L210.156 780.265L209.166 779.051L208.157 777.854L207.121 776.694L206.061 775.538L204.973 774.391L203.857 773.269L202.732 772.166L201.587 771.084L200.426 770.03L199.251 768.995L198.057 767.988L196.848 767.01L195.625 766.056L194.395 765.128L193.148 764.23L191.896 763.362L190.62 762.53L189.351 761.728L188.087 760.946L186.805 760.204L185.511 759.492L184.225 758.815L182.928 758.171L181.632 757.564L180.334 756.994L179.041 756.457L177.744 755.96L176.445 755.499L175.155 755.079L173.871 754.677L172.592 754.333L171.317 754.03L170.053 753.766L168.798 753.542L167.546 753.362L166.309 753.221L165.082 753.122L163.869 753.076L162.669 753.064L161.481 753.098L160.309 753.174L159.155 753.301L158.014 753.47L156.892 753.682L155.713 753.982L154.714 754.272L153.661 754.627L152.642 755.029L151.636 755.482L150.663 755.979L149.726 756.521L148.801 757.113L147.925 757.752L147.082 758.439L146.28 759.165L145.516 759.922L144.797 760.734L144.121 761.584L143.497 762.454L142.909 763.377L142.358 764.372L141.863 765.358L141.399 766.376L141 767.422L140.634 768.488L140.326 769.581L140.067 770.696L139.85 771.82L139.685 772.987L139.561 774.162L139.496 775.346L139.464 776.552L139.473 777.776L139.523 779.009L139.626 780.251L139.76 781.51L139.939 782.778L140.158 784.058L140.423 785.346L140.73 786.691L141.059 787.944L141.435 789.254L141.853 790.573L142.306 791.884L142.796 793.202L143.326 794.519L143.887 795.841L144.492 797.158L145.125 798.476L145.807 799.788L146.49 801.105L147.223 802.409L147.989 803.71L148.783 805.002L149.612 806.287L150.467 807.563L151.339 808.829L152.252 810.082L153.194 811.324L154.162 812.552L155.152 813.763L156.163 814.959L157.204 816.14L158.264 817.297L159.351 818.446L160.467 819.569L161.577 820.67L162.722 821.751L163.886 822.806L165.061 823.84L166.257 824.846L167.468 825.83L168.687 826.782L169.92 827.709L171.162 828.608L172.419 829.476L173.697 830.312L174.966 831.115L176.226 831.894L177.527 832.632L178.821 833.344L180.106 834.021L181.403 834.664L182.702 835.271L184.001 835.843L185.299 836.377L186.593 836.875L187.889 837.333L189.181 837.753L190.464 838.138L191.746 838.484L193.021 838.788L194.288 839.053L195.545 839.274L196.795 839.454L198.034 839.592L199.26 839.691L200.474 839.74L201.677 839.752L202.868 839.73L204.037 839.653L205.198 839.529L206.336 839.361L207.454 839.144L208.638 838.844L209.637 838.556L210.69 838.198L211.709 837.796L212.716 837.346L213.688 836.846L214.625 836.301L215.549 835.709L216.426 835.07L217.269 834.387L218.065 833.659L218.828 832.888L219.551 832.078L220.229 831.225L220.853 830.355L221.444 829.431L221.985 828.475L222.479 827.487L222.942 826.463L223.342 825.423L223.693 824.355L224.002 823.261L224.263 822.143L224.477 821.02L224.642 819.853L224.768 818.677L224.832 817.488L224.865 816.284L224.843 815.064L224.79 813.832L224.697 812.581L224.557 811.326L224.38 810.055L224.16 808.778L223.904 807.491L223.591 806.147L223.288 804.829ZM163.545 760.605L164.497 760.644L165.471 760.717L166.467 760.822L167.478 760.967L168.511 761.151L169.56 761.369L170.626 761.621L171.709 761.908L172.801 762.232L173.91 762.592L175.025 762.986L176.151 763.411L177.283 763.874L178.424 764.375L179.571 764.91L180.714 765.463L181.867 766.065L183.016 766.698L184.164 767.362L185.313 768.063L186.459 768.789L187.599 769.543L188.734 770.323L189.863 771.139L190.98 771.98L192.087 772.852L193.185 773.745L194.278 774.66L195.349 775.6L196.406 776.563L197.449 777.549L198.479 778.55L199.491 779.578L200.484 780.622L201.46 781.676L202.411 782.753L203.34 783.842L204.245 784.947L205.122 786.066L205.976 787.193L206.816 788.329L207.619 789.475L208.393 790.628L209.141 791.788L209.859 792.952L210.548 794.122L211.195 795.293L211.824 796.46L212.418 797.631L212.986 798.797L213.515 799.965L214.014 801.126L214.473 802.283L214.902 803.431L215.301 804.57L215.657 805.697L215.979 806.816L216.52 809.007L216.739 810.076L216.921 811.132L217.065 812.164L217.177 813.185L217.258 814.182L217.298 815.159L217.313 816.111L217.288 817.04L217.23 817.94L217.19 818.308L216.81 818.334L215.908 818.361L214.981 818.352L214.029 818.312L213.055 818.239L212.061 818.135L211.046 817.987L210.011 817.803L208.962 817.586L207.899 817.333L206.816 817.046L205.721 816.723L204.615 816.363L203.499 815.968L202.377 815.542L201.244 815.076L200.103 814.579L198.959 814.043L197.81 813.477L196.658 812.876L195.509 812.245L194.36 811.578L193.216 810.882L192.066 810.156L190.923 809.4L189.791 808.619L188.662 807.807L187.546 806.966L186.436 806.095L185.335 805.204L184.248 804.288L183.177 803.346L182.119 802.383L181.071 801.398L180.046 800.396L179.02 799.388L178.028 798.347L177.05 797.287L176.099 796.21L175.171 795.122L174.266 794.016L173.384 792.902L172.529 791.772L171.689 790.635L170.886 789.49L170.107 788.338L169.361 787.177L168.644 786.016L167.955 784.846L167.311 783.674L166.664 782.506L166.07 781.332L165.502 780.166L164.971 779.002L164.474 777.838L164.01 776.684L163.584 775.536L163.188 774.396L162.831 773.269L162.507 772.151L161.965 769.954L161.748 768.885L161.563 767.827L161.417 766.795L161.305 765.775L161.221 764.778L161.181 763.801L161.175 762.85L161.197 761.919L161.253 761.016L161.296 760.648L161.673 760.622L162.578 760.595L163.545 760.605ZM214.237 826.614L213.81 827.15L213.375 827.654L212.903 828.129L212.413 828.582L211.887 828.997L211.341 829.4L210.765 829.774L210.167 830.126L209.531 830.45L208.891 830.745L208.204 831.018L207.495 831.263L206.754 831.477L205.986 831.672L205.186 831.83L204.359 831.956L203.515 832.069L202.638 832.131L201.736 832.158L200.806 832.15L199.854 832.111L198.879 832.035L197.886 831.93L196.874 831.785L195.839 831.601L194.79 831.384L193.727 831.131L192.644 830.844L191.549 830.52L190.442 830.16L189.32 829.771L188.194 829.345L187.062 828.882L185.919 828.382L184.775 827.849L183.629 827.297L182.482 826.694L181.331 826.064L180.182 825.397L179.035 824.701L177.888 823.975L176.748 823.218L175.613 822.438L174.484 821.626L173.368 820.784L172.256 819.919L171.158 819.026L170.067 818.072L168.994 817.126L167.935 816.164L166.89 815.181L165.864 814.176L164.853 813.151L163.861 812.109L162.893 811.065L161.947 809.986L161.016 808.898L160.113 807.792L159.231 806.677L158.377 805.55L157.537 804.414L156.736 803.265L155.96 802.115L155.212 800.955L154.494 799.791L153.806 798.624L153.158 797.45L152.528 796.28L151.934 795.109L151.367 793.943L150.841 792.778L150.342 791.617L149.883 790.462L149.455 789.314L149.061 788.174L148.702 787.047L148.378 785.929L147.836 783.735L147.62 782.666L147.437 781.61L147.291 780.578L147.18 779.56L147.101 778.562L147.058 777.586L147.047 776.633L147.074 775.704L147.132 774.803L147.222 773.937L147.34 773.091L147.495 772.267L147.674 771.477L147.885 770.712L148.126 769.978L148.393 769.272L148.683 768.6L149.002 767.956L149.348 767.34L149.704 766.723L150.097 766.165L150.525 765.632L150.96 765.13L151.432 764.653L151.927 764.201L152.445 763.771L152.992 763.371L153.566 762.992L153.646 762.943L153.641 764.052L153.694 765.287L153.787 766.535L153.925 767.794L154.101 769.062L154.322 770.342L154.578 771.629L154.894 772.974L155.204 774.231L155.584 775.541L155.999 776.861L156.451 778.169L156.941 779.487L157.471 780.806L158.031 782.124L158.637 783.443L159.271 784.764L159.953 786.076L160.653 787.385L161.387 788.692L162.152 789.991L162.945 791.285L163.776 792.57L164.633 793.843L165.506 795.111L166.416 796.365L167.36 797.604L168.329 798.832L169.319 800.045L170.331 801.245L171.371 802.423L172.431 803.579L173.519 804.726L174.635 805.848L175.761 806.951L176.905 808.03L178.065 809.082L179.243 810.116L180.437 811.123L181.646 812.103L182.866 813.056L184.096 813.984L185.343 814.882L186.601 815.749L187.878 816.586L189.147 817.388L190.407 818.167L191.709 818.908L193.002 819.617L194.288 820.297L195.584 820.935L196.88 821.542L198.182 822.114L199.482 822.647L200.779 823.144L202.072 823.603L203.361 824.023L204.647 824.408L205.926 824.752L207.201 825.056L208.47 825.318L209.722 825.542L210.972 825.723L212.208 825.861L213.438 825.959L214.649 826.006L214.6 826.083L214.237 826.614Z" fill="white" fill-opacity="0.03"/>
<path d="M270.298 527.571L269.916 526.262L269.505 524.96L269.053 523.649L268.563 522.348L268.039 521.03L267.476 519.711L266.871 518.394L266.24 517.072L265.554 515.756L264.856 514.446L264.122 513.139L263.357 511.841L262.56 510.55L261.731 509.265L260.874 507.992L259.986 506.727L259.078 505.473L258.134 504.234L257.166 503.006L256.175 501.793L255.167 500.595L254.131 499.436L253.071 498.279L251.983 497.133L250.867 496.01L249.741 494.907L248.597 493.826L247.436 492.771L246.26 491.737L245.067 490.73L243.858 489.752L242.635 488.797L241.405 487.869L240.157 486.972L238.906 486.103L237.629 485.272L236.36 484.469L235.097 483.688L233.814 482.945L232.52 482.233L231.235 481.556L229.938 480.913L228.642 480.306L227.343 479.736L226.05 479.198L224.753 478.701L223.454 478.241L222.165 477.82L220.88 477.419L219.602 477.074L218.327 476.771L217.063 476.507L215.808 476.283L214.556 476.104L213.319 475.963L212.092 475.864L210.879 475.818L209.679 475.805L208.491 475.84L207.318 475.915L206.165 476.043L205.024 476.212L203.902 476.424L202.723 476.723L201.724 477.014L200.671 477.368L199.652 477.771L198.646 478.223L197.672 478.721L196.735 479.263L195.811 479.855L194.934 480.493L194.092 481.18L193.29 481.907L192.526 482.663L191.807 483.476L191.131 484.325L190.507 485.195L189.918 486.118L189.367 487.113L188.873 488.099L188.408 489.117L188.01 490.163L187.644 491.229L187.335 492.323L187.077 493.437L186.859 494.561L186.695 495.728L186.571 496.904L186.506 498.087L186.474 499.294L186.482 500.517L186.533 501.75L186.635 502.993L186.77 504.252L186.949 505.52L187.167 506.8L187.432 508.088L187.739 509.433L188.068 510.685L188.445 511.995L188.863 513.315L189.316 514.625L189.806 515.943L190.335 517.26L190.897 518.582L191.502 519.899L192.135 521.218L192.817 522.529L193.5 523.846L194.233 525.15L194.999 526.452L195.793 527.743L196.622 529.028L197.477 530.304L198.349 531.57L199.262 532.823L200.204 534.066L201.172 535.293L202.162 536.504L203.173 537.701L204.214 538.882L205.274 540.038L206.36 541.188L207.476 542.31L208.587 543.412L209.732 544.493L210.896 545.547L212.071 546.581L213.267 547.588L214.477 548.571L215.697 549.524L216.929 550.451L218.172 551.35L219.429 552.217L220.706 553.054L221.975 553.856L223.236 554.635L224.537 555.374L225.831 556.085L227.116 556.762L228.413 557.406L229.712 558.012L231.011 558.585L232.308 559.119L233.603 559.616L234.899 560.074L236.191 560.494L237.474 560.88L238.756 561.226L240.03 561.529L241.298 561.795L242.555 562.015L243.804 562.196L245.043 562.333L246.27 562.432L247.484 562.481L248.687 562.493L249.878 562.472L251.047 562.394L252.208 562.271L253.346 562.102L254.464 561.886L255.648 561.585L256.647 561.297L257.7 560.94L258.719 560.537L259.726 560.088L260.698 559.587L261.635 559.043L262.559 558.451L263.436 557.812L264.279 557.128L265.075 556.4L265.838 555.63L266.56 554.819L267.239 553.966L267.863 553.096L268.454 552.173L268.995 551.217L269.489 550.228L269.952 549.205L270.352 548.164L270.703 547.096L271.012 546.003L271.272 544.885L271.487 543.761L271.652 542.595L271.778 541.418L271.842 540.229L271.875 539.026L271.853 537.805L271.8 536.573L271.707 535.323L271.567 534.068L271.39 532.797L271.17 531.52L270.913 530.232L270.601 528.889L270.298 527.571ZM210.555 483.347L211.506 483.386L212.481 483.459L213.477 483.563L214.488 483.708L215.521 483.893L216.57 484.11L217.636 484.362L218.719 484.649L219.811 484.974L220.92 485.333L222.035 485.727L223.161 486.153L224.293 486.616L225.434 487.116L226.581 487.651L227.724 488.205L228.876 488.806L230.025 489.439L231.173 490.104L232.322 490.804L233.469 491.531L234.609 492.285L235.744 493.065L236.873 493.88L237.99 494.721L239.097 495.593L240.195 496.486L241.288 497.401L242.359 498.341L243.416 499.304L244.459 500.29L245.489 501.291L246.501 502.319L247.494 503.363L248.47 504.417L249.421 505.495L250.349 506.583L251.254 507.689L252.132 508.807L252.986 509.934L253.826 511.071L254.629 512.216L255.403 513.37L256.151 514.529L256.869 515.694L257.558 516.863L258.205 518.034L258.834 519.202L259.428 520.372L259.996 521.539L260.524 522.706L261.024 523.867L261.483 525.025L261.912 526.173L262.31 527.311L262.667 528.438L262.988 529.558L263.529 531.748L263.749 532.818L263.931 533.873L264.074 534.906L264.187 535.926L264.268 536.923L264.308 537.9L264.322 538.853L264.297 539.781L264.24 540.682L264.199 541.049L263.82 541.075L262.918 541.102L261.99 541.093L261.038 541.054L260.064 540.981L259.071 540.876L258.056 540.729L257.021 540.545L255.972 540.328L254.909 540.075L253.826 539.788L252.731 539.464L251.624 539.104L250.509 538.71L249.386 538.284L248.254 537.818L247.113 537.32L245.969 536.784L244.82 536.218L243.667 535.617L242.519 534.986L241.37 534.319L240.225 533.623L239.076 532.897L237.933 532.142L236.801 531.361L235.672 530.548L234.555 529.707L233.446 528.836L232.345 527.946L231.258 527.03L230.186 526.087L229.129 525.124L228.081 524.139L227.056 523.137L226.03 522.13L225.037 521.088L224.06 520.029L223.109 518.952L222.18 517.863L221.275 516.757L220.393 515.643L219.538 514.513L218.699 513.377L217.896 512.231L217.116 511.079L216.371 509.919L215.654 508.757L214.965 507.588L214.321 506.416L213.674 505.247L213.079 504.074L212.512 502.908L211.981 501.743L211.484 500.579L211.02 499.426L210.594 498.277L210.198 497.138L209.841 496.011L209.517 494.892L208.975 492.696L208.758 491.626L208.572 490.568L208.427 489.537L208.314 488.516L208.23 487.52L208.19 486.543L208.185 485.591L208.206 484.66L208.263 483.757L208.306 483.389L208.683 483.364L209.588 483.336L210.555 483.347ZM261.246 549.356L260.82 549.891L260.385 550.396L259.912 550.87L259.423 551.323L258.897 551.738L258.35 552.141L257.775 552.516L257.176 552.867L256.541 553.192L255.901 553.487L255.213 553.76L254.505 554.004L253.764 554.218L252.996 554.413L252.196 554.571L251.369 554.697L250.524 554.811L249.648 554.873L248.746 554.9L247.816 554.891L246.864 554.852L245.889 554.776L244.896 554.672L243.884 554.527L242.849 554.342L241.8 554.125L240.737 553.872L239.654 553.585L238.559 553.262L237.452 552.902L236.33 552.512L235.204 552.086L234.072 551.623L232.928 551.124L231.785 550.59L230.639 550.038L229.492 549.435L228.341 548.805L227.192 548.138L226.045 547.443L224.898 546.716L223.758 545.96L222.623 545.18L221.494 544.367L220.377 543.526L219.266 542.661L218.168 541.767L217.076 540.813L216.004 539.868L214.945 538.905L213.899 537.922L212.874 536.917L211.863 535.892L210.871 534.851L209.902 533.806L208.957 532.727L208.025 531.64L207.123 530.533L206.241 529.419L205.387 528.292L204.547 527.155L203.746 526.006L202.97 524.856L202.222 523.697L201.504 522.532L200.816 521.366L200.168 520.192L199.538 519.022L198.944 517.851L198.377 516.685L197.851 515.519L197.352 514.358L196.893 513.203L196.464 512.055L196.071 510.915L195.712 509.789L195.388 508.67L194.846 506.477L194.629 505.407L194.447 504.351L194.301 503.32L194.19 502.302L194.111 501.304L194.068 500.328L194.056 499.375L194.084 498.445L194.141 497.545L194.232 496.678L194.35 495.833L194.505 495.009L194.684 494.218L194.895 493.453L195.136 492.72L195.403 492.013L195.693 491.341L196.012 490.697L196.357 490.081L196.714 489.465L197.107 488.906L197.535 488.373L197.97 487.872L198.442 487.394L198.937 486.942L199.454 486.513L200.001 486.112L200.576 485.733L200.656 485.685L200.651 486.794L200.704 488.029L200.797 489.276L200.934 490.535L201.111 491.803L201.332 493.083L201.588 494.37L201.904 495.716L202.214 496.973L202.593 498.282L203.009 499.603L203.461 500.911L203.951 502.229L204.481 503.548L205.041 504.865L205.647 506.185L206.281 507.506L206.962 508.817L207.663 510.127L208.397 511.433L209.162 512.732L209.955 514.027L210.786 515.311L211.643 516.584L212.515 517.853L213.426 519.106L214.37 520.346L215.338 521.573L216.329 522.786L217.341 523.986L218.381 525.164L219.441 526.321L220.529 527.467L221.645 528.589L222.77 529.693L223.915 530.771L225.075 531.824L226.253 532.857L227.446 533.864L228.656 534.845L229.875 535.798L231.105 536.725L232.353 537.623L233.61 538.49L234.888 539.327L236.157 540.129L237.417 540.909L238.718 541.649L240.012 542.358L241.298 543.038L242.594 543.676L243.89 544.283L245.191 544.855L246.492 545.388L247.789 545.886L249.082 546.344L250.371 546.765L251.657 547.149L252.936 547.494L254.21 547.797L255.48 548.059L256.732 548.284L257.982 548.464L259.218 548.603L260.447 548.701L261.658 548.748L261.61 548.824L261.246 549.356Z" fill="white" fill-opacity="0.03"/>
</g>
<defs>
<linearGradient id="paint0_linear_306_1173" x1="-3.5" y1="37.3684" x2="455.479" y2="52.8638" gradientUnits="userSpaceOnUse">
<stop stop-color="#0056E2"/>
<stop offset="1" stop-color="#002F7C"/>
</linearGradient>
</defs>
</svg>
