<svg width="183" height="30" viewBox="0 0 183 30" fill="none" xmlns="http://www.w3.org/2000/svg">
<rect x="149" y="1" width="34" height="15" rx="3" fill="black"/>
<g clip-path="url(#clip0_272_24612)">
<mask id="mask0_272_24612" style="mask-type:luminance" maskUnits="userSpaceOnUse" x="0" y="0" width="145" height="30">
<path d="M145 0H0V30H145V0Z" fill="white"/>
</mask>
<g mask="url(#mask0_272_24612)">
<path d="M49.7452 0.0287018C58.4694 0.0287018 64.4749 6.41395 64.4749 15.0175C64.4749 23.6211 58.4694 30 49.7452 30C41.0211 30 35.0149 23.6148 35.0149 15.0144C35.0149 6.41395 41.0205 0.0287018 49.7452 0.0287018ZM49.7452 3.89455C43.4764 3.89455 39.5302 8.62911 39.5302 15.0144C39.5302 21.3562 43.4764 26.1335 49.7452 26.1335C55.9252 26.1335 59.9596 21.3562 59.9596 15.0144C59.9596 8.62911 55.9265 3.89455 49.7452 3.89455Z" fill="white"/>
<path d="M73.635 0.506432H69.6895V29.4783H73.635V0.506432Z" fill="white"/>
<path d="M78.5874 18.9669C78.5874 12.9293 82.7074 7.97725 89.284 7.97725C95.9037 7.97725 99.9806 12.9293 99.9806 18.9669C99.9806 25.0479 95.9037 30.0013 89.284 30.0013C82.7081 30.0013 78.5874 25.0492 78.5874 18.9669ZM95.8599 18.9669C95.8599 15.0124 93.5366 11.4527 89.284 11.4527C85.0758 11.4527 82.7081 15.0144 82.7081 18.9669C82.7081 22.9635 85.0758 26.5251 89.284 26.5251C93.5366 26.5251 95.8599 22.9635 95.8599 18.9669Z" fill="white"/>
<path d="M119.268 29.4783V26.6119C118.31 27.655 117.147 28.4934 115.85 29.0759C114.554 29.6584 113.151 29.9726 111.728 29.9994C107.212 29.9994 104.977 27.7408 104.977 23.3105V8.49835H108.923V22.0049C108.923 25.4791 110.676 26.522 113.394 26.522C114.534 26.4941 115.652 26.2144 116.669 25.7034C117.685 25.1924 118.573 24.4629 119.268 23.5682V8.49835H123.214V29.4783H119.268Z" fill="white"/>
<path d="M129.523 23.875C131.406 25.7524 133.954 26.8279 136.625 26.8728C139.606 26.8728 141.184 25.6564 141.184 23.875C141.184 21.7899 138.773 21.0954 136.055 20.4869C132.46 19.6615 128.251 18.7061 128.251 14.1884C128.251 10.8443 131.148 7.97725 136.318 7.97725C139.3 7.88581 142.199 8.96293 144.385 10.975L142.631 13.7113C141.403 12.2347 139.036 11.1491 136.362 11.1491C133.687 11.1491 132.021 12.1913 132.021 13.8854C132.021 15.7096 134.302 16.3174 136.932 16.9259C140.614 17.7512 144.998 18.7507 144.998 23.5714C144.998 27.177 142.017 30.0006 136.45 30.0006C132.898 30.0006 129.786 28.9163 127.637 26.7426L129.523 23.875Z" fill="white"/>
<path d="M4.31829 0H25.7971C26.9424 -1.26058e-08 28.0409 0.450751 28.8508 1.25311C29.6607 2.05547 30.1158 3.14372 30.116 4.27852V25.5601C30.1158 26.6949 29.6607 27.7832 28.8508 28.5855C28.0409 29.3879 26.9424 29.8386 25.7971 29.8386H4.31829C3.17301 29.8386 2.07463 29.3879 1.2648 28.5855C0.454961 27.7831 0 26.6948 0 25.5601L0 4.27852C0 3.14378 0.454961 2.05553 1.2648 1.25315C2.07463 0.450771 3.17301 0 4.31829 0Z" fill="white"/>
<path d="M24.0462 19.1985L24.0327 18.8796L24.0121 18.5606L23.9824 18.2373L23.9438 17.9139L23.8981 17.5848L23.8434 17.2531L23.779 16.9195L23.7088 16.5834L23.6258 16.2453L23.5395 15.9079L23.4449 15.5693L23.3426 15.2306L23.2325 14.8919L23.1147 14.5526L22.9898 14.2145L22.8572 13.8765L22.7194 13.5397L22.5726 13.2042L22.4194 12.87L22.2604 12.5377L22.0963 12.2079L21.9237 11.8852L21.7454 11.5618L21.56 11.2391L21.3669 10.9202L21.1705 10.6051L20.9684 10.2938L20.7611 9.98767L20.5493 9.68534L20.3317 9.38811L20.109 9.09663L19.8817 8.80961L19.6513 8.52833L19.415 8.25279L19.1762 7.98363L18.9296 7.72148L18.6831 7.46635L18.4365 7.21633L18.1835 6.97396L17.926 6.73796L17.6685 6.51026L17.4065 6.28957L17.1426 6.07718L16.8761 5.87307L16.6089 5.67662L16.3385 5.4891L16.0656 5.30988L15.7926 5.14021L15.5197 4.97502L15.2448 4.82322L14.9686 4.68098L14.6925 4.54832L14.4163 4.42522L14.1382 4.31232L13.8614 4.20899L13.5846 4.11587L13.3078 4.03551L13.0322 3.96343L12.7567 3.90284L12.4825 3.85245L12.2095 3.81482L11.9372 3.78739L11.6668 3.77081H11.3784L11.1319 3.7791L10.8692 3.79887L10.6117 3.8314L10.3542 3.87605L10.1019 3.93282L9.85531 4.0017L9.60875 4.0827L9.37056 4.1771L9.13752 4.28426L8.91157 4.40289L8.69269 4.53046L8.4809 4.67333L8.27683 4.82704L8.0837 4.98841L7.89573 5.16381L7.71226 5.35771L7.54231 5.55289L7.37751 5.75699L7.22623 5.9713L7.08138 6.19198L6.94812 6.42224L6.82517 6.66015L6.71122 6.90252L6.60694 7.15765L6.51166 7.41724L6.42926 7.68194L6.3533 7.95365L6.2857 8.23174L6.22712 8.5143L6.18013 8.80196L6.13957 9.09535L6.10867 9.39322L6.08614 9.69618L6.07391 10.0036L6.06812 10.3264L6.07262 10.6293L6.08485 10.9482L6.1061 11.2716L6.13571 11.595L6.17369 11.9222L6.22068 12.2513L6.27476 12.5836L6.33914 12.9172L6.40995 13.2527L6.49235 13.5895L6.57475 13.9275L6.66938 14.2655L6.77174 14.6049L6.88117 14.9436L6.99898 15.2829L7.12322 15.6216L7.25198 15.959L7.39103 16.2957L7.53716 16.6319L7.69037 16.9661L7.84938 17.2978L8.01418 17.6275L8.1867 17.9554L8.36502 18.2787L8.54978 18.6021L8.7429 18.921L8.93603 19.2348L9.13817 19.5461L9.3461 19.8522L9.55789 20.1546L9.77613 20.4518L9.99886 20.7446L10.2255 21.0309L10.4566 21.3122L10.6915 21.5878L10.9317 21.8569L11.1782 22.1203L11.4248 22.3755L11.6707 22.6249L11.9282 22.8672L12.1857 23.1032L12.4432 23.3309L12.7052 23.5516L12.9698 23.764L13.2363 23.9687L13.5047 24.1646L13.7745 24.3521L14.0468 24.5307L14.3204 24.7003L14.594 24.8617L14.8695 25.0141L15.1457 25.1564L15.4225 25.2897L15.6993 25.4121L15.9767 25.525L16.2542 25.6277L16.531 25.7208L16.8078 25.8018L17.084 25.8739L17.3595 25.9377L17.6331 25.9875L17.9074 26.0264L18.179 26.0538L18.4488 26.0691H18.7384L18.985 26.0614L19.2476 26.041L19.5051 26.0085L19.7626 25.9645L20.015 25.9071L20.2616 25.8376L20.5081 25.7566L20.7463 25.6622L20.9793 25.5557L21.204 25.4364L21.4235 25.3056L21.636 25.1634L21.8407 25.009L22.0338 24.8477L22.2224 24.6723L22.4014 24.4867L22.5713 24.2908L22.7361 24.0855L22.8874 23.8724L23.029 23.6505L23.1623 23.4202L23.2859 23.1817L23.3992 22.9393L23.5035 22.6842L23.5994 22.4246L23.6818 22.1586L23.7578 21.8875L23.8222 21.6094L23.8801 21.3269L23.9297 21.038L23.9689 20.7452L24.0005 20.4467L24.0224 20.1444L24.0365 19.8376L24.041 19.5148L24.0462 19.1985ZM12.805 5.72446L13.0219 5.78824L13.2421 5.86095L13.4655 5.94196L13.6901 6.03317L13.9174 6.13458L14.1466 6.24429L14.3777 6.36292L14.6107 6.49049L14.8437 6.62698L15.0787 6.7724L15.313 6.92612L15.548 7.08749L15.7823 7.25779L16.0167 7.43701L16.2503 7.62454L16.4821 7.81588L16.7132 8.01871L16.9417 8.22855L17.1683 8.44541L17.393 8.67056L17.6157 8.90146L17.8353 9.13809L18.0522 9.38046L18.2659 9.63049L18.4751 9.88562L18.6805 10.1471L18.8826 10.4131L19.0822 10.6835L19.2753 10.9584L19.464 11.2378L19.6481 11.5216L19.8283 11.808L20.0028 12.0995L20.1721 12.3935L20.3369 12.6888L20.4946 12.988L20.6465 13.2884L20.792 13.5914L20.9304 13.8956L21.063 14.2005L21.1918 14.5066L21.3115 14.8128L21.4242 15.119L21.5304 15.4251L21.6295 15.7306L21.7216 16.0355L21.804 16.3385L21.8825 16.6395L21.9527 16.9393L22.0171 17.2365L22.0724 17.5318L22.1214 17.824L22.1613 18.1129L22.1947 18.398L22.2218 18.6793L22.2398 18.9555L22.2501 19.2278V19.7559L22.2398 20.0111L22.2218 20.2611L22.196 20.5035L22.1638 20.7414L22.1259 20.9723L22.0795 21.1961L22.0287 21.413L21.9701 21.6222L21.9057 21.8231L21.8754 21.9041L21.7866 21.8882L21.5774 21.8422L21.3643 21.7868L21.1474 21.723L20.9272 21.6503L20.7045 21.5693L20.4791 21.4774L20.2513 21.376L20.0221 21.2663L19.7916 21.1477L19.5586 21.0201L19.3249 20.8836L19.0906 20.7382L18.8562 20.5845L18.6219 20.4231L18.3876 20.2522L18.1533 20.0736L17.9202 19.886L17.6878 19.6915L17.4567 19.4887L17.2282 19.2795L17.0016 19.062L16.7776 18.8381L16.5542 18.6072L16.334 18.3699L16.1177 18.1276L15.904 17.8782L15.6948 17.623L15.4888 17.3615L15.286 17.0962L15.0877 16.8258L14.8946 16.5502L14.706 16.2709L14.5206 15.987L14.3416 15.7006L14.1627 15.413L13.9933 15.1196L13.8285 14.823L13.6708 14.5239L13.5189 14.2234L13.3734 13.9205L13.2337 13.6169L13.1011 13.3114L12.9724 13.0052L12.8526 12.6991L12.7387 12.3929L12.6331 12.0867L12.534 11.7819L12.4419 11.477L12.3601 11.174L12.2777 10.8717L12.2076 10.5713L12.1432 10.2741L12.0872 9.97938L12.0389 9.68662L11.9977 9.39832L11.9649 9.11321L11.9385 8.83193L11.9205 8.55576L11.9095 8.28341V7.75401L11.9205 7.49888L11.9378 7.24822L11.963 7.00585L11.9951 6.76794L12.0325 6.53705L12.0788 6.31317L12.1316 6.09695L12.1896 5.8871L12.2539 5.68555L12.2848 5.60455L12.373 5.6205L12.5829 5.66642L12.805 5.72446ZM20.7231 23.6179L20.5944 23.7149L20.4656 23.8042L20.3298 23.8846L20.1914 23.9592L20.0465 24.023L19.8978 24.0829L19.744 24.1346L19.5863 24.1799L19.4215 24.2169L19.2573 24.2468L19.0835 24.2692L18.9065 24.2838L18.7236 24.2896H18.5357L18.3425 24.2794L18.1449 24.2602L17.9441 24.2373L17.7387 24.2009L17.5295 24.155L17.3157 24.0995L17.0988 24.0357L16.8786 23.9624L16.6559 23.8814L16.4312 23.7902L16.2033 23.6887L15.9742 23.579L15.7437 23.4604L15.5107 23.3328L15.277 23.1963L15.0427 23.0509L14.8064 22.8978L14.5714 22.7365L14.3371 22.5662L14.1021 22.3869L13.8691 22.2001L13.6367 22.0087L13.4069 21.8059L13.1777 21.5967L12.9511 21.3792L12.7264 21.1553L12.5037 20.9244L12.2842 20.6871L12.0672 20.4448L11.8535 20.1954L11.6443 19.9403L11.4377 19.68L11.2355 19.4141L11.0385 19.1347L10.8454 18.8585L10.6561 18.5791L10.4714 18.2959L10.2924 18.0089L10.118 17.7181L9.94865 17.4247L9.78514 17.1319L9.62871 16.8328L9.47614 16.5324L9.33129 16.2294L9.1916 15.9258L9.05899 15.6209L8.93024 15.3148L8.81114 15.008L8.69784 14.7025L8.59162 14.3963L8.49249 14.0908L8.40043 13.7865L8.31803 13.4829L8.23949 13.1812L8.16932 12.8815L8.10495 12.5842L8.05023 12.2896L8.0013 11.9974L7.96139 11.7092L7.92791 11.424L7.90216 11.1428L7.8835 10.8666L7.87255 10.5942V10.0655L7.8835 9.81035L7.90152 9.56033L7.92663 9.31796L7.95881 9.08069L7.99744 8.84979L8.04315 8.62592L8.09465 8.40906L8.15387 8.19985L8.21825 7.99894L8.28842 7.80759L8.36373 7.62262L8.44614 7.44467L8.5324 7.27565L8.62445 7.11428L8.72166 6.96184L8.82337 6.81705L8.92831 6.6812L9.03839 6.55363L9.15297 6.43372L9.27014 6.31445L9.39245 6.21048L9.5212 6.11417L9.64995 6.02551L9.78578 5.94451L9.92548 5.87052L10.069 5.80291L10.2177 5.7436L10.3716 5.69066L10.3928 5.68428L10.3285 5.93558L10.2705 6.21877L10.221 6.50707L10.181 6.80047L10.1495 7.09833L10.1276 7.4013L10.1135 7.70809L10.1096 8.03147V8.33443L10.1225 8.65334L10.1431 8.97672L10.1727 9.29946L10.2107 9.62666L10.2577 9.95642L10.3117 10.2874L10.3761 10.6217L10.4469 10.9578L10.5293 11.2946L10.6162 11.632L10.7109 11.9707L10.8132 12.3093L10.922 12.6487L11.0405 12.988L11.1653 13.326L11.2941 13.6641L11.4325 14.0008L11.5793 14.3363L11.7325 14.6706L11.8915 15.0029L12.0563 15.3333L12.2288 15.6605L12.4071 15.9838L12.5925 16.3066L12.7857 16.6255L12.982 16.9406L13.1841 17.2512L13.3914 17.5567L13.6039 17.859L13.8215 18.1563L14.0442 18.4484L14.2708 18.7348L14.5013 19.0161L14.7375 19.2916L14.9776 19.5608L15.2242 19.8242L15.4708 20.0793L15.7167 20.3287L15.9742 20.5717L16.2317 20.8071L16.4892 21.0354L16.7512 21.2548L17.0151 21.4672L17.2823 21.6719L17.5514 21.8678L17.8217 22.0553L18.0934 22.2339L18.3664 22.4035L18.6406 22.5649L18.9155 22.7167L19.1916 22.8589L19.4691 22.9916L19.7446 23.1147L20.0221 23.2276L20.2989 23.3303L20.5764 23.4234L20.8525 23.5038L20.8371 23.5184L20.7231 23.6179Z" fill="black"/>
</g>
</g>
<path d="M152.717 12V4.72727H155.501C156.027 4.72727 156.464 4.81013 156.812 4.97585C157.162 5.1392 157.424 5.36293 157.597 5.64702C157.772 5.93111 157.859 6.25308 157.859 6.61293C157.859 6.90885 157.803 7.16217 157.689 7.37287C157.575 7.5812 157.423 7.75047 157.231 7.88068C157.039 8.01089 156.825 8.1044 156.588 8.16122V8.23224C156.846 8.24645 157.094 8.32576 157.33 8.47017C157.569 8.61222 157.765 8.81345 157.916 9.07386C158.068 9.33428 158.143 9.64915 158.143 10.0185C158.143 10.3949 158.052 10.7334 157.87 11.0341C157.688 11.3324 157.413 11.5679 157.046 11.7408C156.679 11.9136 156.218 12 155.661 12H152.717ZM154.035 10.8991H155.452C155.93 10.8991 156.274 10.808 156.485 10.6257C156.698 10.4411 156.805 10.2043 156.805 9.91548C156.805 9.70005 156.751 9.50592 156.645 9.3331C156.538 9.15791 156.387 9.0206 156.19 8.92116C155.994 8.81937 155.759 8.76847 155.487 8.76847H154.035V10.8991ZM154.035 7.82031H155.338C155.565 7.82031 155.77 7.77888 155.952 7.69602C156.135 7.6108 156.278 7.49124 156.382 7.33736C156.489 7.18111 156.542 6.99645 156.542 6.78338C156.542 6.50166 156.442 6.26965 156.244 6.08736C156.047 5.90507 155.755 5.81392 155.366 5.81392H154.035V7.82031ZM159.89 12V4.72727H164.62V5.83168H161.207V7.80611H164.375V8.91051H161.207V10.8956H164.648V12H159.89ZM166.244 5.83168V4.72727H172.047V5.83168H169.799V12H168.492V5.83168H166.244ZM173.82 12H172.414L174.975 4.72727H176.601L179.165 12H177.759L175.816 6.21875H175.759L173.82 12ZM173.867 9.14844H177.702V10.2067H173.867V9.14844Z" fill="white"/>
<defs>
<clipPath id="clip0_272_24612">
<rect width="145" height="30" fill="white"/>
</clipPath>
</defs>
</svg>
