<svg width="12" height="12" viewBox="0 0 12 12" fill="none" xmlns="http://www.w3.org/2000/svg">
<path d="M10.3837 2.69422V2.4528L10.213 2.62351L6.50356 6.33293L6.50355 6.33294C6.27261 6.56394 5.89806 6.56395 5.66704 6.33293C5.43603 6.10191 5.43604 5.72737 5.66704 5.49643L5.66705 5.49642L9.37625 1.78712L9.54695 1.61641H9.30553H8.04133C7.71463 1.61641 7.4498 1.35158 7.4498 1.02489C7.4498 0.69821 7.71463 0.433374 8.04133 0.433374H10.9751C11.3018 0.433374 11.5667 0.69821 11.5667 1.02489V3.95876C11.5667 4.28544 11.3018 4.55028 10.9751 4.55028C10.6485 4.55028 10.3837 4.28545 10.3837 3.95876V2.69422ZM0.433334 3.02272C0.433334 1.9322 1.31736 1.04816 2.40786 1.04816H5.17387C5.50057 1.04816 5.7654 1.313 5.7654 1.63968C5.7654 1.96636 5.50057 2.2312 5.17387 2.2312H2.40786C1.97072 2.2312 1.61635 2.58557 1.61635 3.02272V9.59217C1.61635 10.0293 1.97073 10.3836 2.40786 10.3836H8.9772C9.41436 10.3836 9.76873 10.0293 9.76873 9.59217V6.82604C9.76873 6.4994 10.0336 6.23457 10.3602 6.23457C10.6869 6.23457 10.9517 6.49941 10.9517 6.82604V9.59217C10.9517 10.6827 10.0677 11.5667 8.9772 11.5667H2.40786C1.31736 11.5667 0.433334 10.6827 0.433334 9.59217V3.02272Z" fill="white" stroke="#2563EB" stroke-width="0.2"/>
</svg>
