<svg width="29" height="28" viewBox="0 0 29 28" fill="none" xmlns="http://www.w3.org/2000/svg">
<path d="M2.83301 8.1665L12.3587 14.8345C13.1301 15.3745 13.5158 15.6445 13.9353 15.749C14.3059 15.8414 14.6935 15.8414 15.064 15.749C15.4836 15.6445 15.8692 15.3745 16.6406 14.8345L26.1663 8.1665M8.43301 23.3332H20.5663C22.5265 23.3332 23.5066 23.3332 24.2553 22.9517C24.9139 22.6161 25.4493 22.0807 25.7849 21.4221C26.1663 20.6734 26.1663 19.6934 26.1663 17.7332V10.2665C26.1663 8.30632 26.1663 7.32623 25.7849 6.57754C25.4493 5.91897 24.9139 5.38354 24.2553 5.04798C23.5066 4.6665 22.5265 4.6665 20.5663 4.6665H8.43301C6.47282 4.6665 5.49273 4.6665 4.74404 5.04798C4.08547 5.38354 3.55004 5.91897 3.21448 6.57754C2.83301 7.32623 2.83301 8.30632 2.83301 10.2665V17.7332C2.83301 19.6934 2.83301 20.6734 3.21448 21.4221C3.55004 22.0807 4.08547 22.6161 4.74404 22.9517C5.49273 23.3332 6.47282 23.3332 8.43301 23.3332Z" stroke="#344054" stroke-width="2" stroke-linecap="round" stroke-linejoin="round"/>
</svg>
