<svg width="14" height="14" viewBox="0 0 14 14" fill="none" xmlns="http://www.w3.org/2000/svg">
<path d="M8.65918 2.66328C8.54492 2.70645 8.46875 2.81562 8.46875 2.9375C8.46875 3.05938 8.54492 3.16855 8.65918 3.21172L10.0938 3.75L10.632 5.18457C10.6752 5.29883 10.7844 5.375 10.9062 5.375C11.0281 5.375 11.1373 5.29883 11.1805 5.18457L11.7188 3.75L13.1533 3.21172C13.2676 3.16855 13.3438 3.05938 13.3438 2.9375C13.3438 2.81562 13.2676 2.70645 13.1533 2.66328L11.7188 2.125L11.1805 0.69043C11.1373 0.576172 11.0281 0.5 10.9062 0.5C10.7844 0.5 10.6752 0.576172 10.632 0.69043L10.0938 2.125L8.65918 2.66328ZM5.55137 2.36113C5.48535 2.21641 5.34063 2.125 5.1832 2.125C5.02578 2.125 4.88105 2.21641 4.81504 2.36113L3.47441 5.25566L0.579883 6.59375C0.435156 6.65977 0.34375 6.80449 0.34375 6.96445C0.34375 7.12441 0.435156 7.2666 0.579883 7.33262L3.47695 8.6707L4.8125 11.5652C4.87852 11.71 5.02324 11.8014 5.18066 11.8014C5.33809 11.8014 5.48281 11.71 5.54883 11.5652L6.88691 8.66816L9.78398 7.33008C9.92871 7.26406 10.0201 7.11934 10.0201 6.96191C10.0201 6.80449 9.92871 6.65977 9.78398 6.59375L6.88945 5.2582L5.55137 2.36113ZM10.0938 10.25L8.65918 10.7883C8.54492 10.8314 8.46875 10.9406 8.46875 11.0625C8.46875 11.1844 8.54492 11.2936 8.65918 11.3367L10.0938 11.875L10.632 13.3096C10.6752 13.4238 10.7844 13.5 10.9062 13.5C11.0281 13.5 11.1373 13.4238 11.1805 13.3096L11.7188 11.875L13.1533 11.3367C13.2676 11.2936 13.3438 11.1844 13.3438 11.0625C13.3438 10.9406 13.2676 10.8314 13.1533 10.7883L11.7188 10.25L11.1805 8.81543C11.1373 8.70117 11.0281 8.625 10.9062 8.625C10.7844 8.625 10.6752 8.70117 10.632 8.81543L10.0938 10.25Z" fill="#0079C4"/>
</svg>
