<svg width="22" height="22" viewBox="0 0 22 22" fill="none" xmlns="http://www.w3.org/2000/svg">
<path d="M15.365 21.5H6.63499C5.64773 21.5367 4.68589 21.1823 3.95844 20.5138C3.231 19.8454 2.79673 18.9168 2.74999 17.93V13.25C2.74999 13.0511 2.829 12.8603 2.96966 12.7197C3.11031 12.579 3.30107 12.5 3.49999 12.5C3.6989 12.5 3.88966 12.579 4.03032 12.7197C4.17097 12.8603 4.24999 13.0511 4.24999 13.25V17.93C4.29608 18.5191 4.57206 19.0664 5.01832 19.4537C5.46457 19.841 6.04527 20.0373 6.63499 20H15.365C15.9547 20.0373 16.5354 19.841 16.9817 19.4537C17.4279 19.0664 17.7039 18.5191 17.75 17.93V13.25C17.75 13.0511 17.829 12.8603 17.9697 12.7197C18.1103 12.579 18.3011 12.5 18.5 12.5C18.6989 12.5 18.8897 12.579 19.0303 12.7197C19.171 12.8603 19.25 13.0511 19.25 13.25V17.93C19.2032 18.9168 18.769 19.8454 18.0415 20.5138C17.3141 21.1823 16.3522 21.5367 15.365 21.5ZM21.2825 11.5325C21.3528 11.4628 21.4086 11.3798 21.4467 11.2884C21.4847 11.1971 21.5043 11.099 21.5043 11C21.5043 10.901 21.4847 10.803 21.4467 10.7116C21.4086 10.6202 21.3528 10.5372 21.2825 10.4675L11.5325 0.717515C11.4628 0.647219 11.3798 0.591423 11.2884 0.553347C11.197 0.51527 11.099 0.495667 11 0.495667C10.901 0.495667 10.8029 0.51527 10.7116 0.553347C10.6202 0.591423 10.5372 0.647219 10.4675 0.717515L0.717486 10.4675C0.576259 10.6087 0.496918 10.8003 0.496918 11C0.496918 11.1997 0.576259 11.3913 0.717486 11.5325C0.858714 11.6737 1.05026 11.7531 1.24999 11.7531C1.44971 11.7531 1.64126 11.6737 1.78249 11.5325L11 2.30752L20.2175 11.5325C20.2872 11.6028 20.3702 11.6586 20.4616 11.6967C20.5529 11.7348 20.651 11.7544 20.75 11.7544C20.849 11.7544 20.947 11.7348 21.0384 11.6967C21.1298 11.6586 21.2128 11.6028 21.2825 11.5325Z" fill="black"/>
</svg>
