<svg width="75" height="76" viewBox="0 0 75 76" fill="none" xmlns="http://www.w3.org/2000/svg">
<g filter="url(#filter0_d_989_3761)">
<rect x="14.5" y="14" width="40" height="40" rx="20" fill="white" shape-rendering="crispEdges"/>
<path d="M46.5002 34.2705C46.5002 33.4805 46.4287 32.7305 46.3061 32.0005H34.7607V36.5105H41.3712C41.0749 37.9905 40.2065 39.2405 38.9191 40.0905V43.0905H42.8629C45.172 41.0005 46.5002 37.9205 46.5002 34.2705Z" fill="#4285F4"/>
<path d="M34.7609 46.0001C38.0712 46.0001 40.8401 44.9201 42.8631 43.0901L38.9193 40.0901C37.8158 40.8101 36.4161 41.2501 34.7609 41.2501C31.5629 41.2501 28.8554 39.14 27.8848 36.29H23.8184V39.38C25.8311 43.3001 29.9691 46.0001 34.7609 46.0001Z" fill="#34A853"/>
<path d="M27.8844 36.2901C27.629 35.5701 27.4962 34.8001 27.4962 34.0001C27.4962 33.2001 27.6392 32.4301 27.8844 31.7101V28.6201H23.818C22.9802 30.2401 22.5 32.0601 22.5 34.0001C22.5 35.9401 22.9802 37.7601 23.818 39.3802L27.8844 36.2901Z" fill="#FBBC05"/>
<path d="M34.7609 26.75C36.5693 26.75 38.1836 27.36 39.4608 28.55L42.955 25.13C40.8401 23.19 38.0712 22 34.7609 22C29.9691 22 25.8311 24.7 23.8184 28.62L27.8848 31.71C28.8554 28.86 31.5629 26.75 34.7609 26.75Z" fill="#EA4335"/>
</g>
<defs>
<filter id="filter0_d_989_3761" x="0.1" y="0.6" width="74.8" height="74.8" filterUnits="userSpaceOnUse" color-interpolation-filters="sRGB">
<feFlood flood-opacity="0" result="BackgroundImageFix"/>
<feColorMatrix in="SourceAlpha" type="matrix" values="0 0 0 0 0 0 0 0 0 0 0 0 0 0 0 0 0 0 127 0" result="hardAlpha"/>
<feOffset dx="3" dy="4"/>
<feGaussianBlur stdDeviation="8.7"/>
<feComposite in2="hardAlpha" operator="out"/>
<feColorMatrix type="matrix" values="0 0 0 0 0 0 0 0 0 0 0 0 0 0 0 0 0 0 0.13 0"/>
<feBlend mode="normal" in2="BackgroundImageFix" result="effect1_dropShadow_989_3761"/>
<feBlend mode="normal" in="SourceGraphic" in2="effect1_dropShadow_989_3761" result="shape"/>
</filter>
</defs>
</svg>
