<svg width="183" height="30" viewBox="0 0 183 30" fill="none" xmlns="http://www.w3.org/2000/svg">
<rect x="149" y="1" width="34" height="15" rx="3" fill="#0056E2"/>
<g clip-path="url(#clip0_292_1061)">
<mask id="mask0_292_1061" style="mask-type:luminance" maskUnits="userSpaceOnUse" x="0" y="0" width="145" height="30">
<path d="M145 0H0V30H145V0Z" fill="white"/>
</mask>
<g mask="url(#mask0_292_1061)">
<path d="M49.7454 0.028717C58.4695 0.028717 64.475 6.41396 64.475 15.0176C64.475 23.6211 58.4695 30 49.7454 30C41.0212 30 35.015 23.6148 35.015 15.0144C35.015 6.41396 41.0206 0.028717 49.7454 0.028717ZM49.7454 3.89456C43.4765 3.89456 39.5303 8.62912 39.5303 15.0144C39.5303 21.3562 43.4765 26.1335 49.7454 26.1335C55.9254 26.1335 59.9598 21.3562 59.9598 15.0144C59.9598 8.62912 55.9267 3.89456 49.7454 3.89456Z" fill="#231F20"/>
<path d="M73.6349 0.506439H69.6893V29.4783H73.6349V0.506439Z" fill="#231F20"/>
<path d="M78.5873 18.967C78.5873 12.9293 82.7073 7.97726 89.2839 7.97726C95.9036 7.97726 99.9804 12.9293 99.9804 18.967C99.9804 25.048 95.9036 30.0013 89.2839 30.0013C82.7079 30.0013 78.5873 25.0492 78.5873 18.967ZM95.8598 18.967C95.8598 15.0125 93.5365 11.4528 89.2839 11.4528C85.0756 11.4528 82.7079 15.0144 82.7079 18.967C82.7079 22.9635 85.0756 26.5252 89.2839 26.5252C93.5365 26.5252 95.8598 22.9635 95.8598 18.967Z" fill="#231F20"/>
<path d="M119.268 29.4783V26.6119C118.31 27.655 117.147 28.4934 115.85 29.0759C114.554 29.6584 113.151 29.9726 111.728 29.9994C107.212 29.9994 104.977 27.7408 104.977 23.3105V8.49835H108.923V22.0049C108.923 25.4791 110.676 26.522 113.394 26.522C114.534 26.4941 115.652 26.2144 116.669 25.7034C117.685 25.1924 118.573 24.4629 119.269 23.5682V8.49835H123.214V29.4783H119.268Z" fill="#231F20"/>
<path d="M129.523 23.875C131.406 25.7524 133.954 26.8279 136.625 26.8727C139.606 26.8727 141.184 25.6564 141.184 23.875C141.184 21.7899 138.773 21.0953 136.055 20.4869C132.46 19.6615 128.251 18.7061 128.251 14.1884C128.251 10.8443 131.148 7.97724 136.318 7.97724C139.3 7.8858 142.199 8.96293 144.385 10.975L142.631 13.7113C141.403 12.2347 139.036 11.1491 136.361 11.1491C133.687 11.1491 132.021 12.1913 132.021 13.8854C132.021 15.7096 134.301 16.3174 136.932 16.9259C140.614 17.7512 144.998 18.7507 144.998 23.5714C144.998 27.177 142.017 30.0006 136.45 30.0006C132.898 30.0006 129.786 28.9163 127.637 26.7426L129.523 23.875Z" fill="#231F20"/>
<path d="M4.31829 0H25.7971C26.9424 -1.26058e-08 28.0409 0.450751 28.8508 1.25311C29.6607 2.05547 30.1158 3.14372 30.116 4.27852V25.5601C30.1158 26.6949 29.6607 27.7832 28.8508 28.5855C28.0409 29.3879 26.9424 29.8386 25.7971 29.8386H4.31829C3.17301 29.8386 2.07463 29.3879 1.2648 28.5855C0.454961 27.7831 0 26.6948 0 25.5601L0 4.27852C0 3.14378 0.454961 2.05553 1.2648 1.25315C2.07463 0.450771 3.17301 0 4.31829 0Z" fill="black"/>
<path d="M24.0461 19.1985L24.0325 18.8796L24.0119 18.5606L23.9823 18.2373L23.9437 17.9139L23.898 17.5848L23.8433 17.2531L23.7789 16.9195L23.7087 16.5834L23.6257 16.2454L23.5394 15.9079L23.4448 15.5693L23.3424 15.2306L23.2324 14.8919L23.1145 14.5526L22.9897 14.2145L22.857 13.8765L22.7193 13.5397L22.5725 13.2042L22.4193 12.87L22.2603 12.5377L22.0961 12.2079L21.9236 11.8852L21.7453 11.5618L21.5599 11.2391L21.3668 10.9202L21.1704 10.6051L20.9683 10.2938L20.761 9.98767L20.5492 9.68534L20.3316 9.38812L20.1089 9.09663L19.8816 8.80961L19.6512 8.52833L19.4149 8.25279L19.1761 7.98363L18.9295 7.72149L18.683 7.46636L18.4364 7.21633L18.1834 6.97396L17.9259 6.73796L17.6684 6.51026L17.4064 6.28958L17.1425 6.07718L16.8759 5.87308L16.6088 5.67663L16.3384 5.48911L16.0655 5.30988L15.7925 5.14022L15.5196 4.97502L15.2447 4.82322L14.9685 4.68099L14.6923 4.54832L14.4162 4.42522L14.1381 4.31232L13.8613 4.209L13.5844 4.11588L13.3076 4.03551L13.0321 3.96344L12.7566 3.90284L12.4823 3.85245L12.2094 3.81482L11.9371 3.7874L11.6667 3.77081H11.3783L11.1317 3.7791L10.8691 3.79888L10.6116 3.83141L10.3541 3.87605L10.1017 3.93282L9.85519 4.0017L9.60863 4.08271L9.37044 4.17711L9.1374 4.28426L8.91145 4.4029L8.69257 4.53046L8.48078 4.67333L8.27671 4.82705L8.08358 4.98842L7.89561 5.16382L7.71214 5.35772L7.54219 5.55289L7.37738 5.75699L7.2261 5.9713L7.08126 6.19199L6.948 6.42224L6.82505 6.66015L6.7111 6.90252L6.60681 7.15765L6.51154 7.41725L6.42914 7.68194L6.35318 7.95366L6.28558 8.23175L6.227 8.5143L6.18001 8.80196L6.13945 9.09536L6.10855 9.39322L6.08602 9.69619L6.07379 10.0036L6.06799 10.3264L6.0725 10.6293L6.08473 10.9482L6.10597 11.2716L6.13559 11.595L6.17357 11.9222L6.22056 12.2513L6.27464 12.5836L6.33901 12.9172L6.40983 13.2527L6.49223 13.5895L6.57463 13.9275L6.66926 14.2655L6.77161 14.6049L6.88105 14.9436L6.99886 15.2829L7.1231 15.6216L7.25185 15.959L7.3909 16.2957L7.53704 16.6319L7.69025 16.9661L7.84925 17.2978L8.01406 17.6275L8.18658 17.9554L8.3649 18.2787L8.54966 18.6021L8.74278 18.921L8.93591 19.2348L9.13805 19.5461L9.34598 19.8522L9.55777 20.1546L9.776 20.4518L9.99874 20.7446L10.2253 21.0309L10.4565 21.3122L10.6914 21.5878L10.9315 21.8569L11.1781 22.1203L11.4247 22.3755L11.6706 22.6249L11.9281 22.8672L12.1856 23.1032L12.4431 23.3309L12.7051 23.5516L12.9697 23.764L13.2362 23.9687L13.5046 24.1646L13.7743 24.3521L14.0467 24.5307L14.3202 24.7003L14.5938 24.8617L14.8694 25.0141L15.1455 25.1564L15.4224 25.2897L15.6992 25.4121L15.9766 25.525L16.2541 25.6277L16.5309 25.7208L16.8077 25.8019L17.0839 25.8739L17.3594 25.9377L17.633 25.9875L17.9072 26.0264L18.1789 26.0538L18.4486 26.0691H18.7383L18.9849 26.0614L19.2475 26.041L19.505 26.0085L19.7625 25.9645L20.0149 25.9071L20.2614 25.8376L20.508 25.7566L20.7462 25.6622L20.9792 25.5557L21.2039 25.4364L21.4234 25.3056L21.6358 25.1634L21.8406 25.009L22.0337 24.8477L22.2223 24.6723L22.4013 24.4867L22.5712 24.2909L22.736 24.0855L22.8873 23.8724L23.0289 23.6505L23.1622 23.4202L23.2858 23.1817L23.3991 22.9393L23.5034 22.6842L23.5993 22.4246L23.6817 22.1586L23.7577 21.8875L23.822 21.6094L23.88 21.3269L23.9295 21.038L23.9688 20.7452L24.0003 20.4467L24.0222 20.1444L24.0364 19.8376L24.0409 19.5148L24.0461 19.1985ZM12.8049 5.72446L13.0218 5.78825L13.242 5.86096L13.4653 5.94196L13.69 6.03317L13.9173 6.13458L14.1464 6.24429L14.3775 6.36292L14.6106 6.49049L14.8436 6.62698L15.0786 6.77241L15.3129 6.92612L15.5479 7.08749L15.7822 7.25779L16.0165 7.43702L16.2502 7.62454L16.482 7.81589L16.7131 8.01871L16.9416 8.22856L17.1682 8.44542L17.3929 8.67057L17.6156 8.90146L17.8351 9.13809L18.0521 9.38047L18.2658 9.63049L18.475 9.88562L18.6804 10.1471L18.8825 10.4131L19.0821 10.6835L19.2752 10.9584L19.4638 11.2378L19.6479 11.5216L19.8282 11.808L20.0026 12.0995L20.172 12.3935L20.3368 12.6889L20.4945 12.988L20.6464 13.2884L20.7919 13.5914L20.9303 13.8956L21.0629 14.2005L21.1917 14.5066L21.3114 14.8128L21.4241 15.119L21.5303 15.4251L21.6294 15.7306L21.7215 16.0355L21.8039 16.3385L21.8824 16.6395L21.9526 16.9393L22.0169 17.2365L22.0723 17.5318L22.1212 17.824L22.1611 18.1129L22.1946 18.398L22.2217 18.6793L22.2397 18.9555L22.25 19.2278V19.7559L22.2397 20.0111L22.2217 20.2611L22.1959 20.5035L22.1637 20.7414L22.1257 20.9723L22.0794 21.1961L22.0285 21.413L21.97 21.6222L21.9056 21.8231L21.8753 21.9041L21.7865 21.8882L21.5773 21.8422L21.3642 21.7868L21.1472 21.723L20.9271 21.6503L20.7043 21.5693L20.479 21.4774L20.2511 21.376L20.022 21.2663L19.7915 21.1477L19.5585 21.0201L19.3248 20.8836L19.0905 20.7382L18.8561 20.5845L18.6218 20.4231L18.3875 20.2522L18.1531 20.0736L17.9201 19.886L17.6877 19.6915L17.4566 19.4887L17.2281 19.2795L17.0015 19.062L16.7775 18.8381L16.5541 18.6072L16.3339 18.3699L16.1176 18.1276L15.9039 17.8782L15.6947 17.623L15.4887 17.3615L15.2859 17.0962L15.0876 16.8258L14.8945 16.5502L14.7059 16.2709L14.5205 15.987L14.3415 15.7007L14.1625 15.413L13.9932 15.1196L13.8284 14.823L13.6707 14.5239L13.5188 14.2235L13.3733 13.9205L13.2336 13.6169L13.101 13.3114L12.9722 13.0052L12.8525 12.6991L12.7386 12.3929L12.633 12.0867L12.5338 11.7819L12.4418 11.477L12.36 11.174L12.2776 10.8717L12.2075 10.5713L12.1431 10.2741L12.0871 9.97938L12.0388 9.68662L11.9976 9.39832L11.9648 9.11322L11.9384 8.83194L11.9203 8.55576L11.9094 8.28341V7.75402L11.9203 7.49889L11.9377 7.24822L11.9628 7.00585L11.995 6.76794L12.0324 6.53705L12.0787 6.31317L12.1315 6.09695L12.1894 5.88711L12.2538 5.68556L12.2847 5.60455L12.3729 5.6205L12.5828 5.66642L12.8049 5.72446ZM20.723 23.6179L20.5943 23.7149L20.4655 23.8042L20.3297 23.8846L20.1913 23.9592L20.0464 24.023L19.8977 24.0829L19.7439 24.1346L19.5861 24.1799L19.4213 24.2169L19.2572 24.2468L19.0834 24.2692L18.9063 24.2838L18.7235 24.2896H18.5355L18.3424 24.2794L18.1448 24.2602L17.9439 24.2373L17.7386 24.2009L17.5294 24.155L17.3156 24.0995L17.0987 24.0357L16.8785 23.9624L16.6558 23.8814L16.4311 23.7902L16.2032 23.6887L15.974 23.579L15.7436 23.4604L15.5105 23.3328L15.2769 23.1963L15.0425 23.0509L14.8063 22.8978L14.5713 22.7365L14.337 22.5662L14.102 22.3869L13.869 22.2001L13.6366 22.0087L13.4068 21.8059L13.1776 21.5967L12.951 21.3792L12.7263 21.1553L12.5036 20.9244L12.2841 20.6871L12.0671 20.4448L11.8534 20.1954L11.6442 19.9403L11.4375 19.68L11.2354 19.4141L11.0384 19.1347L10.8453 18.8585L10.656 18.5791L10.4713 18.296L10.2923 18.0089L10.1178 17.7181L9.94853 17.4247L9.78502 17.1319L9.62859 16.8328L9.47602 16.5324L9.33117 16.2294L9.19148 15.9258L9.05886 15.6209L8.93011 15.3148L8.81102 15.008L8.69772 14.7025L8.5915 14.3963L8.49236 14.0908L8.40031 13.7865L8.31791 13.4829L8.23937 13.1813L8.1692 12.8815L8.10482 12.5842L8.05011 12.2896L8.00118 11.9975L7.96127 11.7092L7.92779 11.424L7.90204 11.1428L7.88337 10.8666L7.87243 10.5942V10.0655L7.88337 9.81036L7.9014 9.56033L7.9265 9.31796L7.95869 9.08069L7.99732 8.8498L8.04302 8.62592L8.09452 8.40906L8.15375 8.19985L8.21812 7.99894L8.28829 7.80759L8.36361 7.62263L8.44601 7.44467L8.53228 7.27565L8.62433 7.11428L8.72154 6.96184L8.82325 6.81705L8.92818 6.6812L9.03826 6.55363L9.15285 6.43372L9.27002 6.31445L9.39233 6.21049L9.52108 6.11417L9.64983 6.02552L9.78566 5.94451L9.92535 5.87053L10.0689 5.80292L10.2176 5.7436L10.3715 5.69066L10.3927 5.68428L10.3283 5.93558L10.2704 6.21878L10.2208 6.50707L10.1809 6.80047L10.1494 7.09833L10.1275 7.4013L10.1133 7.70809L10.1095 8.03147V8.33444L10.1223 8.65335L10.1429 8.97672L10.1726 9.29946L10.2105 9.62666L10.2575 9.95642L10.3116 10.2874L10.376 10.6217L10.4468 10.9578L10.5292 11.2946L10.6161 11.632L10.7107 11.9707L10.8131 12.3093L10.9219 12.6487L11.0403 12.988L11.1652 13.326L11.294 13.6641L11.4324 14.0009L11.5792 14.3363L11.7324 14.6706L11.8914 15.0029L12.0562 15.3333L12.2287 15.6605L12.407 15.9838L12.5924 16.3066L12.7855 16.6255L12.9819 16.9406L13.184 17.2512L13.3913 17.5567L13.6038 17.859L13.8213 18.1563L14.0441 18.4484L14.2707 18.7348L14.5011 19.0161L14.7374 19.2916L14.9775 19.5608L15.2241 19.8242L15.4706 20.0793L15.7165 20.3287L15.974 20.5717L16.2315 20.8071L16.489 21.0354L16.7511 21.2548L17.015 21.4672L17.2822 21.6719L17.5512 21.8678L17.8216 22.0553L18.0933 22.2339L18.3662 22.4035L18.6405 22.5649L18.9154 22.7167L19.1915 22.8589L19.469 22.9916L19.7445 23.1147L20.022 23.2276L20.2988 23.3303L20.5762 23.4234L20.8524 23.5038L20.837 23.5184L20.723 23.6179Z" fill="white"/>
</g>
</g>
<path d="M152.717 12V4.72727H155.501C156.027 4.72727 156.464 4.81013 156.812 4.97585C157.162 5.1392 157.424 5.36293 157.597 5.64702C157.772 5.93111 157.859 6.25308 157.859 6.61293C157.859 6.90885 157.803 7.16217 157.689 7.37287C157.575 7.5812 157.423 7.75047 157.231 7.88068C157.039 8.01089 156.825 8.1044 156.588 8.16122V8.23224C156.846 8.24645 157.094 8.32576 157.33 8.47017C157.569 8.61222 157.765 8.81345 157.916 9.07386C158.068 9.33428 158.143 9.64915 158.143 10.0185C158.143 10.3949 158.052 10.7334 157.87 11.0341C157.688 11.3324 157.413 11.5679 157.046 11.7408C156.679 11.9136 156.218 12 155.661 12H152.717ZM154.035 10.8991H155.452C155.93 10.8991 156.274 10.808 156.485 10.6257C156.698 10.4411 156.805 10.2043 156.805 9.91548C156.805 9.70005 156.751 9.50592 156.645 9.3331C156.538 9.15791 156.387 9.0206 156.19 8.92116C155.994 8.81937 155.759 8.76847 155.487 8.76847H154.035V10.8991ZM154.035 7.82031H155.338C155.565 7.82031 155.77 7.77888 155.952 7.69602C156.135 7.6108 156.278 7.49124 156.382 7.33736C156.489 7.18111 156.542 6.99645 156.542 6.78338C156.542 6.50166 156.442 6.26965 156.244 6.08736C156.047 5.90507 155.755 5.81392 155.366 5.81392H154.035V7.82031ZM159.89 12V4.72727H164.62V5.83168H161.207V7.80611H164.375V8.91051H161.207V10.8956H164.648V12H159.89ZM166.244 5.83168V4.72727H172.047V5.83168H169.799V12H168.492V5.83168H166.244ZM173.82 12H172.414L174.975 4.72727H176.601L179.165 12H177.759L175.816 6.21875H175.759L173.82 12ZM173.867 9.14844H177.702V10.2067H173.867V9.14844Z" fill="white"/>
<defs>
<clipPath id="clip0_292_1061">
<rect width="145" height="30" fill="white"/>
</clipPath>
</defs>
</svg>
