<svg width="301" height="94" viewBox="0 0 301 94" fill="none" xmlns="http://www.w3.org/2000/svg">
<rect x="208" y="1" width="34" height="15" rx="3" fill="black"/>
<g clip-path="url(#clip0_272_24611)">
<mask id="mask0_272_24611" style="mask-type:luminance" maskUnits="userSpaceOnUse" x="59" y="0" width="145" height="30">
<path d="M204 0H59V30H204V0Z" fill="white"/>
</mask>
<g mask="url(#mask0_272_24611)">
<path d="M108.745 0.0287018C117.469 0.0287018 123.475 6.41395 123.475 15.0175C123.475 23.6211 117.469 30 108.745 30C100.021 30 94.0149 23.6148 94.0149 15.0144C94.0149 6.41395 100.02 0.0287018 108.745 0.0287018ZM108.745 3.89455C102.476 3.89455 98.5302 8.62911 98.5302 15.0144C98.5302 21.3562 102.476 26.1335 108.745 26.1335C114.925 26.1335 118.96 21.3562 118.96 15.0144C118.96 8.62911 114.927 3.89455 108.745 3.89455Z" fill="white"/>
<path d="M132.635 0.506432H128.689V29.4783H132.635V0.506432Z" fill="white"/>
<path d="M137.587 18.9669C137.587 12.9293 141.707 7.97725 148.284 7.97725C154.904 7.97725 158.981 12.9293 158.981 18.9669C158.981 25.0479 154.904 30.0013 148.284 30.0013C141.708 30.0013 137.587 25.0492 137.587 18.9669ZM154.86 18.9669C154.86 15.0124 152.537 11.4527 148.284 11.4527C144.076 11.4527 141.708 15.0144 141.708 18.9669C141.708 22.9635 144.076 26.5251 148.284 26.5251C152.537 26.5251 154.86 22.9635 154.86 18.9669Z" fill="white"/>
<path d="M178.268 29.4783V26.6119C177.31 27.655 176.147 28.4934 174.85 29.0759C173.554 29.6584 172.151 29.9726 170.728 29.9994C166.212 29.9994 163.977 27.7408 163.977 23.3105V8.49835H167.923V22.0049C167.923 25.4791 169.676 26.522 172.394 26.522C173.534 26.4941 174.652 26.2144 175.669 25.7034C176.685 25.1924 177.573 24.4629 178.268 23.5682V8.49835H182.214V29.4783H178.268Z" fill="white"/>
<path d="M188.523 23.875C190.406 25.7524 192.954 26.8279 195.625 26.8728C198.606 26.8728 200.184 25.6564 200.184 23.875C200.184 21.7899 197.773 21.0954 195.055 20.4869C191.46 19.6615 187.251 18.7061 187.251 14.1884C187.251 10.8443 190.148 7.97725 195.318 7.97725C198.3 7.88581 201.199 8.96293 203.385 10.975L201.631 13.7113C200.403 12.2347 198.036 11.1491 195.362 11.1491C192.687 11.1491 191.021 12.1913 191.021 13.8854C191.021 15.7096 193.302 16.3174 195.932 16.9259C199.614 17.7512 203.998 18.7507 203.998 23.5714C203.998 27.177 201.017 30.0006 195.45 30.0006C191.898 30.0006 188.786 28.9163 186.637 26.7426L188.523 23.875Z" fill="white"/>
<path d="M63.3183 0H84.7971C85.9424 -1.26058e-08 87.0409 0.450751 87.8508 1.25311C88.6607 2.05547 89.1158 3.14372 89.116 4.27852V25.5601C89.1158 26.6949 88.6607 27.7832 87.8508 28.5855C87.0409 29.3879 85.9424 29.8386 84.7971 29.8386H63.3183C62.173 29.8386 61.0746 29.3879 60.2648 28.5855C59.455 27.7831 59 26.6948 59 25.5601V4.27852C59 3.14378 59.455 2.05553 60.2648 1.25315C61.0746 0.450771 62.173 0 63.3183 0Z" fill="white"/>
<path d="M83.0462 19.1985L83.0327 18.8796L83.0121 18.5606L82.9824 18.2373L82.9438 17.9139L82.8981 17.5848L82.8434 17.2531L82.779 16.9195L82.7088 16.5834L82.6258 16.2453L82.5395 15.9079L82.4449 15.5693L82.3426 15.2306L82.2325 14.8919L82.1147 14.5526L81.9898 14.2145L81.8572 13.8765L81.7194 13.5397L81.5726 13.2042L81.4194 12.87L81.2604 12.5377L81.0963 12.2079L80.9237 11.8852L80.7454 11.5618L80.56 11.2391L80.3669 10.9202L80.1705 10.6051L79.9684 10.2938L79.7611 9.98767L79.5493 9.68534L79.3317 9.38811L79.109 9.09663L78.8817 8.80961L78.6513 8.52833L78.415 8.25279L78.1762 7.98363L77.9296 7.72148L77.6831 7.46635L77.4365 7.21633L77.1835 6.97396L76.926 6.73796L76.6685 6.51026L76.4065 6.28957L76.1426 6.07718L75.8761 5.87307L75.6089 5.67662L75.3385 5.4891L75.0656 5.30988L74.7926 5.14021L74.5197 4.97502L74.2448 4.82322L73.9686 4.68098L73.6925 4.54832L73.4163 4.42522L73.1382 4.31232L72.8614 4.20899L72.5846 4.11587L72.3078 4.03551L72.0322 3.96343L71.7567 3.90284L71.4825 3.85245L71.2095 3.81482L70.9372 3.78739L70.6668 3.77081H70.3784L70.1319 3.7791L69.8692 3.79887L69.6117 3.8314L69.3542 3.87605L69.1019 3.93282L68.8553 4.0017L68.6088 4.0827L68.3706 4.1771L68.1375 4.28426L67.9116 4.40289L67.6927 4.53046L67.4809 4.67333L67.2768 4.82704L67.0837 4.98841L66.8957 5.16381L66.7123 5.35771L66.5423 5.55289L66.3775 5.75699L66.2262 5.9713L66.0814 6.19198L65.9481 6.42224L65.8252 6.66015L65.7112 6.90252L65.6069 7.15765L65.5117 7.41724L65.4293 7.68194L65.3533 7.95365L65.2857 8.23174L65.2271 8.5143L65.1801 8.80196L65.1396 9.09535L65.1087 9.39322L65.0861 9.69618L65.0739 10.0036L65.0681 10.3264L65.0726 10.6293L65.0849 10.9482L65.1061 11.2716L65.1357 11.595L65.1737 11.9222L65.2207 12.2513L65.2748 12.5836L65.3391 12.9172L65.4099 13.2527L65.4923 13.5895L65.5747 13.9275L65.6694 14.2655L65.7717 14.6049L65.8812 14.9436L65.999 15.2829L66.1232 15.6216L66.252 15.959L66.391 16.2957L66.5372 16.6319L66.6904 16.9661L66.8494 17.2978L67.0142 17.6275L67.1867 17.9554L67.365 18.2787L67.5498 18.6021L67.7429 18.921L67.936 19.2348L68.1382 19.5461L68.3461 19.8522L68.5579 20.1546L68.7761 20.4518L68.9989 20.7446L69.2255 21.0309L69.4566 21.3122L69.6915 21.5878L69.9317 21.8569L70.1782 22.1203L70.4248 22.3755L70.6707 22.6249L70.9282 22.8672L71.1857 23.1032L71.4432 23.3309L71.7052 23.5516L71.9698 23.764L72.2363 23.9687L72.5047 24.1646L72.7745 24.3521L73.0468 24.5307L73.3204 24.7003L73.594 24.8617L73.8695 25.0141L74.1457 25.1564L74.4225 25.2897L74.6993 25.4121L74.9767 25.525L75.2542 25.6277L75.531 25.7208L75.8078 25.8018L76.084 25.8739L76.3595 25.9377L76.6331 25.9875L76.9074 26.0264L77.179 26.0538L77.4488 26.0691H77.7384L77.985 26.0614L78.2476 26.041L78.5051 26.0085L78.7626 25.9645L79.015 25.9071L79.2616 25.8376L79.5081 25.7566L79.7463 25.6622L79.9793 25.5557L80.204 25.4364L80.4235 25.3056L80.636 25.1634L80.8407 25.009L81.0338 24.8477L81.2224 24.6723L81.4014 24.4867L81.5713 24.2908L81.7361 24.0855L81.8874 23.8724L82.029 23.6505L82.1623 23.4202L82.2859 23.1817L82.3992 22.9393L82.5035 22.6842L82.5994 22.4246L82.6818 22.1586L82.7578 21.8875L82.8222 21.6094L82.8801 21.3269L82.9297 21.038L82.9689 20.7452L83.0005 20.4467L83.0224 20.1444L83.0365 19.8376L83.041 19.5148L83.0462 19.1985ZM71.805 5.72446L72.0219 5.78824L72.2421 5.86095L72.4655 5.94196L72.6901 6.03317L72.9174 6.13458L73.1466 6.24429L73.3777 6.36292L73.6107 6.49049L73.8437 6.62698L74.0787 6.7724L74.313 6.92612L74.548 7.08749L74.7823 7.25779L75.0167 7.43701L75.2503 7.62454L75.4821 7.81588L75.7132 8.01871L75.9417 8.22855L76.1683 8.44541L76.393 8.67056L76.6157 8.90146L76.8353 9.13809L77.0522 9.38046L77.2659 9.63049L77.4751 9.88562L77.6805 10.1471L77.8826 10.4131L78.0822 10.6835L78.2753 10.9584L78.464 11.2378L78.6481 11.5216L78.8283 11.808L79.0028 12.0995L79.1721 12.3935L79.3369 12.6888L79.4946 12.988L79.6465 13.2884L79.792 13.5914L79.9304 13.8956L80.063 14.2005L80.1918 14.5066L80.3115 14.8128L80.4242 15.119L80.5304 15.4251L80.6295 15.7306L80.7216 16.0355L80.804 16.3385L80.8825 16.6395L80.9527 16.9393L81.0171 17.2365L81.0724 17.5318L81.1214 17.824L81.1613 18.1129L81.1947 18.398L81.2218 18.6793L81.2398 18.9555L81.2501 19.2278V19.7559L81.2398 20.0111L81.2218 20.2611L81.196 20.5035L81.1638 20.7414L81.1259 20.9723L81.0795 21.1961L81.0287 21.413L80.9701 21.6222L80.9057 21.8231L80.8754 21.9041L80.7866 21.8882L80.5774 21.8422L80.3643 21.7868L80.1474 21.723L79.9272 21.6503L79.7045 21.5693L79.4791 21.4774L79.2513 21.376L79.0221 21.2663L78.7916 21.1477L78.5586 21.0201L78.3249 20.8836L78.0906 20.7382L77.8562 20.5845L77.6219 20.4231L77.3876 20.2522L77.1533 20.0736L76.9202 19.886L76.6878 19.6915L76.4567 19.4887L76.2282 19.2795L76.0016 19.062L75.7776 18.8381L75.5542 18.6072L75.334 18.3699L75.1177 18.1276L74.904 17.8782L74.6948 17.623L74.4888 17.3615L74.286 17.0962L74.0877 16.8258L73.8946 16.5502L73.706 16.2709L73.5206 15.987L73.3416 15.7006L73.1627 15.413L72.9933 15.1196L72.8285 14.823L72.6708 14.5239L72.5189 14.2234L72.3734 13.9205L72.2337 13.6169L72.1011 13.3114L71.9724 13.0052L71.8526 12.6991L71.7387 12.3929L71.6331 12.0867L71.534 11.7819L71.4419 11.477L71.3601 11.174L71.2777 10.8717L71.2076 10.5713L71.1432 10.2741L71.0872 9.97938L71.0389 9.68662L70.9977 9.39832L70.9649 9.11321L70.9385 8.83193L70.9205 8.55576L70.9095 8.28341V7.75401L70.9205 7.49888L70.9378 7.24822L70.963 7.00585L70.9951 6.76794L71.0325 6.53705L71.0788 6.31317L71.1316 6.09695L71.1896 5.8871L71.2539 5.68555L71.2848 5.60455L71.373 5.6205L71.5829 5.66642L71.805 5.72446ZM79.7231 23.6179L79.5944 23.7149L79.4656 23.8042L79.3298 23.8846L79.1914 23.9592L79.0465 24.023L78.8978 24.0829L78.744 24.1346L78.5863 24.1799L78.4215 24.2169L78.2573 24.2468L78.0835 24.2692L77.9065 24.2838L77.7236 24.2896H77.5357L77.3425 24.2794L77.1449 24.2602L76.9441 24.2373L76.7387 24.2009L76.5295 24.155L76.3157 24.0995L76.0988 24.0357L75.8786 23.9624L75.6559 23.8814L75.4312 23.7902L75.2033 23.6887L74.9742 23.579L74.7437 23.4604L74.5107 23.3328L74.277 23.1963L74.0427 23.0509L73.8064 22.8978L73.5714 22.7365L73.3371 22.5662L73.1021 22.3869L72.8691 22.2001L72.6367 22.0087L72.4069 21.8059L72.1777 21.5967L71.9511 21.3792L71.7264 21.1553L71.5037 20.9244L71.2842 20.6871L71.0672 20.4448L70.8535 20.1954L70.6443 19.9403L70.4377 19.68L70.2355 19.4141L70.0385 19.1347L69.8454 18.8585L69.6561 18.5791L69.4714 18.2959L69.2924 18.0089L69.118 17.7181L68.9487 17.4247L68.7851 17.1319L68.6287 16.8328L68.4761 16.5324L68.3313 16.2294L68.1916 15.9258L68.059 15.6209L67.9302 15.3148L67.8111 15.008L67.6978 14.7025L67.5916 14.3963L67.4925 14.0908L67.4004 13.7865L67.318 13.4829L67.2395 13.1812L67.1693 12.8815L67.1049 12.5842L67.0502 12.2896L67.0013 11.9974L66.9614 11.7092L66.9279 11.424L66.9022 11.1428L66.8835 10.8666L66.8726 10.5942V10.0655L66.8835 9.81035L66.9015 9.56033L66.9266 9.31796L66.9588 9.08069L66.9974 8.84979L67.0431 8.62592L67.0946 8.40906L67.1539 8.19985L67.2182 7.99894L67.2884 7.80759L67.3637 7.62262L67.4461 7.44467L67.5324 7.27565L67.6245 7.11428L67.7217 6.96184L67.8234 6.81705L67.9283 6.6812L68.0384 6.55363L68.153 6.43372L68.2701 6.31445L68.3925 6.21048L68.5212 6.11417L68.65 6.02551L68.7858 5.94451L68.9255 5.87052L69.069 5.80291L69.2177 5.7436L69.3716 5.69066L69.3928 5.68428L69.3285 5.93558L69.2705 6.21877L69.221 6.50707L69.181 6.80047L69.1495 7.09833L69.1276 7.4013L69.1135 7.70809L69.1096 8.03147V8.33443L69.1225 8.65334L69.1431 8.97672L69.1727 9.29946L69.2107 9.62666L69.2577 9.95642L69.3117 10.2874L69.3761 10.6217L69.4469 10.9578L69.5293 11.2946L69.6162 11.632L69.7109 11.9707L69.8132 12.3093L69.922 12.6487L70.0405 12.988L70.1653 13.326L70.2941 13.6641L70.4325 14.0008L70.5793 14.3363L70.7325 14.6706L70.8915 15.0029L71.0563 15.3333L71.2288 15.6605L71.4071 15.9838L71.5925 16.3066L71.7857 16.6255L71.982 16.9406L72.1841 17.2512L72.3914 17.5567L72.6039 17.859L72.8215 18.1563L73.0442 18.4484L73.2708 18.7348L73.5013 19.0161L73.7375 19.2916L73.9776 19.5608L74.2242 19.8242L74.4708 20.0793L74.7167 20.3287L74.9742 20.5717L75.2317 20.8071L75.4892 21.0354L75.7512 21.2548L76.0151 21.4672L76.2823 21.6719L76.5514 21.8678L76.8217 22.0553L77.0934 22.2339L77.3664 22.4035L77.6406 22.5649L77.9155 22.7167L78.1916 22.8589L78.4691 22.9916L78.7446 23.1147L79.0221 23.2276L79.2989 23.3303L79.5764 23.4234L79.8525 23.5038L79.8371 23.5184L79.7231 23.6179Z" fill="black"/>
</g>
</g>
<path d="M211.717 12V4.72727H214.501C215.027 4.72727 215.464 4.81013 215.812 4.97585C216.162 5.1392 216.424 5.36293 216.597 5.64702C216.772 5.93111 216.859 6.25308 216.859 6.61293C216.859 6.90885 216.803 7.16217 216.689 7.37287C216.575 7.5812 216.423 7.75047 216.231 7.88068C216.039 8.01089 215.825 8.1044 215.588 8.16122V8.23224C215.846 8.24645 216.094 8.32576 216.33 8.47017C216.569 8.61222 216.765 8.81345 216.916 9.07386C217.068 9.33428 217.143 9.64915 217.143 10.0185C217.143 10.3949 217.052 10.7334 216.87 11.0341C216.688 11.3324 216.413 11.5679 216.046 11.7408C215.679 11.9136 215.218 12 214.661 12H211.717ZM213.035 10.8991H214.452C214.93 10.8991 215.274 10.808 215.485 10.6257C215.698 10.4411 215.805 10.2043 215.805 9.91548C215.805 9.70005 215.751 9.50592 215.645 9.3331C215.538 9.15791 215.387 9.0206 215.19 8.92116C214.994 8.81937 214.759 8.76847 214.487 8.76847H213.035V10.8991ZM213.035 7.82031H214.338C214.565 7.82031 214.77 7.77888 214.952 7.69602C215.135 7.6108 215.278 7.49124 215.382 7.33736C215.489 7.18111 215.542 6.99645 215.542 6.78338C215.542 6.50166 215.442 6.26965 215.244 6.08736C215.047 5.90507 214.755 5.81392 214.366 5.81392H213.035V7.82031ZM218.89 12V4.72727H223.62V5.83168H220.207V7.80611H223.375V8.91051H220.207V10.8956H223.648V12H218.89ZM225.244 5.83168V4.72727H231.047V5.83168H228.799V12H227.492V5.83168H225.244ZM232.82 12H231.414L233.975 4.72727H235.601L238.165 12H236.759L234.816 6.21875H234.759L232.82 12ZM232.867 9.14844H236.702V10.2067H232.867V9.14844Z" fill="white"/>
<path d="M6.11754 66.5889L3.33345 56.407H4.58629L6.71413 64.6997H6.81357L8.98118 56.407H10.3732L12.5408 64.6997H12.6403L14.7681 56.407H16.021L13.2369 66.5889H11.9641L9.71697 58.4752H9.63743L7.39027 66.5889H6.11754ZM19.7894 66.748C19.1 66.748 18.4951 66.5839 17.9748 66.2558C17.4577 65.9276 17.0534 65.4686 16.7617 64.8786C16.4734 64.2887 16.3292 63.5993 16.3292 62.8105C16.3292 62.015 16.4734 61.3206 16.7617 60.7274C17.0534 60.1341 17.4577 59.6734 17.9748 59.3453C18.4951 59.0171 19.1 58.8531 19.7894 58.8531C20.4788 58.8531 21.082 59.0171 21.5991 59.3453C22.1194 59.6734 22.5238 60.1341 22.8121 60.7274C23.1038 61.3206 23.2496 62.015 23.2496 62.8105C23.2496 63.5993 23.1038 64.2887 22.8121 64.8786C22.5238 65.4686 22.1194 65.9276 21.5991 66.2558C21.082 66.5839 20.4788 66.748 19.7894 66.748ZM19.7894 65.694C20.3131 65.694 20.744 65.5597 21.082 65.2913C21.4201 65.0228 21.6703 64.6698 21.8327 64.2323C21.9951 63.7948 22.0763 63.3209 22.0763 62.8105C22.0763 62.3 21.9951 61.8244 21.8327 61.3836C21.6703 60.9428 21.4201 60.5865 21.082 60.3147C20.744 60.0429 20.3131 59.907 19.7894 59.907C19.2657 59.907 18.8349 60.0429 18.4968 60.3147C18.1587 60.5865 17.9085 60.9428 17.7461 61.3836C17.5837 61.8244 17.5025 62.3 17.5025 62.8105C17.5025 63.3209 17.5837 63.7948 17.7461 64.2323C17.9085 64.6698 18.1587 65.0228 18.4968 65.2913C18.8349 65.5597 19.2657 65.694 19.7894 65.694ZM25.0407 66.5889V58.9525H26.1742V60.1059H26.2537C26.3929 59.7281 26.6448 59.4215 27.0094 59.1862C27.374 58.9508 27.785 58.8332 28.2424 58.8332C28.3285 58.8332 28.4363 58.8348 28.5655 58.8382C28.6948 58.8415 28.7926 58.8464 28.8588 58.8531V60.0463C28.8191 60.0363 28.7279 60.0214 28.5854 60.0015C28.4462 59.9783 28.2987 59.9667 28.1429 59.9667C27.7717 59.9667 27.4403 60.0446 27.1486 60.2004C26.8603 60.3528 26.6316 60.565 26.4625 60.8367C26.2968 61.1052 26.214 61.4118 26.214 61.7565V66.5889H25.0407ZM31.4229 56.407V66.5889H30.2496V56.407H31.4229ZM36.4554 66.748C35.8191 66.748 35.2573 66.5872 34.7701 66.2657C34.2828 65.9409 33.9017 65.4835 33.6266 64.8936C33.3515 64.3003 33.214 63.5993 33.214 62.7906C33.214 61.9885 33.3515 61.2925 33.6266 60.7025C33.9017 60.1125 34.2845 59.6568 34.775 59.3353C35.2656 59.0138 35.8323 58.8531 36.4753 58.8531C36.9725 58.8531 37.3652 58.9359 37.6536 59.1017C37.9453 59.2641 38.1673 59.4497 38.3198 59.6585C38.4756 59.864 38.5965 60.033 38.6827 60.1656H38.7821V56.407H39.9554V66.5889H38.8219V65.4156H38.6827C38.5965 65.5548 38.4739 65.7304 38.3148 65.9426C38.1557 66.1514 37.9287 66.3386 37.6337 66.5044C37.3387 66.6668 36.946 66.748 36.4554 66.748ZM36.6145 65.694C37.0852 65.694 37.4829 65.5713 37.8077 65.3261C38.1325 65.0775 38.3794 64.7345 38.5485 64.297C38.7175 63.8561 38.802 63.3474 38.802 62.7707C38.802 62.2006 38.7192 61.7018 38.5534 61.2742C38.3877 60.8434 38.1425 60.5086 37.8176 60.27C37.4928 60.028 37.0918 59.907 36.6145 59.907C36.1174 59.907 35.7031 60.0347 35.3716 60.2899C35.0435 60.5418 34.7966 60.8848 34.6309 61.319C34.4685 61.7499 34.3873 62.2338 34.3873 62.7707C34.3873 63.3142 34.4701 63.8081 34.6358 64.2522C34.8049 64.693 35.0534 65.0444 35.3816 65.3062C35.713 65.5647 36.124 65.694 36.6145 65.694ZM43.2814 56.407V59.907H42.1877V56.407H43.2814ZM50.7798 60.6627L49.7259 60.961C49.6596 60.7854 49.5618 60.6147 49.4325 60.449C49.3066 60.2799 49.1342 60.1407 48.9155 60.0313C48.6967 59.922 48.4167 59.8673 48.0753 59.8673C47.608 59.8673 47.2185 59.975 46.907 60.1904C46.5987 60.4026 46.4446 60.6727 46.4446 61.0008C46.4446 61.2925 46.5507 61.5228 46.7628 61.6919C46.9749 61.8609 47.3063 62.0017 47.7571 62.1144L48.8906 62.3928C49.5734 62.5586 50.0821 62.8121 50.4169 63.1535C50.7517 63.4916 50.919 63.9274 50.919 64.461C50.919 64.8985 50.7931 65.2896 50.5412 65.6343C50.2926 65.979 49.9446 66.2508 49.4972 66.4497C49.0497 66.6485 48.5294 66.748 47.9361 66.748C47.1572 66.748 46.5125 66.5789 46.0021 66.2409C45.4917 65.9028 45.1686 65.4089 45.0327 64.7593L46.1463 64.4809C46.2524 64.8919 46.4529 65.2001 46.7479 65.4056C47.0462 65.6111 47.4356 65.7139 47.9162 65.7139C48.4631 65.7139 48.8973 65.5979 49.2188 65.3659C49.5436 65.1305 49.706 64.8488 49.706 64.5207C49.706 64.2555 49.6132 64.0335 49.4276 63.8545C49.242 63.6722 48.9569 63.5363 48.5724 63.4468L47.2997 63.1485C46.6004 62.9828 46.0866 62.7259 45.7585 62.3779C45.4337 62.0266 45.2713 61.5874 45.2713 61.0605C45.2713 60.6296 45.3923 60.2484 45.6342 59.917C45.8795 59.5856 46.2126 59.3254 46.6335 59.1365C47.0578 58.9475 47.5384 58.8531 48.0753 58.8531C48.831 58.8531 49.4242 59.0188 49.8551 59.3502C50.2893 59.6817 50.5975 60.1192 50.7798 60.6627ZM60.0233 58.9525V59.9468H55.9068V58.9525H60.0233ZM57.1397 66.5889V57.8985C57.1397 57.461 57.2425 57.0964 57.448 56.8048C57.6535 56.5131 57.9203 56.2944 58.2484 56.1485C58.5765 56.0027 58.9229 55.9298 59.2875 55.9298C59.5758 55.9298 59.8111 55.953 59.9934 55.9994C60.1757 56.0458 60.3116 56.0889 60.4011 56.1286L60.063 57.1428C60.0034 57.123 59.9205 57.0981 59.8145 57.0683C59.7117 57.0384 59.5758 57.0235 59.4068 57.0235C59.019 57.0235 58.7389 57.1213 58.5666 57.3169C58.3975 57.5124 58.313 57.7991 58.313 58.1769V66.5889H57.1397ZM61.6676 66.5889V58.9525H62.8409V66.5889H61.6676ZM62.2642 57.6798C62.0355 57.6798 61.8383 57.6019 61.6726 57.4461C61.5102 57.2903 61.429 57.1031 61.429 56.8843C61.429 56.6656 61.5102 56.4783 61.6726 56.3225C61.8383 56.1668 62.0355 56.0889 62.2642 56.0889C62.4929 56.0889 62.6884 56.1668 62.8509 56.3225C63.0166 56.4783 63.0994 56.6656 63.0994 56.8843C63.0994 57.1031 63.0166 57.2903 62.8509 57.4461C62.6884 57.6019 62.4929 57.6798 62.2642 57.6798ZM64.9899 66.5889V58.9525H66.1234V60.1059H66.2029C66.3422 59.7281 66.594 59.4215 66.9586 59.1862C67.3232 58.9508 67.7342 58.8332 68.1916 58.8332C68.2778 58.8332 68.3855 58.8348 68.5147 58.8382C68.644 58.8415 68.7418 58.8464 68.8081 58.8531V60.0463C68.7683 60.0363 68.6771 60.0214 68.5346 60.0015C68.3954 59.9783 68.2479 59.9667 68.0922 59.9667C67.7209 59.9667 67.3895 60.0446 67.0978 60.2004C66.8095 60.3528 66.5808 60.565 66.4118 60.8367C66.246 61.1052 66.1632 61.4118 66.1632 61.7565V66.5889H64.9899ZM75.608 60.6627L74.554 60.961C74.4877 60.7854 74.3899 60.6147 74.2607 60.449C74.1347 60.2799 73.9624 60.1407 73.7436 60.0313C73.5249 59.922 73.2448 59.8673 72.9034 59.8673C72.4361 59.8673 72.0466 59.975 71.7351 60.1904C71.4268 60.4026 71.2727 60.6727 71.2727 61.0008C71.2727 61.2925 71.3788 61.5228 71.5909 61.6919C71.803 61.8609 72.1345 62.0017 72.5852 62.1144L73.7188 62.3928C74.4015 62.5586 74.9103 62.8121 75.245 63.1535C75.5798 63.4916 75.7472 63.9274 75.7472 64.461C75.7472 64.8985 75.6212 65.2896 75.3693 65.6343C75.1207 65.979 74.7727 66.2508 74.3253 66.4497C73.8778 66.6485 73.3575 66.748 72.7642 66.748C71.9853 66.748 71.3407 66.5789 70.8303 66.2409C70.3198 65.9028 69.9967 65.4089 69.8608 64.7593L70.9744 64.4809C71.0805 64.8919 71.281 65.2001 71.576 65.4056C71.8743 65.6111 72.2637 65.7139 72.7443 65.7139C73.2912 65.7139 73.7254 65.5979 74.0469 65.3659C74.3717 65.1305 74.5341 64.8488 74.5341 64.5207C74.5341 64.2555 74.4413 64.0335 74.2557 63.8545C74.0701 63.6722 73.785 63.5363 73.4006 63.4468L72.1278 63.1485C71.4285 62.9828 70.9148 62.7259 70.5866 62.3779C70.2618 62.0266 70.0994 61.5874 70.0994 61.0605C70.0994 60.6296 70.2204 60.2484 70.4624 59.917C70.7076 59.5856 71.0407 59.3254 71.4616 59.1365C71.8859 58.9475 72.3665 58.8531 72.9034 58.8531C73.6591 58.8531 74.2524 59.0188 74.6832 59.3502C75.1174 59.6817 75.4257 60.1192 75.608 60.6627ZM80.8343 58.9525V59.9468H76.877V58.9525H80.8343ZM78.0304 57.123H79.2037V64.4014C79.2037 64.7328 79.2517 64.9814 79.3478 65.1471C79.4473 65.3095 79.5732 65.4189 79.7257 65.4752C79.8815 65.5283 80.0455 65.5548 80.2179 65.5548C80.3471 65.5548 80.4532 65.5481 80.536 65.5349C80.6189 65.5183 80.6852 65.5051 80.7349 65.4951L80.9735 66.5491C80.894 66.5789 80.783 66.6088 80.6404 66.6386C80.4979 66.6717 80.3173 66.6883 80.0985 66.6883C79.7671 66.6883 79.4423 66.617 79.1241 66.4745C78.8092 66.332 78.5474 66.1149 78.3386 65.8232C78.1331 65.5316 78.0304 65.1637 78.0304 64.7195V57.123ZM185.752 66.748C185.116 66.748 184.554 66.5872 184.067 66.2657C183.58 65.9409 183.199 65.4835 182.923 64.8936C182.648 64.3003 182.511 63.5993 182.511 62.7906C182.511 61.9885 182.648 61.2925 182.923 60.7025C183.199 60.1125 183.581 59.6568 184.072 59.3353C184.562 59.0138 185.129 58.8531 185.772 58.8531C186.269 58.8531 186.662 58.9359 186.95 59.1017C187.242 59.2641 187.464 59.4497 187.617 59.6585C187.772 59.864 187.893 60.033 187.98 60.1656H188.079V56.407H189.252V66.5889H188.119V65.4156H187.98C187.893 65.5548 187.771 65.7304 187.612 65.9426C187.453 66.1514 187.226 66.3386 186.931 66.5044C186.636 66.6668 186.243 66.748 185.752 66.748ZM185.911 65.694C186.382 65.694 186.78 65.5713 187.105 65.3261C187.429 65.0775 187.676 64.7345 187.845 64.297C188.014 63.8561 188.099 63.3474 188.099 62.7707C188.099 62.2006 188.016 61.7018 187.85 61.2742C187.685 60.8434 187.439 60.5086 187.115 60.27C186.79 60.028 186.389 59.907 185.911 59.907C185.414 59.907 185 60.0347 184.669 60.2899C184.34 60.5418 184.093 60.8848 183.928 61.319C183.765 61.7499 183.684 62.2338 183.684 62.7707C183.684 63.3142 183.767 63.8081 183.933 64.2522C184.102 64.693 184.35 65.0444 184.678 65.3062C185.01 65.5647 185.421 65.694 185.911 65.694ZM191.564 66.5889V58.9525H192.737V66.5889H191.564ZM192.161 57.6798C191.932 57.6798 191.735 57.6019 191.569 57.4461C191.407 57.2903 191.325 57.1031 191.325 56.8843C191.325 56.6656 191.407 56.4783 191.569 56.3225C191.735 56.1668 191.932 56.0889 192.161 56.0889C192.389 56.0889 192.585 56.1668 192.747 56.3225C192.913 56.4783 192.996 56.6656 192.996 56.8843C192.996 57.1031 192.913 57.2903 192.747 57.4461C192.585 57.6019 192.389 57.6798 192.161 57.6798ZM197.969 69.6116C197.402 69.6116 196.915 69.5387 196.507 69.3928C196.099 69.2503 195.76 69.0614 195.488 68.8261C195.219 68.5941 195.006 68.3455 194.847 68.0803L195.781 67.4241C195.887 67.5633 196.022 67.7224 196.184 67.9014C196.346 68.0837 196.568 68.2411 196.85 68.3737C197.135 68.5096 197.508 68.5775 197.969 68.5775C198.585 68.5775 199.094 68.4284 199.495 68.1301C199.896 67.8318 200.097 67.3644 200.097 66.7281V65.1769H199.997C199.911 65.3161 199.788 65.4885 199.629 65.694C199.473 65.8962 199.248 66.0768 198.953 66.2359C198.661 66.3917 198.267 66.4695 197.77 66.4695C197.153 66.4695 196.6 66.3237 196.109 66.032C195.622 65.7404 195.236 65.3161 194.951 64.7593C194.669 64.2025 194.528 63.5264 194.528 62.7309C194.528 61.9487 194.666 61.2676 194.941 60.6876C195.216 60.1043 195.599 59.6535 196.089 59.3353C196.58 59.0138 197.147 58.8531 197.79 58.8531C198.287 58.8531 198.681 58.9359 198.973 59.1017C199.268 59.2641 199.493 59.4497 199.649 59.6585C199.808 59.864 199.931 60.033 200.017 60.1656H200.136V58.9525H201.27V66.8076C201.27 67.4639 201.121 67.9975 200.822 68.4085C200.527 68.8228 200.13 69.126 199.629 69.3183C199.132 69.5138 198.579 69.6116 197.969 69.6116ZM197.929 65.4156C198.4 65.4156 198.797 65.3079 199.122 65.0924C199.447 64.877 199.694 64.5671 199.863 64.1627C200.032 63.7584 200.116 63.2745 200.116 62.711C200.116 62.1608 200.034 61.6753 199.868 61.2544C199.702 60.8334 199.457 60.5036 199.132 60.265C198.807 60.0264 198.406 59.907 197.929 59.907C197.432 59.907 197.018 60.033 196.686 60.2849C196.358 60.5368 196.111 60.8749 195.945 61.2991C195.783 61.7233 195.702 62.194 195.702 62.711C195.702 63.2413 195.785 63.7103 195.95 64.118C196.119 64.5223 196.368 64.8405 196.696 65.0725C197.027 65.3012 197.438 65.4156 197.929 65.4156ZM203.418 66.5889V58.9525H204.591V66.5889H203.418ZM204.014 57.6798C203.786 57.6798 203.588 57.6019 203.423 57.4461C203.26 57.2903 203.179 57.1031 203.179 56.8843C203.179 56.6656 203.26 56.4783 203.423 56.3225C203.588 56.1668 203.786 56.0889 204.014 56.0889C204.243 56.0889 204.438 56.1668 204.601 56.3225C204.767 56.4783 204.849 56.6656 204.849 56.8843C204.849 57.1031 204.767 57.2903 204.601 57.4461C204.438 57.6019 204.243 57.6798 204.014 57.6798ZM210.061 58.9525V59.9468H206.104V58.9525H210.061ZM207.257 57.123H208.43V64.4014C208.43 64.7328 208.478 64.9814 208.574 65.1471C208.674 65.3095 208.8 65.4189 208.952 65.4752C209.108 65.5283 209.272 65.5548 209.444 65.5548C209.574 65.5548 209.68 65.5481 209.763 65.5349C209.845 65.5183 209.912 65.5051 209.961 65.4951L210.2 66.5491C210.121 66.5789 210.01 66.6088 209.867 66.6386C209.724 66.6717 209.544 66.6883 209.325 66.6883C208.994 66.6883 208.669 66.617 208.351 66.4745C208.036 66.332 207.774 66.1149 207.565 65.8232C207.36 65.5316 207.257 65.1637 207.257 64.7195V57.123ZM214.073 66.7678C213.589 66.7678 213.15 66.6767 212.756 66.4944C212.361 66.3088 212.048 66.042 211.816 65.694C211.584 65.3427 211.468 64.9184 211.468 64.4213C211.468 63.9838 211.554 63.6291 211.726 63.3573C211.899 63.0822 212.129 62.8668 212.417 62.711C212.706 62.5552 213.024 62.4392 213.372 62.363C213.723 62.2835 214.076 62.2205 214.431 62.1741C214.895 62.1144 215.271 62.0697 215.559 62.0399C215.851 62.0067 216.063 61.952 216.196 61.8758C216.332 61.7996 216.4 61.667 216.4 61.4781V61.4383C216.4 60.9478 216.265 60.5666 215.997 60.2948C215.732 60.0231 215.329 59.8872 214.789 59.8872C214.229 59.8872 213.79 60.0098 213.471 60.2551C213.153 60.5003 212.93 60.7622 212.8 61.0406L211.687 60.6428C211.885 60.1788 212.151 59.8176 212.482 59.559C212.817 59.2972 213.181 59.1149 213.576 59.0122C213.974 58.9061 214.365 58.8531 214.749 58.8531C214.994 58.8531 215.276 58.8829 215.594 58.9426C215.916 58.9989 216.226 59.1166 216.524 59.2955C216.826 59.4745 217.076 59.7446 217.275 60.1059C217.474 60.4672 217.573 60.9511 217.573 61.5576V66.5889H216.4V65.5548H216.34C216.26 65.7205 216.128 65.8978 215.942 66.0867C215.757 66.2757 215.51 66.4364 215.202 66.569C214.893 66.7016 214.517 66.7678 214.073 66.7678ZM214.252 65.7139C214.716 65.7139 215.107 65.6227 215.425 65.4404C215.747 65.2581 215.989 65.0228 216.151 64.7345C216.317 64.4461 216.4 64.1428 216.4 63.8247V62.7508C216.35 62.8105 216.241 62.8651 216.072 62.9149C215.906 62.9613 215.714 63.0027 215.495 63.0392C215.279 63.0723 215.069 63.1021 214.863 63.1286C214.661 63.1518 214.497 63.1717 214.371 63.1883C214.066 63.2281 213.781 63.2927 213.516 63.3822C213.254 63.4684 213.042 63.5993 212.88 63.7749C212.721 63.9473 212.641 64.1826 212.641 64.4809C212.641 64.8886 212.792 65.1968 213.094 65.4056C213.398 65.6111 213.785 65.7139 214.252 65.7139ZM220.888 56.407V66.5889H219.714V56.407H220.888ZM230.176 66.748C229.44 66.748 228.805 66.5856 228.272 66.2607C227.742 65.9326 227.332 65.4752 227.044 64.8886C226.759 64.2986 226.616 63.6125 226.616 62.8303C226.616 62.0481 226.759 61.3588 227.044 60.7622C227.332 60.1623 227.733 59.6949 228.247 59.3602C228.764 59.0221 229.367 58.8531 230.057 58.8531C230.454 58.8531 230.847 58.9194 231.235 59.0519C231.623 59.1845 231.976 59.3999 232.294 59.6982C232.612 59.9932 232.866 60.3843 233.055 60.8715C233.243 61.3588 233.338 61.9587 233.338 62.6713V63.1684H227.452V62.1542H232.145C232.145 61.7233 232.059 61.3389 231.886 61.0008C231.717 60.6627 231.475 60.3959 231.16 60.2004C230.849 60.0048 230.481 59.907 230.057 59.907C229.589 59.907 229.185 60.0231 228.844 60.2551C228.506 60.4838 228.245 60.782 228.063 61.1499C227.881 61.5178 227.79 61.9123 227.79 62.3332V63.0093C227.79 63.586 227.889 64.0749 228.088 64.4759C228.29 64.8737 228.57 65.1769 228.928 65.3857C229.286 65.5912 229.702 65.694 230.176 65.694C230.484 65.694 230.763 65.6509 231.011 65.5647C231.263 65.4752 231.48 65.3427 231.662 65.167C231.845 64.988 231.986 64.766 232.085 64.5008L233.219 64.819C233.099 65.2035 232.899 65.5415 232.617 65.8332C232.335 66.1215 231.987 66.3469 231.573 66.5093C231.159 66.6684 230.693 66.748 230.176 66.748ZM238.225 66.748C237.509 66.748 236.893 66.5789 236.376 66.2409C235.858 65.9028 235.461 65.4371 235.182 64.8438C234.904 64.2506 234.765 63.5728 234.765 62.8105C234.765 62.0349 234.907 61.3505 235.192 60.7572C235.481 60.1606 235.882 59.6949 236.395 59.3602C236.912 59.0221 237.516 58.8531 238.205 58.8531C238.742 58.8531 239.226 58.9525 239.657 59.1514C240.088 59.3502 240.441 59.6286 240.716 59.9866C240.991 60.3445 241.162 60.7622 241.228 61.2394H240.055C239.965 60.8914 239.766 60.5832 239.458 60.3147C239.153 60.0429 238.742 59.907 238.225 59.907C237.768 59.907 237.367 60.0264 237.022 60.265C236.68 60.5003 236.414 60.8334 236.221 61.2643C236.032 61.6918 235.938 62.194 235.938 62.7707C235.938 63.3606 236.031 63.8744 236.216 64.3119C236.405 64.7494 236.671 65.0891 237.012 65.3311C237.357 65.573 237.761 65.694 238.225 65.694C238.53 65.694 238.807 65.641 239.055 65.5349C239.304 65.4288 239.514 65.2764 239.687 65.0775C239.859 64.8786 239.982 64.64 240.055 64.3616H241.228C241.162 64.8124 240.997 65.2184 240.736 65.5796C240.477 65.9376 240.134 66.2226 239.706 66.4347C239.282 66.6436 238.788 66.748 238.225 66.748ZM246.045 66.748C245.356 66.748 244.751 66.5839 244.231 66.2558C243.714 65.9276 243.309 65.4686 243.018 64.8786C242.729 64.2887 242.585 63.5993 242.585 62.8105C242.585 62.015 242.729 61.3206 243.018 60.7274C243.309 60.1341 243.714 59.6734 244.231 59.3453C244.751 59.0171 245.356 58.8531 246.045 58.8531C246.735 58.8531 247.338 59.0171 247.855 59.3453C248.375 59.6734 248.78 60.1341 249.068 60.7274C249.36 61.3206 249.506 62.015 249.506 62.8105C249.506 63.5993 249.36 64.2887 249.068 64.8786C248.78 65.4686 248.375 65.9276 247.855 66.2558C247.338 66.5839 246.735 66.748 246.045 66.748ZM246.045 65.694C246.569 65.694 247 65.5597 247.338 65.2913C247.676 65.0228 247.926 64.6698 248.089 64.2323C248.251 63.7948 248.332 63.3209 248.332 62.8105C248.332 62.3 248.251 61.8244 248.089 61.3836C247.926 60.9428 247.676 60.5865 247.338 60.3147C247 60.0429 246.569 59.907 246.045 59.907C245.522 59.907 245.091 60.0429 244.753 60.3147C244.415 60.5865 244.164 60.9428 244.002 61.3836C243.84 61.8244 243.758 62.3 243.758 62.8105C243.758 63.3209 243.84 63.7948 244.002 64.2323C244.164 64.6698 244.415 65.0228 244.753 65.2913C245.091 65.5597 245.522 65.694 246.045 65.694ZM256.706 60.6627L255.652 60.961C255.585 60.7854 255.488 60.6147 255.358 60.449C255.232 60.2799 255.06 60.1407 254.841 60.0313C254.623 59.922 254.342 59.8673 254.001 59.8673C253.534 59.8673 253.144 59.975 252.833 60.1904C252.525 60.4026 252.37 60.6727 252.37 61.0008C252.37 61.2925 252.476 61.5228 252.689 61.6919C252.901 61.8609 253.232 62.0017 253.683 62.1144L254.816 62.3928C255.499 62.5586 256.008 62.8121 256.343 63.1535C256.677 63.4916 256.845 63.9274 256.845 64.461C256.845 64.8985 256.719 65.2896 256.467 65.6343C256.218 65.979 255.87 66.2508 255.423 66.4497C254.975 66.6485 254.455 66.748 253.862 66.748C253.083 66.748 252.438 66.5789 251.928 66.2409C251.417 65.9028 251.094 65.4089 250.958 64.7593L252.072 64.4809C252.178 64.8919 252.379 65.2001 252.674 65.4056C252.972 65.6111 253.361 65.7139 253.842 65.7139C254.389 65.7139 254.823 65.5979 255.145 65.3659C255.469 65.1305 255.632 64.8488 255.632 64.5207C255.632 64.2555 255.539 64.0335 255.353 63.8545C255.168 63.6722 254.883 63.5363 254.498 63.4468L253.225 63.1485C252.526 62.9828 252.012 62.7259 251.684 62.3779C251.359 62.0266 251.197 61.5874 251.197 61.0605C251.197 60.6296 251.318 60.2484 251.56 59.917C251.805 59.5856 252.138 59.3254 252.559 59.1365C252.984 58.9475 253.464 58.8531 254.001 58.8531C254.757 58.8531 255.35 59.0188 255.781 59.3502C256.215 59.6817 256.523 60.1192 256.706 60.6627ZM259.367 69.4525C259.168 69.4525 258.99 69.4359 258.835 69.4028C258.679 69.373 258.571 69.3431 258.512 69.3133L258.81 68.2792C259.095 68.3521 259.347 68.3786 259.566 68.3588C259.784 68.3389 259.978 68.2411 260.147 68.0654C260.32 67.8931 260.477 67.613 260.619 67.2252L260.838 66.6286L258.014 58.9525H259.287L261.395 65.0377H261.475L263.583 58.9525H264.855L261.614 67.7025C261.468 68.0969 261.287 68.4234 261.072 68.6819C260.856 68.9437 260.606 69.1376 260.321 69.2636C260.039 69.3895 259.721 69.4525 259.367 69.4525ZM271.813 60.6627L270.759 60.961C270.693 60.7854 270.595 60.6147 270.466 60.449C270.34 60.2799 270.167 60.1407 269.949 60.0313C269.73 59.922 269.45 59.8673 269.108 59.8673C268.641 59.8673 268.252 59.975 267.94 60.1904C267.632 60.4026 267.478 60.6727 267.478 61.0008C267.478 61.2925 267.584 61.5228 267.796 61.6919C268.008 61.8609 268.34 62.0017 268.79 62.1144L269.924 62.3928C270.607 62.5586 271.115 62.8121 271.45 63.1535C271.785 63.4916 271.952 63.9274 271.952 64.461C271.952 64.8985 271.826 65.2896 271.574 65.6343C271.326 65.979 270.978 66.2508 270.53 66.4497C270.083 66.6485 269.563 66.748 268.969 66.748C268.19 66.748 267.546 66.5789 267.035 66.2409C266.525 65.9028 266.202 65.4089 266.066 64.7593L267.18 64.4809C267.286 64.8919 267.486 65.2001 267.781 65.4056C268.079 65.6111 268.469 65.7139 268.949 65.7139C269.496 65.7139 269.93 65.5979 270.252 65.3659C270.577 65.1305 270.739 64.8488 270.739 64.5207C270.739 64.2555 270.646 64.0335 270.461 63.8545C270.275 63.6722 269.99 63.5363 269.606 63.4468L268.333 63.1485C267.634 62.9828 267.12 62.7259 266.792 62.3779C266.467 62.0266 266.305 61.5874 266.305 61.0605C266.305 60.6296 266.425 60.2484 266.667 59.917C266.913 59.5856 267.246 59.3254 267.667 59.1365C268.091 58.9475 268.572 58.8531 269.108 58.8531C269.864 58.8531 270.457 59.0188 270.888 59.3502C271.323 59.6817 271.631 60.1192 271.813 60.6627ZM277.039 58.9525V59.9468H273.082V58.9525H277.039ZM274.235 57.123H275.409V64.4014C275.409 64.7328 275.457 64.9814 275.553 65.1471C275.652 65.3095 275.778 65.4189 275.931 65.4752C276.087 65.5283 276.251 65.5548 276.423 65.5548C276.552 65.5548 276.658 65.5481 276.741 65.5349C276.824 65.5183 276.89 65.5051 276.94 65.4951L277.179 66.5491C277.099 66.5789 276.988 66.6088 276.846 66.6386C276.703 66.6717 276.522 66.6883 276.304 66.6883C275.972 66.6883 275.647 66.617 275.329 66.4745C275.014 66.332 274.752 66.1149 274.544 65.8232C274.338 65.5316 274.235 65.1637 274.235 64.7195V57.123ZM281.924 66.748C281.188 66.748 280.554 66.5856 280.02 66.2607C279.49 65.9326 279.08 65.4752 278.792 64.8886C278.507 64.2986 278.364 63.6125 278.364 62.8303C278.364 62.0481 278.507 61.3588 278.792 60.7622C279.08 60.1623 279.481 59.6949 279.995 59.3602C280.512 59.0221 281.115 58.8531 281.805 58.8531C282.202 58.8531 282.595 58.9194 282.983 59.0519C283.371 59.1845 283.724 59.3999 284.042 59.6982C284.36 59.9932 284.614 60.3843 284.803 60.8715C284.991 61.3588 285.086 61.9587 285.086 62.6713V63.1684H279.2V62.1542H283.893C283.893 61.7233 283.807 61.3389 283.634 61.0008C283.465 60.6627 283.223 60.3959 282.908 60.2004C282.597 60.0048 282.229 59.907 281.805 59.907C281.337 59.907 280.933 60.0231 280.592 60.2551C280.254 60.4838 279.993 60.782 279.811 61.1499C279.629 61.5178 279.538 61.9123 279.538 62.3332V63.0093C279.538 63.586 279.637 64.0749 279.836 64.4759C280.038 64.8737 280.318 65.1769 280.676 65.3857C281.034 65.5912 281.45 65.694 281.924 65.694C282.232 65.694 282.511 65.6509 282.759 65.5647C283.011 65.4752 283.228 65.3427 283.411 65.167C283.593 64.988 283.734 64.766 283.833 64.5008L284.967 64.819C284.847 65.2035 284.647 65.5415 284.365 65.8332C284.083 66.1215 283.735 66.3469 283.321 66.5093C282.907 66.6684 282.441 66.748 281.924 66.748ZM286.871 66.5889V58.9525H288.004V60.1457H288.104C288.263 59.738 288.52 59.4215 288.874 59.1961C289.229 58.9674 289.655 58.8531 290.152 58.8531C290.656 58.8531 291.075 58.9674 291.41 59.1961C291.748 59.4215 292.011 59.738 292.2 60.1457H292.28C292.475 59.7513 292.769 59.4381 293.16 59.2061C293.551 58.9707 294.02 58.8531 294.567 58.8531C295.25 58.8531 295.808 59.0669 296.242 59.4944C296.676 59.9186 296.893 60.5799 296.893 61.4781V66.5889H295.72V61.4781C295.72 60.9146 295.566 60.5119 295.258 60.27C294.95 60.028 294.587 59.907 294.169 59.907C293.632 59.907 293.216 60.0695 292.921 60.3943C292.626 60.7158 292.479 61.1234 292.479 61.6173V66.5889H291.286V61.3588C291.286 60.9246 291.145 60.5749 290.863 60.3097C290.581 60.0413 290.218 59.907 289.774 59.907C289.469 59.907 289.184 59.9883 288.919 60.1507C288.657 60.3131 288.445 60.5384 288.283 60.8268C288.124 61.1118 288.044 61.4416 288.044 61.8161V66.5889H286.871ZM58.9705 80.9525V81.9468H54.854V80.9525H58.9705ZM56.087 88.5889V79.8985C56.087 79.461 56.1897 79.0964 56.3952 78.8048C56.6007 78.5131 56.8675 78.2944 57.1957 78.1485C57.5238 78.0027 57.8701 77.9298 58.2347 77.9298C58.5231 77.9298 58.7584 77.953 58.9407 77.9994C59.123 78.0458 59.2589 78.0889 59.3484 78.1286L59.0103 79.1428C58.9506 79.123 58.8678 79.0981 58.7617 79.0683C58.659 79.0384 58.5231 79.0235 58.354 79.0235C57.9663 79.0235 57.6862 79.1213 57.5138 79.3169C57.3448 79.5124 57.2603 79.7991 57.2603 80.1769V88.5889H56.087ZM63.4027 88.748C62.7133 88.748 62.1084 88.5839 61.5881 88.2558C61.071 87.9276 60.6667 87.4686 60.375 86.8786C60.0866 86.2887 59.9425 85.5993 59.9425 84.8105C59.9425 84.015 60.0866 83.3206 60.375 82.7274C60.6667 82.1341 61.071 81.6734 61.5881 81.3453C62.1084 81.0171 62.7133 80.8531 63.4027 80.8531C64.0921 80.8531 64.6953 81.0171 65.2124 81.3453C65.7327 81.6734 66.1371 82.1341 66.4254 82.7274C66.7171 83.3206 66.8629 84.015 66.8629 84.8105C66.8629 85.5993 66.7171 86.2887 66.4254 86.8786C66.1371 87.4686 65.7327 87.9276 65.2124 88.2558C64.6953 88.5839 64.0921 88.748 63.4027 88.748ZM63.4027 87.694C63.9264 87.694 64.3572 87.5597 64.6953 87.2913C65.0334 87.0228 65.2836 86.6698 65.446 86.2323C65.6084 85.7948 65.6896 85.3209 65.6896 84.8105C65.6896 84.3 65.6084 83.8244 65.446 83.3836C65.2836 82.9428 65.0334 82.5865 64.6953 82.3147C64.3572 82.0429 63.9264 81.907 63.4027 81.907C62.879 81.907 62.4482 82.0429 62.1101 82.3147C61.772 82.5865 61.5218 82.9428 61.3594 83.3836C61.197 83.8244 61.1158 84.3 61.1158 84.8105C61.1158 85.3209 61.197 85.7948 61.3594 86.2323C61.5218 86.6698 61.772 87.0228 62.1101 87.2913C62.4482 87.5597 62.879 87.694 63.4027 87.694ZM68.6539 88.5889V80.9525H69.7875V82.1059H69.867C70.0062 81.7281 70.2581 81.4215 70.6227 81.1862C70.9873 80.9508 71.3983 80.8332 71.8556 80.8332C71.9418 80.8332 72.0495 80.8348 72.1788 80.8382C72.3081 80.8415 72.4058 80.8464 72.4721 80.8531V82.0463C72.4324 82.0363 72.3412 82.0214 72.1987 82.0015C72.0595 81.9783 71.912 81.9667 71.7562 81.9667C71.385 81.9667 71.0536 82.0446 70.7619 82.2004C70.4735 82.3528 70.2449 82.565 70.0758 82.8367C69.9101 83.1052 69.8272 83.4118 69.8272 83.7565V88.5889H68.6539ZM81.1214 80.9525V81.9468H77.1641V80.9525H81.1214ZM78.3175 79.123H79.4908V86.4014C79.4908 86.7328 79.5388 86.9814 79.6349 87.1471C79.7344 87.3095 79.8603 87.4189 80.0128 87.4752C80.1686 87.5283 80.3326 87.5548 80.505 87.5548C80.6342 87.5548 80.7403 87.5481 80.8232 87.5349C80.906 87.5183 80.9723 87.5051 81.022 87.4951L81.2607 88.5491C81.1811 88.5789 81.0701 88.6088 80.9276 88.6386C80.785 88.6717 80.6044 88.6883 80.3857 88.6883C80.0542 88.6883 79.7294 88.617 79.4112 88.4745C79.0964 88.332 78.8345 88.1149 78.6257 87.8232C78.4202 87.5316 78.3175 87.1637 78.3175 86.7195V79.123ZM84.2237 83.9951V88.5889H83.0504V78.407H84.2237V82.1457H84.3232C84.5021 81.7513 84.7706 81.4381 85.1286 81.2061C85.4898 80.9707 85.9704 80.8531 86.5703 80.8531C87.0907 80.8531 87.5464 80.9575 87.9375 81.1663C88.3286 81.3718 88.6319 81.6883 88.8473 82.1159C89.0661 82.5401 89.1754 83.0803 89.1754 83.7366V88.5889H88.0021V83.8161C88.0021 83.2096 87.8447 82.7406 87.5298 82.4092C87.2183 82.0744 86.7857 81.907 86.2322 81.907C85.8478 81.907 85.5031 81.9883 85.1982 82.1507C84.8965 82.3131 84.6579 82.55 84.4822 82.8616C84.3099 83.1731 84.2237 83.551 84.2237 83.9951ZM94.5236 88.748C93.7878 88.748 93.1531 88.5856 92.6195 88.2607C92.0892 87.9326 91.6799 87.4752 91.3915 86.8886C91.1065 86.2986 90.964 85.6125 90.964 84.8303C90.964 84.0481 91.1065 83.3588 91.3915 82.7622C91.6799 82.1623 92.0809 81.6949 92.5946 81.3602C93.1117 81.0221 93.7149 80.8531 94.4043 80.8531C94.802 80.8531 95.1948 80.9194 95.5826 81.0519C95.9703 81.1845 96.3233 81.3999 96.6415 81.6982C96.9597 81.9932 97.2132 82.3843 97.4022 82.8715C97.5911 83.3588 97.6855 83.9587 97.6855 84.6713V85.1684H91.7992V84.1542H96.4924C96.4924 83.7233 96.4062 83.3389 96.2338 83.0008C96.0648 82.6627 95.8229 82.3959 95.508 82.2004C95.1964 82.0048 94.8285 81.907 94.4043 81.907C93.937 81.907 93.5326 82.0231 93.1912 82.2551C92.8532 82.4838 92.593 82.782 92.4107 83.1499C92.2284 83.5178 92.1373 83.9123 92.1373 84.3332V85.0093C92.1373 85.586 92.2367 86.0749 92.4355 86.4759C92.6377 86.8737 92.9178 87.1769 93.2757 87.3857C93.6337 87.5912 94.0497 87.694 94.5236 87.694C94.8319 87.694 95.1103 87.6509 95.3588 87.5647C95.6107 87.4752 95.8278 87.3427 96.0101 87.167C96.1924 86.988 96.3333 86.766 96.4327 86.5008L97.5662 86.819C97.4469 87.2035 97.2464 87.5415 96.9647 87.8332C96.6829 88.1215 96.3349 88.3469 95.9206 88.5093C95.5063 88.6684 95.0407 88.748 94.5236 88.748ZM106.51 88.748C105.794 88.748 105.178 88.5789 104.661 88.2409C104.144 87.9028 103.746 87.4371 103.468 86.8438C103.189 86.2506 103.05 85.5728 103.05 84.8105C103.05 84.0349 103.192 83.3505 103.477 82.7572C103.766 82.1606 104.167 81.6949 104.681 81.3602C105.198 81.0221 105.801 80.8531 106.49 80.8531C107.027 80.8531 107.511 80.9525 107.942 81.1514C108.373 81.3502 108.726 81.6286 109.001 81.9866C109.276 82.3445 109.447 82.7622 109.513 83.2394H108.34C108.25 82.8914 108.051 82.5832 107.743 82.3147C107.438 82.0429 107.027 81.907 106.51 81.907C106.053 81.907 105.652 82.0264 105.307 82.265C104.966 82.5003 104.699 82.8334 104.507 83.2643C104.318 83.6918 104.223 84.194 104.223 84.7707C104.223 85.3606 104.316 85.8744 104.502 86.3119C104.691 86.7494 104.956 87.0891 105.297 87.3311C105.642 87.573 106.046 87.694 106.51 87.694C106.815 87.694 107.092 87.641 107.34 87.5349C107.589 87.4288 107.799 87.2764 107.972 87.0775C108.144 86.8786 108.267 86.64 108.34 86.3616H109.513C109.447 86.8124 109.283 87.2184 109.021 87.5796C108.762 87.9376 108.419 88.2226 107.992 88.4347C107.567 88.6436 107.074 88.748 106.51 88.748ZM114.33 88.748C113.641 88.748 113.036 88.5839 112.516 88.2558C111.999 87.9276 111.594 87.4686 111.303 86.8786C111.014 86.2887 110.87 85.5993 110.87 84.8105C110.87 84.015 111.014 83.3206 111.303 82.7274C111.594 82.1341 111.999 81.6734 112.516 81.3453C113.036 81.0171 113.641 80.8531 114.33 80.8531C115.02 80.8531 115.623 81.0171 116.14 81.3453C116.66 81.6734 117.065 82.1341 117.353 82.7274C117.645 83.3206 117.791 84.015 117.791 84.8105C117.791 85.5993 117.645 86.2887 117.353 86.8786C117.065 87.4686 116.66 87.9276 116.14 88.2558C115.623 88.5839 115.02 88.748 114.33 88.748ZM114.33 87.694C114.854 87.694 115.285 87.5597 115.623 87.2913C115.961 87.0228 116.211 86.6698 116.374 86.2323C116.536 85.7948 116.617 85.3209 116.617 84.8105C116.617 84.3 116.536 83.8244 116.374 83.3836C116.211 82.9428 115.961 82.5865 115.623 82.3147C115.285 82.0429 114.854 81.907 114.33 81.907C113.807 81.907 113.376 82.0429 113.038 82.3147C112.7 82.5865 112.45 82.9428 112.287 83.3836C112.125 83.8244 112.044 84.3 112.044 84.8105C112.044 85.3209 112.125 85.7948 112.287 86.2323C112.45 86.6698 112.7 87.0228 113.038 87.2913C113.376 87.5597 113.807 87.694 114.33 87.694ZM120.755 83.9951V88.5889H119.582V80.9525H120.715V82.1457H120.815C120.994 81.7579 121.265 81.4463 121.63 81.211C121.995 80.9724 122.465 80.8531 123.042 80.8531C123.559 80.8531 124.011 80.9591 124.399 81.1713C124.787 81.3801 125.089 81.6982 125.304 82.1258C125.519 82.55 125.627 83.087 125.627 83.7366V88.5889H124.454V83.8161C124.454 83.2162 124.298 82.7489 123.987 82.4142C123.675 82.0761 123.247 81.907 122.704 81.907C122.329 81.907 121.995 81.9883 121.7 82.1507C121.408 82.3131 121.178 82.55 121.009 82.8616C120.839 83.1731 120.755 83.551 120.755 83.9951ZM133.18 82.6627L132.126 82.961C132.06 82.7854 131.962 82.6147 131.833 82.449C131.707 82.2799 131.535 82.1407 131.316 82.0313C131.097 81.922 130.817 81.8673 130.476 81.8673C130.008 81.8673 129.619 81.975 129.307 82.1904C128.999 82.4026 128.845 82.6727 128.845 83.0008C128.845 83.2925 128.951 83.5228 129.163 83.6919C129.375 83.8609 129.707 84.0017 130.157 84.1144L131.291 84.3928C131.974 84.5586 132.483 84.8121 132.817 85.1535C133.152 85.4916 133.319 85.9274 133.319 86.461C133.319 86.8985 133.193 87.2896 132.942 87.6343C132.693 87.979 132.345 88.2508 131.898 88.4497C131.45 88.6485 130.93 88.748 130.336 88.748C129.558 88.748 128.913 88.5789 128.403 88.2409C127.892 87.9028 127.569 87.4089 127.433 86.7593L128.547 86.4809C128.653 86.8919 128.853 87.2001 129.148 87.4056C129.447 87.6111 129.836 87.7139 130.317 87.7139C130.863 87.7139 131.298 87.5979 131.619 87.3659C131.944 87.1305 132.106 86.8488 132.106 86.5207C132.106 86.2555 132.014 86.0335 131.828 85.8545C131.642 85.6722 131.357 85.5363 130.973 85.4468L129.7 85.1485C129.001 84.9828 128.487 84.7259 128.159 84.3779C127.834 84.0266 127.672 83.5874 127.672 83.0605C127.672 82.6296 127.793 82.2484 128.035 81.917C128.28 81.5856 128.613 81.3254 129.034 81.1365C129.458 80.9475 129.939 80.8531 130.476 80.8531C131.231 80.8531 131.825 81.0188 132.256 81.3502C132.69 81.6817 132.998 82.1192 133.18 82.6627ZM138.407 80.9525V81.9468H134.449V80.9525H138.407ZM135.603 79.123H136.776V86.4014C136.776 86.7328 136.824 86.9814 136.92 87.1471C137.02 87.3095 137.145 87.4189 137.298 87.4752C137.454 87.5283 137.618 87.5548 137.79 87.5548C137.919 87.5548 138.025 87.5481 138.108 87.5349C138.191 87.5183 138.257 87.5051 138.307 87.4951L138.546 88.5491C138.466 88.5789 138.355 88.6088 138.213 88.6386C138.07 88.6717 137.89 88.6883 137.671 88.6883C137.339 88.6883 137.015 88.617 136.696 88.4745C136.382 88.332 136.12 88.1149 135.911 87.8232C135.705 87.5316 135.603 87.1637 135.603 86.7195V79.123ZM140.172 88.5889V80.9525H141.305V82.1059H141.385C141.524 81.7281 141.776 81.4215 142.14 81.1862C142.505 80.9508 142.916 80.8332 143.373 80.8332C143.459 80.8332 143.567 80.8348 143.696 80.8382C143.826 80.8415 143.923 80.8464 143.99 80.8531V82.0463C143.95 82.0363 143.859 82.0214 143.716 82.0015C143.577 81.9783 143.43 81.9667 143.274 81.9667C142.903 81.9667 142.571 82.0446 142.279 82.2004C141.991 82.3528 141.762 82.565 141.593 82.8367C141.428 83.1052 141.345 83.4118 141.345 83.7565V88.5889H140.172ZM150.193 85.4667V80.9525H151.366V88.5889H150.193V87.2963H150.113C149.934 87.684 149.656 88.0138 149.278 88.2856C148.9 88.5541 148.423 88.6883 147.846 88.6883C147.369 88.6883 146.945 88.5839 146.574 88.3751C146.202 88.163 145.911 87.8448 145.699 87.4205C145.487 86.993 145.381 86.4544 145.381 85.8048V80.9525H146.554V85.7252C146.554 86.282 146.71 86.7262 147.021 87.0576C147.336 87.3891 147.737 87.5548 148.224 87.5548C148.516 87.5548 148.813 87.4802 149.114 87.3311C149.419 87.1819 149.674 86.9532 149.88 86.645C150.089 86.3367 150.193 85.944 150.193 85.4667ZM156.618 88.748C155.902 88.748 155.285 88.5789 154.768 88.2409C154.251 87.9028 153.853 87.4371 153.575 86.8438C153.297 86.2506 153.157 85.5728 153.157 84.8105C153.157 84.0349 153.3 83.3505 153.585 82.7572C153.873 82.1606 154.274 81.6949 154.788 81.3602C155.305 81.0221 155.908 80.8531 156.598 80.8531C157.135 80.8531 157.618 80.9525 158.049 81.1514C158.48 81.3502 158.833 81.6286 159.108 81.9866C159.383 82.3445 159.554 82.7622 159.62 83.2394H158.447C158.358 82.8914 158.159 82.5832 157.85 82.3147C157.546 82.0429 157.135 81.907 156.618 81.907C156.16 81.907 155.759 82.0264 155.414 82.265C155.073 82.5003 154.806 82.8334 154.614 83.2643C154.425 83.6918 154.331 84.194 154.331 84.7707C154.331 85.3606 154.423 85.8744 154.609 86.3119C154.798 86.7494 155.063 87.0891 155.404 87.3311C155.749 87.573 156.154 87.694 156.618 87.694C156.922 87.694 157.199 87.641 157.448 87.5349C157.696 87.4288 157.907 87.2764 158.079 87.0775C158.252 86.8786 158.374 86.64 158.447 86.3616H159.62C159.554 86.8124 159.39 87.2184 159.128 87.5796C158.87 87.9376 158.527 88.2226 158.099 88.4347C157.675 88.6436 157.181 88.748 156.618 88.748ZM164.657 80.9525V81.9468H160.699V80.9525H164.657ZM161.853 79.123H163.026V86.4014C163.026 86.7328 163.074 86.9814 163.17 87.1471C163.27 87.3095 163.395 87.4189 163.548 87.4752C163.704 87.5283 163.868 87.5548 164.04 87.5548C164.169 87.5548 164.275 87.5481 164.358 87.5349C164.441 87.5183 164.507 87.5051 164.557 87.4951L164.796 88.5491C164.716 88.5789 164.605 88.6088 164.463 88.6386C164.32 88.6717 164.14 88.6883 163.921 88.6883C163.589 88.6883 163.265 88.617 162.946 88.4745C162.632 88.332 162.37 88.1149 162.161 87.8232C161.955 87.5316 161.853 87.1637 161.853 86.7195V79.123ZM166.422 88.5889V80.9525H167.595V88.5889H166.422ZM167.018 79.6798C166.789 79.6798 166.592 79.6019 166.426 79.4461C166.264 79.2903 166.183 79.1031 166.183 78.8843C166.183 78.6656 166.264 78.4783 166.426 78.3225C166.592 78.1668 166.789 78.0889 167.018 78.0889C167.247 78.0889 167.442 78.1668 167.605 78.3225C167.77 78.4783 167.853 78.6656 167.853 78.8843C167.853 79.1031 167.77 79.2903 167.605 79.4461C167.442 79.6019 167.247 79.6798 167.018 79.6798ZM172.846 88.748C172.157 88.748 171.552 88.5839 171.031 88.2558C170.514 87.9276 170.11 87.4686 169.818 86.8786C169.53 86.2887 169.386 85.5993 169.386 84.8105C169.386 84.015 169.53 83.3206 169.818 82.7274C170.11 82.1341 170.514 81.6734 171.031 81.3453C171.552 81.0171 172.157 80.8531 172.846 80.8531C173.535 80.8531 174.139 81.0171 174.656 81.3453C175.176 81.6734 175.58 82.1341 175.869 82.7274C176.16 83.3206 176.306 84.015 176.306 84.8105C176.306 85.5993 176.16 86.2887 175.869 86.8786C175.58 87.4686 175.176 87.9276 174.656 88.2558C174.139 88.5839 173.535 88.748 172.846 88.748ZM172.846 87.694C173.37 87.694 173.801 87.5597 174.139 87.2913C174.477 87.0228 174.727 86.6698 174.889 86.2323C175.052 85.7948 175.133 85.3209 175.133 84.8105C175.133 84.3 175.052 83.8244 174.889 83.3836C174.727 82.9428 174.477 82.5865 174.139 82.3147C173.801 82.0429 173.37 81.907 172.846 81.907C172.322 81.907 171.892 82.0429 171.553 82.3147C171.215 82.5865 170.965 82.9428 170.803 83.3836C170.64 83.8244 170.559 84.3 170.559 84.8105C170.559 85.3209 170.64 85.7948 170.803 86.2323C170.965 86.6698 171.215 87.0228 171.553 87.2913C171.892 87.5597 172.322 87.694 172.846 87.694ZM179.271 83.9951V88.5889H178.097V80.9525H179.231V82.1457H179.33C179.509 81.7579 179.781 81.4463 180.146 81.211C180.51 80.9724 180.981 80.8531 181.558 80.8531C182.075 80.8531 182.527 80.9591 182.915 81.1713C183.303 81.3801 183.604 81.6982 183.82 82.1258C184.035 82.55 184.143 83.087 184.143 83.7366V88.5889H182.969V83.8161C182.969 83.2162 182.814 82.7489 182.502 82.4142C182.191 82.0761 181.763 81.907 181.219 81.907C180.845 81.907 180.51 81.9883 180.215 82.1507C179.924 82.3131 179.693 82.55 179.524 82.8616C179.355 83.1731 179.271 83.551 179.271 83.9951ZM190.224 88.5889V80.9525H191.398V88.5889H190.224ZM190.821 79.6798C190.592 79.6798 190.395 79.6019 190.229 79.4461C190.067 79.2903 189.986 79.1031 189.986 78.8843C189.986 78.6656 190.067 78.4783 190.229 78.3225C190.395 78.1668 190.592 78.0889 190.821 78.0889C191.05 78.0889 191.245 78.1668 191.407 78.3225C191.573 78.4783 191.656 78.6656 191.656 78.8843C191.656 79.1031 191.573 79.2903 191.407 79.4461C191.245 79.6019 191.05 79.6798 190.821 79.6798ZM194.72 83.9951V88.5889H193.547V80.9525H194.68V82.1457H194.779C194.958 81.7579 195.23 81.4463 195.595 81.211C195.959 80.9724 196.43 80.8531 197.007 80.8531C197.524 80.8531 197.976 80.9591 198.364 81.1713C198.752 81.3801 199.053 81.6982 199.269 82.1258C199.484 82.55 199.592 83.087 199.592 83.7366V88.5889H198.419V83.8161C198.419 83.2162 198.263 82.7489 197.951 82.4142C197.64 82.0761 197.212 81.907 196.669 81.907C196.294 81.907 195.959 81.9883 195.664 82.1507C195.373 82.3131 195.142 82.55 194.973 82.8616C194.804 83.1731 194.72 83.551 194.72 83.9951ZM204.619 88.748C203.983 88.748 203.421 88.5872 202.934 88.2657C202.447 87.9409 202.066 87.4835 201.791 86.8936C201.516 86.3003 201.378 85.5993 201.378 84.7906C201.378 83.9885 201.516 83.2925 201.791 82.7025C202.066 82.1125 202.449 81.6568 202.939 81.3353C203.43 81.0138 203.996 80.8531 204.639 80.8531C205.137 80.8531 205.529 80.9359 205.818 81.1017C206.109 81.2641 206.331 81.4497 206.484 81.6585C206.64 81.864 206.761 82.033 206.847 82.1656H206.946V78.407H208.119V88.5889H206.986V87.4156H206.847C206.761 87.5548 206.638 87.7304 206.479 87.9426C206.32 88.1514 206.093 88.3386 205.798 88.5044C205.503 88.6668 205.11 88.748 204.619 88.748ZM204.779 87.694C205.249 87.694 205.647 87.5713 205.972 87.3261C206.297 87.0775 206.544 86.7345 206.713 86.297C206.882 85.8561 206.966 85.3474 206.966 84.7707C206.966 84.2006 206.883 83.7018 206.718 83.2742C206.552 82.8434 206.307 82.5086 205.982 82.27C205.657 82.028 205.256 81.907 204.779 81.907C204.281 81.907 203.867 82.0347 203.536 82.2899C203.208 82.5418 202.961 82.8848 202.795 83.319C202.633 83.7499 202.551 84.2338 202.551 84.7707C202.551 85.3142 202.634 85.8081 202.8 86.2522C202.969 86.693 203.218 87.0444 203.546 87.3062C203.877 87.5647 204.288 87.694 204.779 87.694ZM215.244 85.4667V80.9525H216.417V88.5889H215.244V87.2963H215.164C214.985 87.684 214.707 88.0138 214.329 88.2856C213.951 88.5541 213.474 88.6883 212.897 88.6883C212.42 88.6883 211.996 88.5839 211.624 88.3751C211.253 88.163 210.962 87.8448 210.749 87.4205C210.537 86.993 210.431 86.4544 210.431 85.8048V80.9525H211.605V85.7252C211.605 86.282 211.76 86.7262 212.072 87.0576C212.387 87.3891 212.788 87.5548 213.275 87.5548C213.567 87.5548 213.863 87.4802 214.165 87.3311C214.47 87.1819 214.725 86.9532 214.931 86.645C215.139 86.3367 215.244 85.944 215.244 85.4667ZM223.975 82.6627L222.921 82.961C222.855 82.7854 222.757 82.6147 222.628 82.449C222.502 82.2799 222.33 82.1407 222.111 82.0313C221.892 81.922 221.612 81.8673 221.271 81.8673C220.803 81.8673 220.414 81.975 220.102 82.1904C219.794 82.4026 219.64 82.6727 219.64 83.0008C219.64 83.2925 219.746 83.5228 219.958 83.6919C220.17 83.8609 220.502 84.0017 220.952 84.1144L222.086 84.3928C222.769 84.5586 223.277 84.8121 223.612 85.1535C223.947 85.4916 224.114 85.9274 224.114 86.461C224.114 86.8985 223.988 87.2896 223.737 87.6343C223.488 87.979 223.14 88.2508 222.692 88.4497C222.245 88.6485 221.725 88.748 221.131 88.748C220.353 88.748 219.708 88.5789 219.197 88.2409C218.687 87.9028 218.364 87.4089 218.228 86.7593L219.342 86.4809C219.448 86.8919 219.648 87.2001 219.943 87.4056C220.241 87.6111 220.631 87.7139 221.112 87.7139C221.658 87.7139 222.093 87.5979 222.414 87.3659C222.739 87.1305 222.901 86.8488 222.901 86.5207C222.901 86.2555 222.808 86.0335 222.623 85.8545C222.437 85.6722 222.152 85.5363 221.768 85.4468L220.495 85.1485C219.796 84.9828 219.282 84.7259 218.954 84.3779C218.629 84.0266 218.467 83.5874 218.467 83.0605C218.467 82.6296 218.588 82.2484 218.83 81.917C219.075 81.5856 219.408 81.3254 219.829 81.1365C220.253 80.9475 220.734 80.8531 221.271 80.8531C222.026 80.8531 222.62 81.0188 223.05 81.3502C223.485 81.6817 223.793 82.1192 223.975 82.6627ZM229.202 80.9525V81.9468H225.244V80.9525H229.202ZM226.398 79.123H227.571V86.4014C227.571 86.7328 227.619 86.9814 227.715 87.1471C227.814 87.3095 227.94 87.4189 228.093 87.4752C228.249 87.5283 228.413 87.5548 228.585 87.5548C228.714 87.5548 228.82 87.5481 228.903 87.5349C228.986 87.5183 229.052 87.5051 229.102 87.4951L229.341 88.5491C229.261 88.5789 229.15 88.6088 229.008 88.6386C228.865 88.6717 228.684 88.6883 228.466 88.6883C228.134 88.6883 227.809 88.617 227.491 88.4745C227.176 88.332 226.915 88.1149 226.706 87.8232C226.5 87.5316 226.398 87.1637 226.398 86.7195V79.123ZM230.966 88.5889V80.9525H232.1V82.1059H232.18C232.319 81.7281 232.571 81.4215 232.935 81.1862C233.3 80.9508 233.711 80.8332 234.168 80.8332C234.254 80.8332 234.362 80.8348 234.491 80.8382C234.621 80.8415 234.718 80.8464 234.785 80.8531V82.0463C234.745 82.0363 234.654 82.0214 234.511 82.0015C234.372 81.9783 234.224 81.9667 234.069 81.9667C233.698 81.9667 233.366 82.0446 233.074 82.2004C232.786 82.3528 232.557 82.565 232.388 82.8367C232.223 83.1052 232.14 83.4118 232.14 83.7565V88.5889H230.966ZM237.164 91.4525C236.965 91.4525 236.787 91.4359 236.632 91.4028C236.476 91.373 236.368 91.3431 236.308 91.3133L236.607 90.2792C236.892 90.3521 237.144 90.3786 237.362 90.3588C237.581 90.3389 237.775 90.2411 237.944 90.0654C238.116 89.8931 238.274 89.613 238.416 89.2252L238.635 88.6286L235.811 80.9525H237.084L239.192 87.0377H239.271L241.379 80.9525H242.652L239.411 89.7025C239.265 90.0969 239.084 90.4234 238.869 90.6819C238.653 90.9437 238.403 91.1376 238.118 91.2636C237.836 91.3895 237.518 91.4525 237.164 91.4525ZM244.577 88.6684C244.332 88.6684 244.122 88.5806 243.946 88.4049C243.77 88.2293 243.683 88.0188 243.683 87.7735C243.683 87.5283 243.77 87.3178 243.946 87.1421C244.122 86.9665 244.332 86.8786 244.577 86.8786C244.823 86.8786 245.033 86.9665 245.209 87.1421C245.384 87.3178 245.472 87.5283 245.472 87.7735C245.472 87.9359 245.431 88.0851 245.348 88.221C245.268 88.3569 245.161 88.4662 245.025 88.5491C244.892 88.6286 244.743 88.6684 244.577 88.6684Z" fill="white"/>
<rect x="88.998" y="48.5221" width="86.1493" height="24" rx="4" fill="#E6EEFC"/>
<path d="M99.0522 66.486H96.8022L100.899 54.8496H103.501L107.603 66.486H105.353L102.245 57.236H102.154L99.0522 66.486ZM99.1261 61.9235H105.262V63.6166H99.1261V61.9235ZM111.244 54.8496V66.486H109.136V54.8496H111.244ZM118.725 60.7928V62.486H113.487V60.7928H118.725ZM124.127 66.6394C123.442 66.6394 122.828 66.4632 122.287 66.111C121.745 65.7587 121.317 65.2473 121.002 64.5769C120.688 63.9064 120.531 63.092 120.531 62.1337C120.531 61.164 120.69 60.3458 121.008 59.6791C121.33 59.0087 121.764 58.503 122.309 58.1621C122.855 57.8174 123.463 57.6451 124.133 57.6451C124.645 57.6451 125.065 57.7322 125.395 57.9064C125.724 58.0769 125.985 58.2833 126.179 58.5257C126.372 58.7644 126.521 58.9897 126.627 59.2019H126.713V54.8496H128.775V66.486H126.752V65.111H126.627C126.521 65.3231 126.368 65.5485 126.167 65.7871C125.966 66.0219 125.701 66.2227 125.372 66.3894C125.042 66.556 124.627 66.6394 124.127 66.6394ZM124.701 64.9519C125.137 64.9519 125.508 64.8344 125.815 64.5996C126.122 64.361 126.355 64.0295 126.514 63.6053C126.673 63.181 126.752 62.6867 126.752 62.1223C126.752 61.5579 126.673 61.0674 126.514 60.6507C126.359 60.2341 126.127 59.9102 125.821 59.6791C125.518 59.4481 125.145 59.3326 124.701 59.3326C124.243 59.3326 123.86 59.4519 123.554 59.6905C123.247 59.9291 123.016 60.2587 122.86 60.6791C122.705 61.0996 122.627 61.5807 122.627 62.1223C122.627 62.6678 122.705 63.1545 122.86 63.5826C123.02 64.0068 123.252 64.342 123.559 64.5882C123.87 64.8307 124.251 64.9519 124.701 64.9519ZM130.967 66.486V57.7587H132.961V59.2132H133.052C133.211 58.7094 133.484 58.3212 133.87 58.0485C134.261 57.7719 134.706 57.6337 135.206 57.6337C135.319 57.6337 135.446 57.6394 135.586 57.6507C135.73 57.6583 135.85 57.6716 135.944 57.6905V59.5826C135.857 59.5522 135.719 59.5257 135.529 59.503C135.344 59.4765 135.164 59.4632 134.99 59.4632C134.615 59.4632 134.278 59.5447 133.978 59.7076C133.683 59.8666 133.45 60.0882 133.279 60.3723C133.109 60.6564 133.024 60.9841 133.024 61.3553V66.486H130.967ZM137.311 66.486V57.7587H139.368V66.486H137.311ZM138.345 56.5201C138.019 56.5201 137.739 56.4121 137.504 56.1962C137.269 55.9765 137.152 55.7132 137.152 55.4064C137.152 55.0958 137.269 54.8326 137.504 54.6166C137.739 54.3969 138.019 54.2871 138.345 54.2871C138.674 54.2871 138.955 54.3969 139.186 54.6166C139.421 54.8326 139.538 55.0958 139.538 55.4064C139.538 55.7132 139.421 55.9765 139.186 56.1962C138.955 56.4121 138.674 56.5201 138.345 56.5201ZM149.278 57.7587L146.17 66.486H143.897L140.789 57.7587H142.983L144.988 64.2416H145.079L147.091 57.7587H149.278ZM154.268 66.6564C153.393 66.6564 152.637 66.4746 152.001 66.111C151.368 65.7435 150.882 65.2246 150.541 64.5541C150.2 63.8799 150.029 63.0863 150.029 62.1735C150.029 61.2757 150.2 60.4879 150.541 59.8098C150.886 59.128 151.367 58.5977 151.984 58.2189C152.601 57.8363 153.327 57.6451 154.16 57.6451C154.698 57.6451 155.206 57.7322 155.683 57.9064C156.164 58.0769 156.588 58.342 156.956 58.7019C157.327 59.0617 157.618 59.5201 157.831 60.0769C158.043 60.6299 158.149 61.289 158.149 62.0541V62.6848H150.995V61.2985H156.177C156.173 60.9045 156.088 60.5541 155.922 60.2473C155.755 59.9367 155.522 59.6924 155.223 59.5144C154.927 59.3363 154.583 59.2473 154.189 59.2473C153.768 59.2473 153.399 59.3496 153.081 59.5541C152.762 59.7549 152.514 60.0201 152.336 60.3496C152.162 60.6754 152.073 61.0333 152.069 61.4235V62.6337C152.069 63.1413 152.162 63.5769 152.348 63.9405C152.533 64.3004 152.793 64.5769 153.126 64.7701C153.459 64.9594 153.85 65.0541 154.297 65.0541C154.596 65.0541 154.867 65.0125 155.109 64.9291C155.351 64.842 155.562 64.7151 155.74 64.5485C155.918 64.3818 156.052 64.1754 156.143 63.9291L158.064 64.1451C157.942 64.6526 157.711 65.0958 157.37 65.4746C157.033 65.8496 156.601 66.1413 156.075 66.3496C155.548 66.5541 154.946 66.6564 154.268 66.6564ZM161.946 61.3723V66.486H159.889V57.7587H161.855V59.2416H161.957C162.158 58.753 162.478 58.3647 162.917 58.0769C163.36 57.789 163.908 57.6451 164.559 57.6451C165.162 57.6451 165.686 57.7738 166.133 58.0314C166.584 58.289 166.932 58.6621 167.179 59.1507C167.429 59.6394 167.552 60.2322 167.548 60.9291V66.486H165.491V61.2473C165.491 60.664 165.34 60.2076 165.037 59.878C164.737 59.5485 164.323 59.3837 163.792 59.3837C163.432 59.3837 163.112 59.4632 162.832 59.6223C162.556 59.7776 162.338 60.003 162.179 60.2985C162.023 60.5939 161.946 60.9519 161.946 61.3723Z" fill="#0056E2"/>
<defs>
<clipPath id="clip0_272_24611">
<rect width="145" height="30" fill="white" transform="translate(59)"/>
</clipPath>
</defs>
</svg>
