<svg width="29" height="29" viewBox="0 0 29 29" fill="none" xmlns="http://www.w3.org/2000/svg">
<path d="M16.5654 7.74094C13.0499 7.00397 10.3022 4.25623 9.56531 0.740704C9.4748 0.30915 9.09417 0 8.6531 0C8.21203 0 7.8314 0.309151 7.74094 0.74076C7.00403 4.25623 4.25629 7.00392 0.740817 7.74077C0.309207 7.83123 0 8.21192 0 8.65293C0 9.09394 0.309151 9.47463 0.740817 9.56509C4.25623 10.3021 7.00386 13.0497 7.74077 16.5652C7.83123 16.9968 8.21186 17.306 8.65293 17.306C9.09394 17.306 9.47463 16.9969 9.56509 16.5652C10.3021 13.0497 13.0499 10.3021 16.5653 9.56526C16.9969 9.4748 17.3061 9.09417 17.3061 8.6531C17.3061 8.21209 16.9969 7.8314 16.5654 7.74094Z" fill="url(#paint0_linear_235_201)"/>
<path d="M15.0249 23.137C13.3685 22.7899 12.0739 21.4953 11.7267 19.8388C11.6362 19.4072 11.2556 19.098 10.8145 19.098C10.3735 19.098 9.9928 19.4071 9.90235 19.8388C9.55508 21.4952 8.26042 22.7898 6.6041 23.137C6.17249 23.2274 5.86328 23.6081 5.86328 24.0491C5.86328 24.4901 6.17243 24.8708 6.6041 24.9613C8.26036 25.3085 9.55502 26.6032 9.90223 28.2595C9.99269 28.6911 10.3733 29.0004 10.8144 29.0004C11.2554 29.0004 11.6361 28.6913 11.7265 28.2595C12.0738 26.6032 13.3685 25.3086 15.0249 24.9613C15.4565 24.8709 15.7657 24.4902 15.7657 24.0492C15.7657 23.6082 15.4565 23.2275 15.0249 23.137Z" fill="url(#paint1_linear_235_201)"/>
<path d="M27.6163 14.5079C25.3775 14.0386 23.6277 12.2887 23.1584 10.0499C23.0679 9.61829 22.6873 9.30908 22.2462 9.30908C21.8052 9.30908 21.4245 9.61818 21.3341 10.0498C20.8647 12.2887 19.1149 14.0385 16.8761 14.5078C16.4445 14.5982 16.1353 14.9789 16.1353 15.4199C16.1353 15.8609 16.4444 16.2416 16.8761 16.3321C19.1148 16.8014 20.8647 18.5513 21.3339 20.7901C21.4244 21.2217 21.805 21.5309 22.2461 21.5309C22.6871 21.5309 23.0678 21.2218 23.1583 20.7901C23.6277 18.5513 25.3775 16.8014 27.6162 16.3322C28.0479 16.2417 28.3571 15.8611 28.3571 15.42C28.3571 14.979 28.0479 14.5983 27.6163 14.5079Z" fill="url(#paint2_linear_235_201)"/>
<defs>
<linearGradient id="paint0_linear_235_201" x1="17.4529" y1="47.3514" x2="53.7451" y2="14.4486" gradientUnits="userSpaceOnUse">
<stop stop-color="#5825EB"/>
<stop offset="1" stop-color="#DB7F14"/>
</linearGradient>
<linearGradient id="paint1_linear_235_201" x1="15.8497" y1="46.192" x2="36.6156" y2="27.3654" gradientUnits="userSpaceOnUse">
<stop stop-color="#5825EB"/>
<stop offset="1" stop-color="#DB7F14"/>
</linearGradient>
<linearGradient id="paint2_linear_235_201" x1="28.4607" y1="42.7495" x2="54.0908" y2="19.5131" gradientUnits="userSpaceOnUse">
<stop stop-color="#5825EB"/>
<stop offset="1" stop-color="#DB7F14"/>
</linearGradient>
</defs>
</svg>
